<svg width="265" height="301" viewBox="0 0 265 301" fill="none" xmlns="../../../../www.w3.org/2000/svg.html">
<path d="M8.54297 260.269L2.24666 260.269L2.24666 257.621L7.38543 256.875L7.38543 256.595L2.24666 255.77L2.24666 253.122L8.54297 253.122L8.54297 254.341L3.4042 254.341L3.4042 254.762L8.54297 255.656L8.54297 257.849L3.4042 258.664L3.4042 259.085L8.54297 259.085L8.54297 260.269ZM7.70112 246.498C8.32081 247.065 8.63066 247.767 8.63066 248.603C8.63066 249.439 8.32081 250.143 7.70112 250.716C7.08143 251.283 6.31266 251.567 5.39481 251.567C4.47697 251.567 3.7082 251.283 3.08851 250.716C2.46881 250.143 2.15897 249.439 2.15897 248.603C2.15897 247.767 2.46881 247.065 3.08851 246.498C3.7082 245.931 4.47697 245.647 5.39481 245.647C6.31266 245.647 7.08143 245.931 7.70112 246.498ZM7.46435 248.603C7.46435 248.082 7.32112 247.685 7.03466 247.41C6.7482 247.135 6.33312 246.998 5.78943 246.998L5.0002 246.998C4.45066 246.998 4.03558 247.135 3.75497 247.41C3.46851 247.679 3.32528 248.076 3.32528 248.603C3.32528 249.129 3.46851 249.529 3.75497 249.804C4.03558 250.073 4.45066 250.207 5.0002 250.207L5.78943 250.207C6.33312 250.207 6.7482 250.073 7.03466 249.804C7.32112 249.529 7.46435 249.129 7.46435 248.603ZM8.54297 244.093L2.24666 244.093L2.24666 241.498L7.38543 240.209L7.38543 239.867L2.24666 239.867L2.24666 238.683L8.54297 238.683L8.54297 241.173L3.4042 242.489L3.4042 242.91L8.54297 242.91L8.54297 244.093ZM8.54297 235.542L3.42174 235.542L3.42174 237.252L2.24666 237.252L2.24666 232.543L3.42174 232.543L3.42174 234.253L8.54297 234.253L8.54297 235.542ZM8.54297 231.112L2.24666 231.112L2.24666 229.823L4.71958 229.823L4.71958 227.412L2.24666 227.412L2.24666 226.122L8.54297 226.122L8.54297 227.412L5.86835 227.412L5.86835 229.823L8.54297 229.823L8.54297 231.112ZM8.63066 222.034C8.63066 222.747 8.42312 223.343 8.00804 223.823C7.58712 224.296 7.0522 224.548 6.40327 224.577L6.40327 223.235C6.83589 223.229 7.13697 223.139 7.30651 222.963C7.4702 222.788 7.55204 222.469 7.55204 222.007C7.55204 221.265 7.31527 220.894 6.84174 220.894L6.62251 220.894C6.45297 220.894 6.32727 220.946 6.24543 221.052C6.16358 221.157 6.09927 221.358 6.05251 221.657L5.9122 222.507C5.81281 223.08 5.60235 223.536 5.28081 223.875C4.95927 224.208 4.57635 224.375 4.13204 224.375C3.5942 224.375 3.13235 224.15 2.74651 223.7C2.35481 223.25 2.15897 222.712 2.15897 222.086C2.15897 221.437 2.35481 220.888 2.74651 220.438C3.1382 219.982 3.63804 219.724 4.24604 219.666L4.24604 221.016C3.86604 221.016 3.60297 221.098 3.45681 221.262C3.31066 221.42 3.23758 221.703 3.23758 222.113C3.23758 222.767 3.45974 223.095 3.90404 223.095L4.10574 223.095C4.28112 223.095 4.41558 223.039 4.50912 222.928C4.60266 222.811 4.66989 222.612 4.71081 222.332L4.86866 221.446C5.08497 220.201 5.66081 219.578 6.5962 219.578C7.15158 219.578 7.63097 219.821 8.03435 220.306C8.43189 220.791 8.63066 221.367 8.63066 222.034Z" fill="#0069ff"/>
<path d="M37.7092 256.721V255.581H39.3929V251.564H37.9109V250.424H40.6382V255.581H42.3218V256.721H37.7092ZM47.8675 255.896C47.3998 256.504 46.8035 256.808 46.0786 256.808C45.3536 256.808 44.7573 256.504 44.2896 255.896C43.8278 255.288 43.5969 254.514 43.5969 253.573C43.5969 252.631 43.8307 251.857 44.2984 251.249C44.7661 250.641 45.3595 250.337 46.0786 250.337C46.7976 250.337 47.391 250.641 47.8587 251.249C48.3323 251.857 48.569 252.631 48.569 253.573C48.569 254.514 48.3352 255.288 47.8675 255.896ZM46.0786 255.721C46.4878 255.721 46.783 255.619 46.9643 255.414C47.1513 255.209 47.2449 254.891 47.2449 254.458V252.687C47.2449 252.248 47.1513 251.927 46.9643 251.722C46.783 251.518 46.4878 251.415 46.0786 251.415C45.6752 251.415 45.38 251.518 45.1929 251.722C45.0058 251.927 44.9123 252.248 44.9123 252.687V254.458C44.9123 254.891 45.0058 255.209 45.1929 255.414C45.38 255.619 45.6752 255.721 46.0786 255.721Z" fill="#ABABAB"/>
<path d="M74.1968 270.649C74.8106 270.649 75.3105 270.851 75.6963 271.254C76.0822 271.658 76.2751 272.16 76.2751 272.763C76.2751 273.394 76.0588 273.92 75.6262 274.341C75.1994 274.762 74.6382 274.972 73.9425 274.972C73.3696 274.972 72.8726 274.818 72.4517 274.508C72.0308 274.192 71.7648 273.774 71.6537 273.254H72.9691C72.9983 273.482 73.0889 273.645 73.2409 273.745C73.3988 273.844 73.6356 273.894 73.9512 273.894C74.6236 273.894 74.9597 273.613 74.9597 273.052V272.482C74.9597 271.938 74.6206 271.666 73.9425 271.666C73.3403 271.666 72.9983 271.906 72.9165 272.386H71.7852V268.588H75.9594V269.728H72.8551V271.202C73.2351 270.833 73.6823 270.649 74.1968 270.649ZM82.1343 274.06C81.6666 274.668 81.0703 274.972 80.3454 274.972C79.6205 274.972 79.0242 274.668 78.5565 274.06C78.0946 273.452 77.8637 272.678 77.8637 271.737C77.8637 270.795 78.0975 270.021 78.5652 269.413C79.0329 268.805 79.6263 268.501 80.3454 268.501C81.0645 268.501 81.6578 268.805 82.1255 269.413C82.5991 270.021 82.8358 270.795 82.8358 271.737C82.8358 272.678 82.602 273.452 82.1343 274.06ZM80.3454 273.885C80.7546 273.885 81.0498 273.783 81.2311 273.578C81.4182 273.374 81.5117 273.055 81.5117 272.622V270.851C81.5117 270.412 81.4182 270.091 81.2311 269.886C81.0498 269.682 80.7546 269.579 80.3454 269.579C79.942 269.579 79.6468 269.682 79.4597 269.886C79.2726 270.091 79.1791 270.412 79.1791 270.851V272.622C79.1791 273.055 79.2726 273.374 79.4597 273.578C79.6468 273.783 79.942 273.885 80.3454 273.885ZM87.4486 274.885V268.588H90.0969L90.8423 273.727H91.1229L91.9472 268.588H94.5955V274.885H93.3766V269.746H92.9557L92.0612 274.885H89.8689L89.0534 269.746H88.6324V274.885H87.4486ZM96.4227 274.885V268.588H97.7118V274.885H96.4227ZM99.5392 274.885V268.588H100.828V273.71H103.257V274.885H99.5392ZM104.737 274.885V268.588H106.026V273.71H108.455V274.885H104.737ZM109.934 274.885V268.588H111.223V274.885H109.934ZM117.847 274.043C117.28 274.663 116.579 274.972 115.743 274.972C114.907 274.972 114.202 274.663 113.629 274.043C113.062 273.423 112.779 272.654 112.779 271.737C112.779 270.819 113.062 270.05 113.629 269.43C114.202 268.811 114.907 268.501 115.743 268.501C116.579 268.501 117.28 268.811 117.847 269.43C118.414 270.05 118.698 270.819 118.698 271.737C118.698 272.654 118.414 273.423 117.847 274.043ZM115.743 273.806C116.263 273.806 116.661 273.663 116.935 273.376C117.21 273.09 117.348 272.675 117.348 272.131V271.342C117.348 270.792 117.21 270.377 116.935 270.097C116.666 269.81 116.269 269.667 115.743 269.667C115.217 269.667 114.816 269.81 114.541 270.097C114.272 270.377 114.138 270.792 114.138 271.342V272.131C114.138 272.675 114.272 273.09 114.541 273.376C114.816 273.663 115.217 273.806 115.743 273.806ZM120.252 274.885V268.588H122.848L124.137 273.727H124.479V268.588H125.663V274.885H123.172L121.857 269.746H121.436V274.885H120.252ZM133.02 274.972C132.207 274.972 131.526 274.663 130.977 274.043C130.433 273.417 130.161 272.649 130.161 271.737C130.161 270.825 130.433 270.059 130.977 269.439C131.526 268.814 132.207 268.501 133.02 268.501C133.716 268.501 134.335 268.755 134.879 269.264C135.423 269.772 135.721 270.377 135.773 271.079H134.388C134.364 270.582 134.242 270.222 134.02 270C133.803 269.778 133.464 269.667 133.002 269.667C132.47 269.667 132.09 269.796 131.862 270.053C131.634 270.31 131.52 270.74 131.52 271.342V272.131C131.52 272.733 131.634 273.163 131.862 273.42C132.09 273.678 132.47 273.806 133.002 273.806C133.464 273.806 133.806 273.695 134.028 273.473C134.25 273.245 134.37 272.882 134.388 272.386H135.773C135.721 273.087 135.423 273.695 134.879 274.21C134.335 274.718 133.716 274.972 133.02 274.972ZM141.033 274.885L140.656 273.403H138.428L138.051 274.885H136.727L138.498 268.588H140.647L142.401 274.885H141.033ZM138.718 272.298H140.366L139.717 269.746H139.367L138.718 272.298ZM143.885 274.885V268.588H145.174V273.71H147.603V274.885H143.885ZM149.083 274.885V268.588H150.372V273.71H152.801V274.885H149.083ZM156.371 274.972C155.658 274.972 155.062 274.765 154.582 274.35C154.109 273.929 153.857 273.394 153.828 272.745H155.17C155.176 273.178 155.266 273.479 155.442 273.648C155.617 273.812 155.936 273.894 156.398 273.894C157.14 273.894 157.511 273.657 157.511 273.184V272.964C157.511 272.795 157.459 272.669 157.353 272.587C157.248 272.505 157.046 272.441 156.748 272.394L155.898 272.254C155.325 272.155 154.869 271.944 154.53 271.623C154.196 271.301 154.03 270.918 154.03 270.474C154.03 269.936 154.255 269.474 154.705 269.088C155.155 268.697 155.693 268.501 156.319 268.501C156.968 268.501 157.517 268.697 157.967 269.088C158.423 269.48 158.68 269.98 158.739 270.588H157.388C157.388 270.208 157.307 269.945 157.143 269.799C156.985 269.652 156.702 269.579 156.292 269.579C155.638 269.579 155.31 269.802 155.31 270.246V270.448C155.31 270.623 155.366 270.757 155.477 270.851C155.594 270.944 155.792 271.012 156.073 271.053L156.959 271.21C158.204 271.427 158.827 272.003 158.827 272.938C158.827 273.493 158.584 273.973 158.099 274.376C157.614 274.774 157.038 274.972 156.371 274.972ZM165.541 268.588C166.201 268.588 166.757 268.799 167.207 269.22C167.663 269.635 167.891 270.146 167.891 270.754C167.891 271.362 167.666 271.877 167.216 272.298C166.766 272.713 166.216 272.92 165.567 272.92H164.602V274.885H163.313V268.588H165.541ZM166.593 271.009V270.491C166.593 270.234 166.508 270.047 166.339 269.93C166.175 269.807 165.915 269.746 165.558 269.746H164.602V271.763H165.585C165.935 271.763 166.19 271.702 166.348 271.579C166.511 271.456 166.593 271.266 166.593 271.009ZM169.402 274.885V268.588H173.356V269.746H170.682V271.061H173.093V272.21H170.682V273.727H173.418V274.885H169.402ZM179.893 274.885H178.394L177.114 272.64H176.342V274.885H175.053V268.588H177.333C177.988 268.588 178.537 268.784 178.981 269.176C179.426 269.562 179.648 270.041 179.648 270.614C179.648 271 179.531 271.351 179.297 271.666C179.063 271.982 178.748 272.225 178.35 272.394L179.893 274.885ZM176.342 269.72V271.517H177.377C178.008 271.517 178.324 271.275 178.324 270.79V270.448C178.324 269.962 178.008 269.72 177.377 269.72H176.342ZM184.317 274.885V268.588H185.607V271.061H188.018V268.588H189.307V274.885H188.018V272.21H185.607V274.885H184.317ZM195.93 274.043C195.363 274.663 194.662 274.972 193.826 274.972C192.99 274.972 192.285 274.663 191.712 274.043C191.145 273.423 190.862 272.654 190.862 271.737C190.862 270.819 191.145 270.05 191.712 269.43C192.285 268.811 192.99 268.501 193.826 268.501C194.662 268.501 195.363 268.811 195.93 269.43C196.497 270.05 196.781 270.819 196.781 271.737C196.781 272.654 196.497 273.423 195.93 274.043ZM193.826 273.806C194.346 273.806 194.743 273.663 195.018 273.376C195.293 273.09 195.43 272.675 195.43 272.131V271.342C195.43 270.792 195.293 270.377 195.018 270.097C194.749 269.81 194.352 269.667 193.826 269.667C193.299 269.667 192.899 269.81 192.624 270.097C192.355 270.377 192.221 270.792 192.221 271.342V272.131C192.221 272.675 192.355 273.09 192.624 273.376C192.899 273.663 193.299 273.806 193.826 273.806ZM200.729 274.972C199.992 274.972 199.402 274.75 198.957 274.306C198.513 273.856 198.291 273.26 198.291 272.517V268.588H199.58V272.859C199.58 273.204 199.668 273.452 199.843 273.604C200.024 273.751 200.32 273.824 200.729 273.824C201.138 273.824 201.427 273.751 201.597 273.604C201.772 273.458 201.86 273.21 201.86 272.859V268.588H203.149V272.517C203.149 273.26 202.927 273.856 202.483 274.306C202.044 274.75 201.46 274.972 200.729 274.972ZM209.769 274.885H208.269L206.989 272.64H206.217V274.885H204.928V268.588H207.208C207.863 268.588 208.413 268.784 208.857 269.176C209.301 269.562 209.523 270.041 209.523 270.614C209.523 271 209.406 271.351 209.173 271.666C208.939 271.982 208.623 272.225 208.225 272.394L209.769 274.885ZM206.217 269.72V271.517H207.252C207.883 271.517 208.199 271.275 208.199 270.79V270.448C208.199 269.962 207.883 269.72 207.252 269.72H206.217Z" fill="#ABABAB"/>
<path d="M36.5632 215.352V213.343L38.8257 211.984C39.0829 211.809 39.27 211.654 39.3869 211.519C39.5039 211.379 39.5623 211.227 39.5623 211.063V210.73C39.5623 210.49 39.498 210.318 39.3694 210.213C39.2408 210.102 39.004 210.046 38.6591 210.046C38.2791 210.046 38.0072 210.116 37.8435 210.257C37.6857 210.397 37.6068 210.651 37.6068 211.02H36.344C36.3849 210.458 36.6217 209.976 37.0543 209.573C37.4869 209.169 38.0248 208.968 38.6679 208.968C39.3285 208.968 39.8605 209.152 40.2639 209.52C40.6731 209.888 40.8777 210.344 40.8777 210.888C40.8777 211.63 40.3486 212.309 39.2905 212.922L37.7997 213.861V214.212H40.9391V215.352H36.5632ZM46.8597 214.527C46.392 215.135 45.7957 215.439 45.0708 215.439C44.3458 215.439 43.7495 215.135 43.2818 214.527C42.82 213.919 42.5891 213.145 42.5891 212.203C42.5891 211.262 42.8229 210.488 43.2906 209.88C43.7583 209.272 44.3517 208.968 45.0708 208.968C45.7898 208.968 46.3832 209.272 46.8509 209.88C47.3245 210.488 47.5612 211.262 47.5612 212.203C47.5612 213.145 47.3274 213.919 46.8597 214.527ZM45.0708 214.352C45.48 214.352 45.7752 214.25 45.9565 214.045C46.1435 213.84 46.2371 213.522 46.2371 213.089V211.318C46.2371 210.879 46.1435 210.558 45.9565 210.353C45.7752 210.148 45.48 210.046 45.0708 210.046C44.6674 210.046 44.3721 210.148 44.1851 210.353C43.998 210.558 43.9045 210.879 43.9045 211.318V213.089C43.9045 213.522 43.998 213.84 44.1851 214.045C44.3721 214.25 44.6674 214.352 45.0708 214.352Z" fill="#ABABAB"/>
<path d="M39.807 170.692C40.1578 170.826 40.4355 171.022 40.6401 171.28C40.8447 171.531 40.947 171.82 40.947 172.148C40.947 172.674 40.722 173.127 40.2718 173.507C39.8216 173.881 39.2663 174.068 38.6056 174.068C37.9158 174.068 37.3458 173.887 36.8956 173.524C36.4455 173.156 36.197 172.68 36.1503 172.095H37.3955C37.3955 172.405 37.4832 172.63 37.6586 172.77C37.8398 172.911 38.135 172.981 38.5443 172.981C39.275 172.981 39.6404 172.764 39.6404 172.332V171.841C39.6404 171.449 39.2633 171.253 38.5092 171.253H37.5709V170.218H38.4215C38.7723 170.218 39.0236 170.178 39.1756 170.096C39.3335 170.014 39.4124 169.879 39.4124 169.692V169.219C39.4124 168.856 39.1084 168.675 38.5004 168.675C38.1496 168.675 37.8983 168.739 37.7463 168.868C37.6001 168.991 37.527 169.192 37.527 169.473H36.2818C36.3461 168.959 36.6004 168.517 37.0447 168.149C37.489 167.781 37.9976 167.596 38.5706 167.596C39.1961 167.596 39.7106 167.772 40.114 168.123C40.5173 168.468 40.719 168.886 40.719 169.377C40.719 169.651 40.6372 169.903 40.4735 170.131C40.3098 170.359 40.0876 170.546 39.807 170.692ZM46.8597 173.156C46.392 173.764 45.7957 174.068 45.0708 174.068C44.3458 174.068 43.7495 173.764 43.2818 173.156C42.82 172.548 42.5891 171.774 42.5891 170.832C42.5891 169.891 42.8229 169.116 43.2906 168.508C43.7583 167.9 44.3517 167.596 45.0708 167.596C45.7898 167.596 46.3832 167.9 46.8509 168.508C47.3245 169.116 47.5612 169.891 47.5612 170.832C47.5612 171.774 47.3274 172.548 46.8597 173.156ZM45.0708 172.981C45.48 172.981 45.7752 172.878 45.9565 172.674C46.1435 172.469 46.2371 172.151 46.2371 171.718V169.947C46.2371 169.508 46.1435 169.187 45.9565 168.982C45.7752 168.777 45.48 168.675 45.0708 168.675C44.6674 168.675 44.3721 168.777 44.1851 168.982C43.998 169.187 43.9045 169.508 43.9045 169.947V171.718C43.9045 172.151 43.998 172.469 44.1851 172.674C44.3721 172.878 44.6674 172.981 45.0708 172.981Z" fill="#ABABAB"/>
<path d="M38.8009 132.611V130.7H35.9421V126.315H37.1786V129.665H38.8009V127.753H40.0461V129.665H41.1423V130.7H40.0461V132.611H38.8009ZM46.8609 131.787C46.3932 132.395 45.7969 132.699 45.072 132.699C44.3471 132.699 43.7507 132.395 43.2831 131.787C42.8212 131.179 42.5903 130.404 42.5903 129.463C42.5903 128.522 42.8241 127.747 43.2918 127.139C43.7595 126.531 44.3529 126.227 45.072 126.227C45.7911 126.227 46.3844 126.531 46.8521 127.139C47.3257 127.747 47.5624 128.522 47.5624 129.463C47.5624 130.404 47.3286 131.179 46.8609 131.787ZM45.072 131.612C45.4812 131.612 45.7764 131.509 45.9577 131.305C46.1447 131.1 46.2383 130.781 46.2383 130.349V128.577C46.2383 128.139 46.1447 127.817 45.9577 127.613C45.7764 127.408 45.4812 127.306 45.072 127.306C44.6686 127.306 44.3734 127.408 44.1863 127.613C43.9992 127.817 43.9057 128.139 43.9057 128.577V130.349C43.9057 130.781 43.9992 131.1 44.1863 131.305C44.3734 131.509 44.6686 131.612 45.072 131.612Z" fill="#ABABAB"/>
<path d="M38.9222 87.0066C39.536 87.0066 40.0359 87.2083 40.4217 87.6117C40.8075 88.0151 41.0005 88.5179 41.0005 89.12C41.0005 89.7514 40.7842 90.2776 40.3515 90.6985C39.9248 91.1194 39.3635 91.3299 38.6679 91.3299C38.0949 91.3299 37.598 91.175 37.1771 90.8651C36.7562 90.5494 36.4902 90.1314 36.3791 89.6111H37.6945C37.7237 89.8391 37.8143 90.0028 37.9663 90.1022C38.1242 90.2016 38.3609 90.2513 38.6766 90.2513C39.3489 90.2513 39.6851 89.9706 39.6851 89.4094V88.8394C39.6851 88.2957 39.346 88.0239 38.6679 88.0239C38.0657 88.0239 37.7237 88.2636 37.6419 88.743H36.5106V84.9459H40.6848V86.0859H37.5805V87.5591C37.9605 87.1908 38.4077 87.0066 38.9222 87.0066ZM46.8597 90.4179C46.392 91.0259 45.7957 91.3299 45.0708 91.3299C44.3458 91.3299 43.7495 91.0259 43.2818 90.4179C42.82 89.8099 42.5891 89.0353 42.5891 88.094C42.5891 87.1528 42.8229 86.3782 43.2906 85.7702C43.7583 85.1622 44.3517 84.8582 45.0708 84.8582C45.7898 84.8582 46.3832 85.1622 46.8509 85.7702C47.3245 86.3782 47.5612 87.1528 47.5612 88.094C47.5612 89.0353 47.3274 89.8099 46.8597 90.4179ZM45.0708 90.2425C45.48 90.2425 45.7752 90.1402 45.9565 89.9356C46.1435 89.731 46.2371 89.4123 46.2371 88.9797V87.2083C46.2371 86.7699 46.1435 86.4483 45.9565 86.2437C45.7752 86.0391 45.48 85.9368 45.0708 85.9368C44.6674 85.9368 44.3721 86.0391 44.1851 86.2437C43.998 86.4483 43.9045 86.7699 43.9045 87.2083V88.9797C43.9045 89.4123 43.998 89.731 44.1851 89.9356C44.3721 90.1402 44.6674 90.2425 45.0708 90.2425Z" fill="#ABABAB"/>
<path d="M38.6415 45.581C39.3606 45.6044 39.9365 45.8236 40.3691 46.2387C40.8017 46.6538 41.018 47.1565 41.018 47.747C41.018 48.3667 40.7842 48.8899 40.3165 49.3167C39.8488 49.7434 39.2612 49.9568 38.5539 49.9568C37.8348 49.9568 37.2443 49.7434 36.7825 49.3167C36.3265 48.8841 36.0985 48.3638 36.0985 47.7558C36.0985 47.1478 36.3528 46.5456 36.8614 45.9493L38.8608 43.5728H40.3954L38.6415 45.581ZM39.7114 47.975V47.519C39.7114 47.215 39.6208 46.9899 39.4395 46.8438C39.2583 46.6976 38.9631 46.6245 38.5539 46.6245C38.1563 46.6245 37.864 46.6976 37.6769 46.8438C37.4957 46.9899 37.4051 47.215 37.4051 47.519V47.975C37.4051 48.279 37.4957 48.5041 37.6769 48.6502C37.864 48.7964 38.1563 48.8694 38.5539 48.8694C38.9631 48.8694 39.2583 48.7964 39.4395 48.6502C39.6208 48.5041 39.7114 48.279 39.7114 47.975ZM46.8597 49.0448C46.392 49.6528 45.7957 49.9568 45.0708 49.9568C44.3458 49.9568 43.7495 49.6528 43.2818 49.0448C42.82 48.4368 42.5891 47.6622 42.5891 46.721C42.5891 45.7798 42.8229 45.0051 43.2906 44.3971C43.7583 43.7891 44.3517 43.4851 45.0708 43.4851C45.7898 43.4851 46.3832 43.7891 46.8509 44.3971C47.3245 45.0051 47.5612 45.7798 47.5612 46.721C47.5612 47.6622 47.3274 48.4368 46.8597 49.0448ZM45.0708 48.8694C45.48 48.8694 45.7752 48.7671 45.9565 48.5625C46.1435 48.3579 46.2371 48.0393 46.2371 47.6067V45.8353C46.2371 45.3968 46.1435 45.0753 45.9565 44.8707C45.7752 44.6661 45.48 44.5638 45.0708 44.5638C44.6674 44.5638 44.3721 44.6661 44.1851 44.8707C43.998 45.0753 43.9045 45.3968 43.9045 45.8353V47.6067C43.9045 48.0393 43.998 48.3579 44.1851 48.5625C44.3721 48.7671 44.6674 48.8694 45.0708 48.8694Z" fill="#ABABAB"/>
<path d="M37.2256 8.5L39.602 3.69446V3.34369L36.2434 3.34369V2.20369L40.8473 2.20369V3.89615L38.6199 8.5H37.2256ZM46.8597 7.67569C46.392 8.28369 45.7957 8.58769 45.0708 8.58769C44.3458 8.58769 43.7495 8.28369 43.2818 7.67569C42.82 7.06769 42.5891 6.29308 42.5891 5.35185C42.5891 4.41062 42.8229 3.636 43.2906 3.028C43.7583 2.42 44.3517 2.116 45.0708 2.116C45.7898 2.116 46.3832 2.42 46.8509 3.028C47.3245 3.636 47.5612 4.41062 47.5612 5.35185C47.5612 6.29308 47.3274 7.06769 46.8597 7.67569ZM45.0708 7.50031C45.48 7.50031 45.7752 7.398 45.9565 7.19338C46.1435 6.98877 46.2371 6.67015 46.2371 6.23754V4.46615C46.2371 4.02769 46.1435 3.70615 45.9565 3.50154C45.7752 3.29692 45.48 3.19462 45.0708 3.19462C44.6674 3.19462 44.3721 3.29692 44.1851 3.50154C43.998 3.70615 43.9045 4.02769 43.9045 4.46615V6.23754C43.9045 6.67015 43.998 6.98877 44.1851 7.19338C44.3721 7.398 44.6674 7.50031 45.0708 7.50031Z" fill="#ABABAB"/>
<path d="M57.8199 289.778C58.4805 289.778 59.0359 289.988 59.486 290.409C59.942 290.824 60.17 291.336 60.17 291.944C60.17 292.552 59.9449 293.066 59.4948 293.487C59.0446 293.902 58.4951 294.11 57.8462 294.11H56.8816V296.074H55.5925V289.778H57.8199ZM58.8722 292.198V291.681C58.8722 291.424 58.7874 291.237 58.6179 291.12C58.4542 290.997 58.194 290.935 57.8374 290.935H56.8816V292.952H57.8637C58.2145 292.952 58.4688 292.891 58.6266 292.768C58.7903 292.645 58.8722 292.455 58.8722 292.198ZM66.5212 296.074H65.0217L63.7414 293.829H62.9697V296.074H61.6806V289.778H63.9606C64.6154 289.778 65.1649 289.974 65.6092 290.365C66.0535 290.751 66.2757 291.231 66.2757 291.804C66.2757 292.189 66.1587 292.54 65.9249 292.856C65.691 293.172 65.3754 293.414 64.9778 293.584L66.5212 296.074ZM62.9697 290.909V292.707H64.0044C64.6358 292.707 64.9515 292.464 64.9515 291.979V291.637C64.9515 291.152 64.6358 290.909 64.0044 290.909H62.9697ZM72.711 295.232C72.144 295.852 71.4424 296.162 70.6064 296.162C69.7704 296.162 69.066 295.852 68.493 295.232C67.926 294.613 67.6424 293.844 67.6424 292.926C67.6424 292.008 67.926 291.239 68.493 290.62C69.066 290 69.7704 289.69 70.6064 289.69C71.4424 289.69 72.144 290 72.711 290.62C73.2781 291.239 73.5617 292.008 73.5617 292.926C73.5617 293.844 73.2781 294.613 72.711 295.232ZM70.6064 294.996C71.1267 294.996 71.5243 294.852 71.799 294.566C72.0738 294.279 72.2112 293.864 72.2112 293.321V292.531C72.2112 291.982 72.0738 291.567 71.799 291.286C71.5301 291 71.1326 290.857 70.6064 290.857C70.0803 290.857 69.6798 291 69.405 291.286C69.1361 291.567 69.0017 291.982 69.0017 292.531V293.321C69.0017 293.864 69.1361 294.279 69.405 294.566C69.6798 294.852 70.0803 294.996 70.6064 294.996ZM75.1157 296.074V289.778H77.3343C78.1586 289.778 78.8514 290.082 79.4126 290.69C79.9738 291.292 80.2544 292.037 80.2544 292.926C80.2544 293.815 79.9738 294.563 79.4126 295.171C78.8514 295.773 78.1586 296.074 77.3343 296.074H75.1157ZM76.4047 294.917H77.3694C78.3866 294.917 78.8952 294.385 78.8952 293.321V292.531C78.8952 292.011 78.7637 291.617 78.5006 291.348C78.2434 291.073 77.8663 290.935 77.3694 290.935H76.4047V294.917ZM84.1972 296.162C83.4606 296.162 82.8702 295.94 82.4258 295.495C81.9815 295.045 81.7594 294.449 81.7594 293.707V289.778H83.0485V294.049C83.0485 294.393 83.1362 294.642 83.3115 294.794C83.4928 294.94 83.788 295.013 84.1972 295.013C84.6065 295.013 84.8958 294.94 85.0654 294.794C85.2408 294.648 85.3285 294.399 85.3285 294.049V289.778H86.6175V293.707C86.6175 294.449 86.3954 295.045 85.9511 295.495C85.5126 295.94 84.928 296.162 84.1972 296.162ZM90.9835 296.162C90.1709 296.162 89.4898 295.852 88.9403 295.232C88.3966 294.607 88.1247 293.838 88.1247 292.926C88.1247 292.014 88.3966 291.248 88.9403 290.629C89.4898 290.003 90.1709 289.69 90.9835 289.69C91.6792 289.69 92.2989 289.945 92.8426 290.453C93.3863 290.962 93.6844 291.567 93.7371 292.268H92.3515C92.3281 291.771 92.2054 291.412 91.9832 291.19C91.7669 290.968 91.4278 290.857 90.966 290.857C90.434 290.857 90.054 290.985 89.826 291.242C89.598 291.5 89.484 291.929 89.484 292.531V293.321C89.484 293.923 89.598 294.353 89.826 294.61C90.054 294.867 90.434 294.996 90.966 294.996C91.4278 294.996 91.7698 294.885 91.992 294.662C92.2141 294.434 92.334 294.072 92.3515 293.575H93.7371C93.6844 294.277 93.3863 294.885 92.8426 295.399C92.2989 295.908 91.6792 296.162 90.9835 296.162ZM96.3053 296.074V290.953H94.5953V289.778H99.3044V290.953H97.5944V296.074H96.3053ZM100.736 296.074V289.778H102.025V296.074H100.736ZM105.194 296.074L103.642 289.778H105.036L106.167 294.917H106.518L107.649 289.778H109L107.439 296.074H105.194ZM110.617 296.074V289.778H111.906V296.074H110.617ZM115.049 296.074V290.953H113.339V289.778H118.048V290.953H116.338V296.074H115.049ZM124.517 289.778L123.026 293.978H122.465V296.074H121.176V293.978H120.597L119.115 289.778H120.544L121.518 292.821H122.158L123.14 289.778H124.517Z" fill="#0069ff"/>
<line x1="53.3771" y1="7.5625" x2="53.3771" y2="261.838" stroke="#ABABAB" stroke-width="0.730769"/>
<line x1="95.756" y1="7.5625" x2="95.756" y2="261.838" stroke="#ABABAB" stroke-width="0.730769"/>
<line x1="137.123" y1="7.5625" x2="137.123" y2="261.838" stroke="#ABABAB" stroke-width="0.730769"/>
<line x1="178.498" y1="7.5625" x2="178.498" y2="261.838" stroke="#ABABAB" stroke-width="0.730769"/>
<line x1="219.869" y1="7.5625" x2="219.869" y2="261.838" stroke="#ABABAB" stroke-width="0.730769"/>
<line x1="261.24" y1="7.5625" x2="261.24" y2="261.838" stroke="#ABABAB" stroke-width="0.730769"/>
<line x1="53.0117" y1="261.473" x2="260.872" y2="261.473" stroke="#ABABAB" stroke-width="0.730769"/>
<line x1="53.0117" y1="219.094" x2="260.872" y2="219.094" stroke="#ABABAB" stroke-width="0.730769"/>
<line x1="53.0117" y1="176.715" x2="260.872" y2="176.715" stroke="#ABABAB" stroke-width="0.730769"/>
<line x1="53.0117" y1="134.334" x2="260.872" y2="134.334" stroke="#ABABAB" stroke-width="0.730769"/>
<line x1="53.0117" y1="91.9569" x2="260.872" y2="91.9569" stroke="#ABABAB" stroke-width="0.730769"/>
<line x1="53.0117" y1="49.578" x2="260.872" y2="49.578" stroke="#ABABAB" stroke-width="0.730769"/>
<line x1="53.0117" y1="7.19712" x2="260.872" y2="7.19713" stroke="#ABABAB" stroke-width="0.730769"/>
<path d="M261.879 7.05859C241.194 99.8892 221.518 131.169 179.139 176.575C136.76 221.982 54.0195 261.838 54.0195 261.838" stroke="#0069ff" stroke-width="0.730769"/>
<circle cx="95.3916" cy="240.649" r="4.03611" fill="#0069ff"/>
<circle cx="136.763" cy="238.632" r="4.03611" fill="#1C1C1C"/>
<circle cx="219.501" cy="191.206" r="4.03611" fill="#1C1C1C"/>
<circle cx="219.501" cy="124.61" r="4.03611" fill="#0069ff"/>
</svg>
