<svg width="277" height="301" viewBox="0 0 277 301" fill="none" xmlns="../../../../www.w3.org/2000/svg.html">
<path d="M8.75 260.269L2.45369 260.269L2.45369 257.621L7.59246 256.875L7.59246 256.595L2.45369 255.77L2.45369 253.122L8.75 253.122L8.75 254.341L3.61123 254.341L3.61123 254.762L8.75 255.656L8.75 257.849L3.61123 258.664L3.61123 259.085L8.75 259.085L8.75 260.269ZM7.90815 246.498C8.52785 247.065 8.83769 247.767 8.83769 248.603C8.83769 249.439 8.52785 250.143 7.90815 250.716C7.28846 251.283 6.51969 251.567 5.60185 251.567C4.684 251.567 3.91523 251.283 3.29554 250.716C2.67585 250.143 2.366 249.439 2.366 248.603C2.366 247.767 2.67585 247.065 3.29554 246.498C3.91523 245.931 4.684 245.647 5.60185 245.647C6.51969 245.647 7.28846 245.931 7.90815 246.498ZM7.67138 248.603C7.67138 248.082 7.52815 247.685 7.24169 247.41C6.95523 247.135 6.54015 246.998 5.99646 246.998L5.20723 246.998C4.65769 246.998 4.24261 247.135 3.962 247.41C3.67554 247.679 3.53231 248.076 3.53231 248.603C3.53231 249.129 3.67554 249.529 3.962 249.804C4.24261 250.073 4.65769 250.207 5.20723 250.207L5.99646 250.207C6.54015 250.207 6.95523 250.073 7.24169 249.804C7.52815 249.529 7.67138 249.129 7.67138 248.603ZM8.75 244.093L2.45369 244.093L2.45369 241.498L7.59246 240.209L7.59246 239.867L2.45369 239.867L2.45369 238.683L8.75 238.683L8.75 241.173L3.61123 242.489L3.61123 242.91L8.75 242.91L8.75 244.093ZM8.75 235.542L3.62877 235.542L3.62877 237.252L2.45369 237.252L2.45369 232.543L3.62877 232.543L3.62877 234.253L8.75 234.253L8.75 235.542ZM8.75 231.112L2.45369 231.112L2.45369 229.823L4.92661 229.823L4.92661 227.412L2.45369 227.412L2.45369 226.122L8.75 226.122L8.75 227.412L6.07538 227.412L6.07538 229.823L8.75 229.823L8.75 231.112ZM8.83769 222.034C8.83769 222.747 8.63015 223.343 8.21508 223.823C7.79415 224.296 7.25923 224.548 6.61031 224.577L6.61031 223.235C7.04292 223.229 7.344 223.139 7.51354 222.963C7.67723 222.788 7.75908 222.469 7.75908 222.007C7.75908 221.265 7.52231 220.894 7.04877 220.894L6.82954 220.894C6.66 220.894 6.53431 220.946 6.45246 221.052C6.37061 221.157 6.30631 221.358 6.25954 221.657L6.11923 222.507C6.01984 223.08 5.80938 223.536 5.48784 223.875C5.16631 224.208 4.78338 224.375 4.33908 224.375C3.80123 224.375 3.33938 224.15 2.95354 223.7C2.56184 223.25 2.366 222.712 2.366 222.086C2.366 221.437 2.56184 220.888 2.95354 220.438C3.34523 219.982 3.84507 219.724 4.45308 219.666L4.45308 221.016C4.07308 221.016 3.81 221.098 3.66384 221.262C3.51769 221.42 3.44461 221.703 3.44461 222.113C3.44461 222.767 3.66677 223.095 4.11107 223.095L4.31277 223.095C4.48815 223.095 4.62261 223.039 4.71615 222.928C4.80969 222.811 4.87692 222.612 4.91784 222.332L5.07569 221.446C5.292 220.201 5.86784 219.578 6.80323 219.578C7.35861 219.578 7.838 219.821 8.24138 220.306C8.63892 220.791 8.83769 221.367 8.83769 222.034Z" fill="#0069ff"/>
<path d="M37.9163 256.721V255.581H39.6V251.564H38.118V250.424H40.8452V255.581H42.5289V256.721H37.9163ZM48.0745 255.896C47.6068 256.504 47.0105 256.808 46.2856 256.808C45.5607 256.808 44.9644 256.504 44.4967 255.896C44.0348 255.288 43.8039 254.514 43.8039 253.573C43.8039 252.631 44.0378 251.857 44.5055 251.249C44.9731 250.641 45.5665 250.337 46.2856 250.337C47.0047 250.337 47.5981 250.641 48.0658 251.249C48.5393 251.857 48.7761 252.631 48.7761 253.573C48.7761 254.514 48.5422 255.288 48.0745 255.896ZM46.2856 255.721C46.6948 255.721 46.9901 255.619 47.1713 255.414C47.3584 255.209 47.4519 254.891 47.4519 254.458V252.687C47.4519 252.248 47.3584 251.927 47.1713 251.722C46.9901 251.518 46.6948 251.415 46.2856 251.415C45.8822 251.415 45.587 251.518 45.3999 251.722C45.2128 251.927 45.1193 252.248 45.1193 252.687V254.458C45.1193 254.891 45.2128 255.209 45.3999 255.414C45.587 255.619 45.8822 255.721 46.2856 255.721Z" fill="#ABABAB"/>
<path d="M88.0886 274.885V273.745H89.7723V269.728H88.2903V268.588H91.0175V273.745H92.7012V274.885H88.0886ZM98.2468 274.06C97.7791 274.668 97.1828 274.972 96.4579 274.972C95.733 274.972 95.1367 274.668 94.669 274.06C94.2071 273.452 93.9762 272.678 93.9762 271.737C93.9762 270.795 94.2101 270.021 94.6778 269.413C95.1455 268.805 95.7388 268.501 96.4579 268.501C97.177 268.501 97.7704 268.805 98.2381 269.413C98.7116 270.021 98.9484 270.795 98.9484 271.737C98.9484 272.678 98.7145 273.452 98.2468 274.06ZM96.4579 273.885C96.8671 273.885 97.1624 273.783 97.3436 273.578C97.5307 273.374 97.6242 273.055 97.6242 272.622V270.851C97.6242 270.412 97.5307 270.091 97.3436 269.886C97.1624 269.682 96.8671 269.579 96.4579 269.579C96.0545 269.579 95.7593 269.682 95.5722 269.886C95.3851 270.091 95.2916 270.412 95.2916 270.851V272.622C95.2916 273.055 95.3851 273.374 95.5722 273.578C95.7593 273.783 96.0545 273.885 96.4579 273.885ZM103.561 274.885V268.588H106.209L106.955 273.727H107.235L108.06 268.588H110.708V274.885H109.489V269.746H109.068L108.174 274.885H105.981L105.166 269.746H104.745V274.885H103.561ZM112.535 274.885V268.588H113.824V274.885H112.535ZM115.652 274.885V268.588H116.941V273.71H119.37V274.885H115.652ZM120.849 274.885V268.588H122.138V273.71H124.567V274.885H120.849ZM126.047 274.885V268.588H127.336V274.885H126.047ZM133.96 274.043C133.393 274.663 132.691 274.972 131.855 274.972C131.019 274.972 130.315 274.663 129.742 274.043C129.175 273.423 128.891 272.654 128.891 271.737C128.891 270.819 129.175 270.05 129.742 269.43C130.315 268.811 131.019 268.501 131.855 268.501C132.691 268.501 133.393 268.811 133.96 269.43C134.527 270.05 134.811 270.819 134.811 271.737C134.811 272.654 134.527 273.423 133.96 274.043ZM131.855 273.806C132.376 273.806 132.773 273.663 133.048 273.376C133.323 273.09 133.46 272.675 133.46 272.131V271.342C133.46 270.792 133.323 270.377 133.048 270.097C132.779 269.81 132.381 269.667 131.855 269.667C131.329 269.667 130.929 269.81 130.654 270.097C130.385 270.377 130.251 270.792 130.251 271.342V272.131C130.251 272.675 130.385 273.09 130.654 273.376C130.929 273.663 131.329 273.806 131.855 273.806ZM136.365 274.885V268.588H138.96L140.249 273.727H140.591V268.588H141.775V274.885H139.285L137.969 269.746H137.548V274.885H136.365Z" fill="#ABABAB"/>
<path d="M189.646 270.649C190.26 270.649 190.76 270.851 191.146 271.254C191.531 271.658 191.724 272.16 191.724 272.763C191.724 273.394 191.508 273.92 191.075 274.341C190.649 274.762 190.087 274.972 189.392 274.972C188.819 274.972 188.322 274.818 187.901 274.508C187.48 274.192 187.214 273.774 187.103 273.254H188.418C188.448 273.482 188.538 273.645 188.69 273.745C188.848 273.844 189.085 273.894 189.4 273.894C190.073 273.894 190.409 273.613 190.409 273.052V272.482C190.409 271.938 190.07 271.666 189.392 271.666C188.79 271.666 188.448 271.906 188.366 272.386H187.234V268.588H191.409V269.728H188.304V271.202C188.684 270.833 189.132 270.649 189.646 270.649ZM197.584 274.06C197.116 274.668 196.52 274.972 195.795 274.972C195.07 274.972 194.473 274.668 194.006 274.06C193.544 273.452 193.313 272.678 193.313 271.737C193.313 270.795 193.547 270.021 194.014 269.413C194.482 268.805 195.076 268.501 195.795 268.501C196.514 268.501 197.107 268.805 197.575 269.413C198.048 270.021 198.285 270.795 198.285 271.737C198.285 272.678 198.051 273.452 197.584 274.06ZM195.795 273.885C196.204 273.885 196.499 273.783 196.68 273.578C196.867 273.374 196.961 273.055 196.961 272.622V270.851C196.961 270.412 196.867 270.091 196.68 269.886C196.499 269.682 196.204 269.579 195.795 269.579C195.391 269.579 195.096 269.682 194.909 269.886C194.722 270.091 194.628 270.412 194.628 270.851L194.628 272.622C194.628 273.055 194.722 273.374 194.909 273.578C195.096 273.783 195.391 273.885 195.795 273.885ZM202.898 274.885V268.588H205.546L206.292 273.727H206.572L207.396 268.588H210.045V274.885H208.826V269.746H208.405L207.51 274.885H205.318L204.503 269.746H204.082V274.885H202.898ZM211.872 274.885V268.588H213.161V274.885H211.872ZM214.988 274.885V268.588H216.277V273.71H218.707V274.885H214.988ZM220.186 274.885V268.588H221.475V273.71H223.904V274.885H220.186ZM225.383 274.885V268.588H226.672V274.885H225.383ZM233.297 274.043C232.73 274.663 232.028 274.972 231.192 274.972C230.356 274.972 229.652 274.663 229.079 274.043C228.512 273.423 228.228 272.654 228.228 271.737C228.228 270.819 228.512 270.05 229.079 269.43C229.652 268.811 230.356 268.501 231.192 268.501C232.028 268.501 232.73 268.811 233.297 269.43C233.864 270.05 234.147 270.819 234.147 271.737C234.147 272.654 233.864 273.423 233.297 274.043ZM231.192 273.806C231.712 273.806 232.11 273.663 232.385 273.376C232.659 273.09 232.797 272.675 232.797 272.131V271.342C232.797 270.792 232.659 270.377 232.385 270.097C232.116 269.81 231.718 269.667 231.192 269.667C230.666 269.667 230.265 269.81 229.991 270.097C229.722 270.377 229.587 270.792 229.587 271.342V272.131C229.587 272.675 229.722 273.09 229.991 273.376C230.265 273.663 230.666 273.806 231.192 273.806ZM235.701 274.885V268.588H238.297L239.586 273.727H239.928V268.588H241.112V274.885H238.621L237.306 269.746H236.885V274.885H235.701Z" fill="#ABABAB"/>
<path d="M36.7703 215.352V213.343L39.0327 211.984C39.29 211.809 39.477 211.654 39.594 211.519C39.7109 211.379 39.7693 211.227 39.7693 211.063V210.73C39.7693 210.49 39.705 210.318 39.5764 210.213C39.4478 210.102 39.211 210.046 38.8661 210.046C38.4861 210.046 38.2143 210.116 38.0506 210.257C37.8927 210.397 37.8138 210.651 37.8138 211.02H36.551C36.592 210.458 36.8287 209.976 37.2613 209.573C37.694 209.169 38.2318 208.968 38.8749 208.968C39.5355 208.968 40.0675 209.152 40.4709 209.52C40.8801 209.888 41.0847 210.344 41.0847 210.888C41.0847 211.63 40.5557 212.309 39.4975 212.922L38.0067 213.861V214.212H41.1461V215.352H36.7703ZM47.0667 214.527C46.599 215.135 46.0027 215.439 45.2778 215.439C44.5529 215.439 43.9566 215.135 43.4889 214.527C43.027 213.919 42.7961 213.145 42.7961 212.203C42.7961 211.262 43.0299 210.488 43.4976 209.88C43.9653 209.272 44.5587 208.968 45.2778 208.968C45.9969 208.968 46.5903 209.272 47.0579 209.88C47.5315 210.488 47.7683 211.262 47.7683 212.203C47.7683 213.145 47.5344 213.919 47.0667 214.527ZM45.2778 214.352C45.687 214.352 45.9823 214.25 46.1635 214.045C46.3506 213.84 46.4441 213.522 46.4441 213.089V211.318C46.4441 210.879 46.3506 210.558 46.1635 210.353C45.9823 210.148 45.687 210.046 45.2778 210.046C44.8744 210.046 44.5792 210.148 44.3921 210.353C44.205 210.558 44.1115 210.879 44.1115 211.318V213.089C44.1115 213.522 44.205 213.84 44.3921 214.045C44.5792 214.25 44.8744 214.352 45.2778 214.352Z" fill="#ABABAB"/>
<path d="M40.0141 170.692C40.3648 170.826 40.6425 171.022 40.8471 171.28C41.0518 171.531 41.1541 171.82 41.1541 172.148C41.1541 172.674 40.929 173.127 40.4788 173.507C40.0287 173.881 39.4733 174.068 38.8127 174.068C38.1228 174.068 37.5528 173.887 37.1027 173.524C36.6525 173.156 36.4041 172.68 36.3573 172.095H37.6025C37.6025 172.405 37.6902 172.63 37.8656 172.77C38.0468 172.911 38.3421 172.981 38.7513 172.981C39.4821 172.981 39.8474 172.764 39.8474 172.332V171.841C39.8474 171.449 39.4704 171.253 38.7162 171.253H37.7779V170.218H38.6285C38.9793 170.218 39.2307 170.178 39.3827 170.096C39.5405 170.014 39.6194 169.879 39.6194 169.692V169.219C39.6194 168.856 39.3154 168.675 38.7074 168.675C38.3567 168.675 38.1053 168.739 37.9533 168.868C37.8071 168.991 37.7341 169.192 37.7341 169.473H36.4888C36.5531 168.959 36.8074 168.517 37.2518 168.149C37.6961 167.781 38.2047 167.596 38.7776 167.596C39.4031 167.596 39.9176 167.772 40.321 168.123C40.7244 168.468 40.9261 168.886 40.9261 169.377C40.9261 169.651 40.8442 169.903 40.6805 170.131C40.5168 170.359 40.2947 170.546 40.0141 170.692ZM47.0667 173.156C46.599 173.764 46.0027 174.068 45.2778 174.068C44.5529 174.068 43.9566 173.764 43.4889 173.156C43.027 172.548 42.7961 171.774 42.7961 170.832C42.7961 169.891 43.0299 169.116 43.4976 168.508C43.9653 167.9 44.5587 167.596 45.2778 167.596C45.9969 167.596 46.5903 167.9 47.0579 168.508C47.5315 169.116 47.7683 169.891 47.7683 170.832C47.7683 171.774 47.5344 172.548 47.0667 173.156ZM45.2778 172.981C45.687 172.981 45.9823 172.878 46.1635 172.674C46.3506 172.469 46.4441 172.151 46.4441 171.718V169.947C46.4441 169.508 46.3506 169.187 46.1635 168.982C45.9823 168.777 45.687 168.675 45.2778 168.675C44.8744 168.675 44.5792 168.777 44.3921 168.982C44.205 169.187 44.1115 169.508 44.1115 169.947V171.718C44.1115 172.151 44.205 172.469 44.3921 172.674C44.5792 172.878 44.8744 172.981 45.2778 172.981Z" fill="#ABABAB"/>
<path d="M39.0079 132.611V130.7H36.1491V126.315H37.3856V129.665H39.0079V127.753H40.2531V129.665H41.3493V130.7H40.2531V132.611H39.0079ZM47.0679 131.787C46.6002 132.395 46.0039 132.699 45.279 132.699C44.5541 132.699 43.9578 132.395 43.4901 131.787C43.0282 131.179 42.7973 130.404 42.7973 129.463C42.7973 128.522 43.0312 127.747 43.4989 127.139C43.9665 126.531 44.5599 126.227 45.279 126.227C45.9981 126.227 46.5915 126.531 47.0592 127.139C47.5327 127.747 47.7695 128.522 47.7695 129.463C47.7695 130.404 47.5356 131.179 47.0679 131.787ZM45.279 131.612C45.6882 131.612 45.9835 131.509 46.1647 131.305C46.3518 131.1 46.4453 130.781 46.4453 130.349V128.577C46.4453 128.139 46.3518 127.817 46.1647 127.613C45.9835 127.408 45.6882 127.306 45.279 127.306C44.8756 127.306 44.5804 127.408 44.3933 127.613C44.2062 127.817 44.1127 128.139 44.1127 128.577V130.349C44.1127 130.781 44.2062 131.1 44.3933 131.305C44.5804 131.509 44.8756 131.612 45.279 131.612Z" fill="#ABABAB"/>
<path d="M39.1292 87.0066C39.743 87.0066 40.2429 87.2083 40.6287 87.6117C41.0146 88.0151 41.2075 88.5179 41.2075 89.12C41.2075 89.7514 40.9912 90.2776 40.5586 90.6985C40.1318 91.1194 39.5706 91.3299 38.8749 91.3299C38.302 91.3299 37.805 91.175 37.3841 90.8651C36.9632 90.5494 36.6972 90.1314 36.5861 89.6111H37.9015C37.9307 89.8391 38.0213 90.0028 38.1733 90.1022C38.3312 90.2016 38.568 90.2513 38.8837 90.2513C39.556 90.2513 39.8921 89.9706 39.8921 89.4094V88.8394C39.8921 88.2957 39.553 88.0239 38.8749 88.0239C38.2727 88.0239 37.9307 88.2636 37.8489 88.743H36.7177V84.9459H40.8918V86.0859H37.7875V87.5591C38.1675 87.1908 38.6147 87.0066 39.1292 87.0066ZM47.0667 90.4179C46.599 91.0259 46.0027 91.3299 45.2778 91.3299C44.5529 91.3299 43.9566 91.0259 43.4889 90.4179C43.027 89.8099 42.7961 89.0353 42.7961 88.094C42.7961 87.1528 43.0299 86.3782 43.4976 85.7702C43.9653 85.1622 44.5587 84.8582 45.2778 84.8582C45.9969 84.8582 46.5903 85.1622 47.0579 85.7702C47.5315 86.3782 47.7683 87.1528 47.7683 88.094C47.7683 89.0353 47.5344 89.8099 47.0667 90.4179ZM45.2778 90.2425C45.687 90.2425 45.9823 90.1402 46.1635 89.9356C46.3506 89.731 46.4441 89.4123 46.4441 88.9797V87.2083C46.4441 86.7699 46.3506 86.4483 46.1635 86.2437C45.9823 86.0391 45.687 85.9368 45.2778 85.9368C44.8744 85.9368 44.5792 86.0391 44.3921 86.2437C44.205 86.4483 44.1115 86.7699 44.1115 87.2083V88.9797C44.1115 89.4123 44.205 89.731 44.3921 89.9356C44.5792 90.1402 44.8744 90.2425 45.2778 90.2425Z" fill="#ABABAB"/>
<path d="M38.8486 45.581C39.5677 45.6044 40.1435 45.8236 40.5761 46.2387C41.0087 46.6538 41.225 47.1565 41.225 47.747C41.225 48.3667 40.9912 48.8899 40.5235 49.3167C40.0558 49.7434 39.4683 49.9568 38.7609 49.9568C38.0418 49.9568 37.4513 49.7434 36.9895 49.3167C36.5335 48.8841 36.3055 48.3638 36.3055 47.7558C36.3055 47.1478 36.5598 46.5456 37.0684 45.9493L39.0678 43.5728H40.6024L38.8486 45.581ZM39.9184 47.975V47.519C39.9184 47.215 39.8278 46.9899 39.6466 46.8438C39.4653 46.6976 39.1701 46.6245 38.7609 46.6245C38.3633 46.6245 38.071 46.6976 37.884 46.8438C37.7027 46.9899 37.6121 47.215 37.6121 47.519V47.975C37.6121 48.279 37.7027 48.5041 37.884 48.6502C38.071 48.7964 38.3633 48.8694 38.7609 48.8694C39.1701 48.8694 39.4653 48.7964 39.6466 48.6502C39.8278 48.5041 39.9184 48.279 39.9184 47.975ZM47.0667 49.0448C46.599 49.6528 46.0027 49.9568 45.2778 49.9568C44.5529 49.9568 43.9566 49.6528 43.4889 49.0448C43.027 48.4368 42.7961 47.6622 42.7961 46.721C42.7961 45.7798 43.0299 45.0051 43.4976 44.3971C43.9653 43.7891 44.5587 43.4851 45.2778 43.4851C45.9969 43.4851 46.5903 43.7891 47.0579 44.3971C47.5315 45.0051 47.7683 45.7798 47.7683 46.721C47.7683 47.6622 47.5344 48.4368 47.0667 49.0448ZM45.2778 48.8694C45.687 48.8694 45.9823 48.7671 46.1635 48.5625C46.3506 48.3579 46.4441 48.0393 46.4441 47.6067V45.8353C46.4441 45.3968 46.3506 45.0753 46.1635 44.8707C45.9823 44.6661 45.687 44.5638 45.2778 44.5638C44.8744 44.5638 44.5792 44.6661 44.3921 44.8707C44.205 45.0753 44.1115 45.3968 44.1115 45.8353V47.6067C44.1115 48.0393 44.205 48.3579 44.3921 48.5625C44.5792 48.7671 44.8744 48.8694 45.2778 48.8694Z" fill="#ABABAB"/>
<path d="M37.4326 8.5L39.8091 3.69446V3.34369L36.4505 3.34369V2.20369L41.0543 2.20369V3.89615L38.8269 8.5H37.4326ZM47.0667 7.67569C46.599 8.28369 46.0027 8.58769 45.2778 8.58769C44.5529 8.58769 43.9566 8.28369 43.4889 7.67569C43.027 7.06769 42.7961 6.29308 42.7961 5.35185C42.7961 4.41062 43.0299 3.636 43.4976 3.028C43.9653 2.42 44.5587 2.116 45.2778 2.116C45.9969 2.116 46.5903 2.42 47.0579 3.028C47.5315 3.636 47.7683 4.41062 47.7683 5.35185C47.7683 6.29308 47.5344 7.06769 47.0667 7.67569ZM45.2778 7.50031C45.687 7.50031 45.9823 7.398 46.1635 7.19338C46.3506 6.98877 46.4441 6.67015 46.4441 6.23754V4.46615C46.4441 4.02769 46.3506 3.70615 46.1635 3.50154C45.9823 3.29692 45.687 3.19462 45.2778 3.19462C44.8744 3.19462 44.5792 3.29692 44.3921 3.50154C44.205 3.70615 44.1115 4.02769 44.1115 4.46615V6.23754C44.1115 6.67015 44.205 6.98877 44.3921 7.19338C44.5792 7.398 44.8744 7.50031 45.2778 7.50031Z" fill="#ABABAB"/>
<path d="M55.7995 296.074V289.778H59.7544V290.935H57.0798V292.251H59.4914V293.4H57.0798V294.917H59.8158V296.074H55.7995ZM61.1176 296.074L62.5295 292.909L61.1176 289.778H62.547L63.5993 292.321H64.0378L65.1339 289.778H66.5283L65.055 292.856L66.5283 296.074H65.0989L64.0378 293.479H63.5993L62.5207 296.074H61.1176ZM70.2459 289.778C70.9065 289.778 71.4619 289.988 71.9121 290.409C72.3681 290.824 72.5961 291.336 72.5961 291.944C72.5961 292.552 72.371 293.066 71.9209 293.487C71.4707 293.902 70.9212 294.11 70.2722 294.11H69.3076V296.074H68.0185L68.0185 289.778H70.2459ZM71.2982 292.198V291.681C71.2982 291.424 71.2135 291.237 71.0439 291.12C70.8802 290.997 70.6201 290.935 70.2635 290.935H69.3076V292.952H70.2898C70.6405 292.952 70.8949 292.891 71.0527 292.768C71.2164 292.645 71.2982 292.455 71.2982 292.198ZM74.1067 296.074V289.778H78.0616V290.935H75.387V292.251H77.7985V293.4H75.387V294.917H78.123V296.074H74.1067ZM79.758 296.074V289.778H82.3537L83.6428 294.917H83.9848V289.778H85.1686V296.074H82.6782L81.3628 290.935H80.9419V296.074H79.758ZM89.2561 296.162C88.5429 296.162 87.9466 295.954 87.4672 295.539C86.9937 295.118 86.7423 294.583 86.713 293.935H88.0547C88.0606 294.367 88.1512 294.668 88.3266 294.838C88.502 295.001 88.8206 295.083 89.2824 295.083C90.0249 295.083 90.3961 294.847 90.3961 294.373V294.154C90.3961 293.984 90.3435 293.859 90.2383 293.777C90.133 293.695 89.9313 293.631 89.6332 293.584L88.7826 293.443C88.2097 293.344 87.7537 293.134 87.4146 292.812C87.0813 292.491 86.9147 292.108 86.9147 291.663C86.9147 291.125 87.1398 290.664 87.59 290.278C88.0401 289.886 88.578 289.69 89.2035 289.69C89.8524 289.69 90.402 289.886 90.8521 290.278C91.3081 290.669 91.5653 291.169 91.6238 291.777H90.2733C90.2733 291.397 90.1915 291.134 90.0278 290.988C89.87 290.842 89.5864 290.769 89.1772 290.769C88.5224 290.769 88.195 290.991 88.195 291.435V291.637C88.195 291.812 88.2506 291.947 88.3617 292.04C88.4786 292.134 88.6773 292.201 88.958 292.242L89.8437 292.4C91.0889 292.616 91.7115 293.192 91.7115 294.127C91.7115 294.683 91.4689 295.162 90.9837 295.566C90.4984 295.963 89.9226 296.162 89.2561 296.162ZM93.253 296.074V289.778H97.208V290.935H94.5333V292.251H96.9449V293.4H94.5333V294.917H97.2693V296.074H93.253Z" fill="#0069ff"/>
<line x1="53.5841" y1="7.5625" x2="53.5841" y2="261.838" stroke="#ABABAB" stroke-width="0.730769"/>
<line x1="95.963" y1="7.5625" x2="95.963" y2="261.838" stroke="#ABABAB" stroke-width="0.730769"/>
<line x1="137.33" y1="7.5625" x2="137.33" y2="261.838" stroke="#ABABAB" stroke-width="0.730769"/>
<line x1="178.705" y1="7.5625" x2="178.705" y2="261.838" stroke="#ABABAB" stroke-width="0.730769"/>
<line x1="220.076" y1="7.5625" x2="220.076" y2="261.838" stroke="#ABABAB" stroke-width="0.730769"/>
<line x1="261.444" y1="7.5625" x2="261.443" y2="261.838" stroke="#ABABAB" stroke-width="0.730769"/>
<line x1="53.2188" y1="261.473" x2="261.079" y2="261.473" stroke="#ABABAB" stroke-width="0.730769"/>
<line x1="53.2188" y1="219.094" x2="261.079" y2="219.094" stroke="#ABABAB" stroke-width="0.730769"/>
<line x1="53.2188" y1="176.715" x2="261.079" y2="176.715" stroke="#ABABAB" stroke-width="0.730769"/>
<line x1="53.2188" y1="134.334" x2="261.079" y2="134.334" stroke="#ABABAB" stroke-width="0.730769"/>
<line x1="53.2188" y1="91.9569" x2="261.079" y2="91.9569" stroke="#ABABAB" stroke-width="0.730769"/>
<line x1="53.2188" y1="49.578" x2="261.079" y2="49.578" stroke="#ABABAB" stroke-width="0.730769"/>
<line x1="53.2188" y1="7.19712" x2="261.079" y2="7.19713" stroke="#ABABAB" stroke-width="0.730769"/>
<circle cx="148.548" cy="236.577" r="4.03611" fill="#1C1C1C"/>
<circle cx="245.481" cy="163.962" r="4.03611" fill="#1C1C1C"/>
<path d="M194.863 117.112C195.413 117.112 195.876 117.288 196.251 117.639C196.631 117.985 196.821 118.411 196.821 118.917C196.821 119.424 196.634 119.853 196.259 120.204C195.884 120.55 195.426 120.722 194.885 120.722H194.081V122.359H193.007V117.112H194.863ZM195.74 119.129V118.698C195.74 118.484 195.669 118.328 195.528 118.231C195.391 118.128 195.175 118.077 194.878 118.077H194.081V119.758H194.899C195.192 119.758 195.404 119.707 195.535 119.604C195.672 119.502 195.74 119.344 195.74 119.129ZM202.114 122.359H200.864L199.797 120.489H199.154V122.359H198.08V117.112H199.98C200.526 117.112 200.984 117.276 201.354 117.602C201.724 117.924 201.909 118.323 201.909 118.801C201.909 119.122 201.812 119.414 201.617 119.677C201.422 119.941 201.159 120.143 200.828 120.284L202.114 122.359ZM199.154 118.055V119.553H200.017C200.543 119.553 200.806 119.351 200.806 118.947V118.662C200.806 118.257 200.543 118.055 200.017 118.055H199.154ZM203.346 122.359V117.112H206.642V118.077H204.413V119.173H206.423V120.131H204.413V121.395H206.693V122.359H203.346ZM212.366 117.112C212.917 117.112 213.38 117.288 213.755 117.639C214.135 117.985 214.325 118.411 214.325 118.917C214.325 119.424 214.137 119.853 213.762 120.204C213.387 120.55 212.929 120.722 212.388 120.722H211.584V122.359H210.51V117.112H212.366ZM213.243 119.129V118.698C213.243 118.484 213.173 118.328 213.031 118.231C212.895 118.128 212.678 118.077 212.381 118.077H211.584V119.758H212.403C212.695 119.758 212.907 119.707 213.039 119.604C213.175 119.502 213.243 119.344 213.243 119.129ZM219.617 122.359H218.368L217.301 120.489H216.658V122.359H215.584V117.112H217.484C218.029 117.112 218.487 117.276 218.857 117.602C219.228 117.924 219.413 118.323 219.413 118.801C219.413 119.122 219.315 119.414 219.12 119.677C218.926 119.941 218.663 120.143 218.331 120.284L219.617 122.359ZM216.658 118.055V119.553H217.52C218.046 119.553 218.309 119.351 218.309 118.947V118.662C218.309 118.257 218.046 118.055 217.52 118.055H216.658ZM224.776 121.658C224.303 122.174 223.718 122.432 223.022 122.432C222.325 122.432 221.738 122.174 221.261 121.658C220.788 121.141 220.552 120.501 220.552 119.736C220.552 118.971 220.788 118.33 221.261 117.814C221.738 117.298 222.325 117.039 223.022 117.039C223.718 117.039 224.303 117.298 224.776 117.814C225.248 118.33 225.484 118.971 225.484 119.736C225.484 120.501 225.248 121.141 224.776 121.658ZM223.022 121.461C223.455 121.461 223.787 121.341 224.016 121.102C224.245 120.864 224.359 120.518 224.359 120.065V119.407C224.359 118.949 224.245 118.603 224.016 118.369C223.791 118.131 223.46 118.011 223.022 118.011C222.583 118.011 222.25 118.131 222.021 118.369C221.796 118.603 221.684 118.949 221.684 119.407V120.065C221.684 120.518 221.796 120.864 222.021 121.102C222.25 121.341 222.583 121.461 223.022 121.461ZM226.779 122.359V117.112H228.628C229.315 117.112 229.893 117.366 230.36 117.872C230.828 118.374 231.062 118.995 231.062 119.736C231.062 120.476 230.828 121.1 230.36 121.607C229.893 122.108 229.315 122.359 228.628 122.359H226.779ZM227.854 121.395H228.658C229.505 121.395 229.929 120.951 229.929 120.065V119.407C229.929 118.973 229.819 118.645 229.6 118.421C229.386 118.192 229.072 118.077 228.658 118.077H227.854V121.395ZM235.513 122.359L235.199 121.124H233.342L233.028 122.359H231.925L233.401 117.112H235.191L236.653 122.359H235.513ZM233.584 120.204H234.957L234.417 118.077H234.124L233.584 120.204ZM239.746 117.112C240.296 117.112 240.759 117.288 241.134 117.639C241.514 117.985 241.704 118.411 241.704 118.917C241.704 119.424 241.517 119.853 241.142 120.204C240.766 120.55 240.309 120.722 239.768 120.722H238.964V122.359H237.89V117.112L239.746 117.112ZM240.623 119.129V118.698C240.623 118.484 240.552 118.328 240.411 118.231C240.274 118.128 240.058 118.077 239.76 118.077H238.964V119.758L239.782 119.758C240.075 119.758 240.287 119.707 240.418 119.604C240.555 119.502 240.623 119.344 240.623 119.129ZM244.031 122.359V118.092H242.606V117.112H246.53V118.092H245.105V122.359H244.031Z" fill="#1C1C1C"/>
<path d="M109.449 200.702C109.999 200.702 110.462 200.878 110.837 201.228C111.217 201.574 111.407 202.001 111.407 202.507C111.407 203.014 111.22 203.443 110.845 203.793C110.469 204.139 110.012 204.312 109.471 204.312H108.667V205.949H107.593V200.702H109.449ZM110.326 202.719V202.288C110.326 202.074 110.255 201.918 110.114 201.82C109.977 201.718 109.761 201.667 109.463 201.667H108.667V203.348H109.485C109.778 203.348 109.99 203.297 110.121 203.194C110.258 203.092 110.326 202.934 110.326 202.719ZM116.663 205.248C116.191 205.764 115.606 206.022 114.91 206.022C114.213 206.022 113.626 205.764 113.148 205.248C112.676 204.731 112.44 204.091 112.44 203.326C112.44 202.561 112.676 201.92 113.148 201.404C113.626 200.887 114.213 200.629 114.91 200.629C115.606 200.629 116.191 200.887 116.663 201.404C117.136 201.92 117.372 202.561 117.372 203.326C117.372 204.091 117.136 204.731 116.663 205.248ZM114.91 205.05C115.343 205.05 115.674 204.931 115.903 204.692C116.132 204.454 116.247 204.108 116.247 203.655V202.997C116.247 202.539 116.132 202.193 115.903 201.959C115.679 201.721 115.348 201.601 114.91 201.601C114.471 201.601 114.137 201.721 113.908 201.959C113.684 202.193 113.572 202.539 113.572 202.997V203.655C113.572 204.108 113.684 204.454 113.908 204.692C114.137 204.931 114.471 205.05 114.91 205.05ZM120.553 206.022C119.958 206.022 119.461 205.849 119.062 205.503C118.667 205.153 118.458 204.707 118.433 204.166H119.552C119.556 204.527 119.632 204.778 119.778 204.919C119.924 205.055 120.19 205.123 120.575 205.123C121.193 205.123 121.503 204.926 121.503 204.532V204.349C121.503 204.208 121.459 204.103 121.371 204.035C121.283 203.966 121.115 203.913 120.867 203.874L120.158 203.757C119.681 203.674 119.301 203.499 119.018 203.231C118.74 202.963 118.602 202.644 118.602 202.273C118.602 201.825 118.789 201.44 119.164 201.119C119.539 200.792 119.988 200.629 120.509 200.629C121.05 200.629 121.508 200.792 121.883 201.119C122.263 201.445 122.477 201.862 122.526 202.368H121.4C121.4 202.052 121.332 201.833 121.196 201.711C121.064 201.589 120.828 201.528 120.487 201.528C119.941 201.528 119.668 201.713 119.668 202.083V202.252C119.668 202.398 119.715 202.51 119.807 202.588C119.905 202.666 120.07 202.722 120.304 202.756L121.042 202.887C122.08 203.068 122.599 203.547 122.599 204.327C122.599 204.79 122.397 205.189 121.992 205.525C121.588 205.857 121.108 206.022 120.553 206.022ZM124.801 205.949V201.682H123.376V200.702H127.3V201.682H125.875V205.949H124.801ZM132.803 200.702C133.354 200.702 133.817 200.878 134.192 201.228C134.572 201.574 134.762 202.001 134.762 202.507C134.762 203.014 134.574 203.443 134.199 203.793C133.824 204.139 133.366 204.312 132.825 204.312H132.022V205.949H130.947V200.702H132.803ZM133.68 202.719V202.288C133.68 202.074 133.61 201.918 133.468 201.82C133.332 201.718 133.115 201.667 132.818 201.667H132.022V203.348H132.84C133.132 203.348 133.344 203.297 133.476 203.194C133.612 203.092 133.68 202.934 133.68 202.719ZM140.055 205.949H138.805L137.738 204.078H137.095V205.949H136.021V200.702H137.921C138.466 200.702 138.924 200.866 139.295 201.192C139.665 201.513 139.85 201.913 139.85 202.39C139.85 202.712 139.753 203.004 139.558 203.267C139.363 203.53 139.1 203.733 138.768 203.874L140.055 205.949ZM137.095 201.645V203.143H137.957C138.483 203.143 138.747 202.941 138.747 202.537V202.252C138.747 201.847 138.483 201.645 137.957 201.645H137.095ZM145.213 205.248C144.74 205.764 144.156 206.022 143.459 206.022C142.762 206.022 142.175 205.764 141.698 205.248C141.225 204.731 140.989 204.091 140.989 203.326C140.989 202.561 141.225 201.92 141.698 201.404C142.175 200.887 142.762 200.629 143.459 200.629C144.156 200.629 144.74 200.887 145.213 201.404C145.685 201.92 145.922 202.561 145.922 203.326C145.922 204.091 145.685 204.731 145.213 205.248ZM143.459 205.05C143.893 205.05 144.224 204.931 144.453 204.692C144.682 204.454 144.796 204.108 144.796 203.655V202.997C144.796 202.539 144.682 202.193 144.453 201.959C144.229 201.721 143.897 201.601 143.459 201.601C143.02 201.601 142.687 201.721 142.458 201.959C142.234 202.193 142.122 202.539 142.122 202.997V203.655C142.122 204.108 142.234 204.454 142.458 204.692C142.687 204.931 143.02 205.05 143.459 205.05ZM147.217 205.949V200.702H149.066C149.752 200.702 150.33 200.956 150.797 201.462C151.265 201.964 151.499 202.585 151.499 203.326C151.499 204.066 151.265 204.69 150.797 205.197C150.33 205.698 149.752 205.949 149.066 205.949H147.217ZM148.291 204.985H149.095C149.942 204.985 150.366 204.541 150.366 203.655V202.997C150.366 202.563 150.257 202.234 150.037 202.01C149.823 201.781 149.509 201.667 149.095 201.667H148.291V204.985ZM155.95 205.949L155.636 204.714H153.78L153.465 205.949H152.362L153.838 200.702H155.628L157.09 205.949H155.95ZM154.021 203.793H155.395L154.854 201.667H154.562L154.021 203.793ZM160.183 200.702C160.734 200.702 161.196 200.878 161.572 201.228C161.952 201.574 162.142 202.001 162.142 202.507C162.142 203.014 161.954 203.443 161.579 203.793C161.204 204.139 160.746 204.312 160.205 204.312H159.401V205.949H158.327V200.702H160.183ZM161.06 202.719V202.288C161.06 202.074 160.989 201.918 160.848 201.82C160.712 201.718 160.495 201.667 160.198 201.667H159.401V203.348H160.22C160.512 203.348 160.724 203.297 160.855 203.194C160.992 203.092 161.06 202.934 161.06 202.719ZM164.468 205.949V201.682H163.043V200.702H166.967V201.682H165.542V205.949H164.468Z" fill="#0069ff"/>
<line x1="220.076" y1="133.809" x2="220.076" y2="260.828" stroke="#1C1C1C" stroke-width="0.73"/>
<line x1="245.845" y1="163.963" x2="245.845" y2="260.83" stroke="#1C1C1C" stroke-width="0.73"/>
<line x1="137.334" y1="219.387" x2="137.33" y2="261.838" stroke="#1C1C1C" stroke-width="0.73"/>
<line x1="148.908" y1="240.613" x2="148.908" y2="261.839" stroke="#1C1C1C" stroke-width="0.73"/>
<circle cx="220.024" cy="133.808" r="4.03611" fill="#0069ff"/>
<circle cx="136.97" cy="219.388" r="4.03611" fill="#0069ff"/>
<path d="M220.5 134C212.083 137.167 196.5 145.25 193.25 169C189.782 194.342 176.25 221.5 137.75 219" stroke="#0069ff"/>
</svg>
