<svg width="263" height="301" viewBox="0 0 263 301" fill="none" xmlns="../../../../www.w3.org/2000/svg.html">
<path d="M8.75 261.046L2.45369 261.046L2.45369 258.398L7.59246 257.652L7.59246 257.372L2.45369 256.548L2.45369 253.899L8.75 253.899L8.75 255.118L3.61123 255.118L3.61123 255.539L8.75 256.434L8.75 258.626L3.61123 259.441L3.61123 259.862L8.75 259.862L8.75 261.046ZM7.90815 247.275C8.52785 247.842 8.83769 248.544 8.83769 249.38C8.83769 250.216 8.52785 250.92 7.90815 251.493C7.28846 252.06 6.51969 252.344 5.60185 252.344C4.684 252.344 3.91523 252.06 3.29554 251.493C2.67585 250.92 2.366 250.216 2.366 249.38C2.366 248.544 2.67585 247.842 3.29554 247.275C3.91523 246.708 4.684 246.425 5.60185 246.425C6.51969 246.425 7.28846 246.708 7.90815 247.275ZM7.67138 249.38C7.67138 248.86 7.52815 248.462 7.24169 248.187C6.95523 247.913 6.54015 247.775 5.99646 247.775L5.20723 247.775C4.65769 247.775 4.24261 247.913 3.962 248.187C3.67554 248.456 3.53231 248.854 3.53231 249.38C3.53231 249.906 3.67554 250.307 3.962 250.581C4.24261 250.85 4.65769 250.985 5.20723 250.985L5.99646 250.985C6.54015 250.985 6.95523 250.85 7.24169 250.581C7.52815 250.307 7.67138 249.906 7.67138 249.38ZM8.75 244.871L2.45369 244.871L2.45369 242.275L7.59246 240.986L7.59246 240.644L2.45369 240.644L2.45369 239.46L8.75 239.46L8.75 241.951L3.61123 243.266L3.61123 243.687L8.75 243.687L8.75 244.871ZM8.75 236.32L3.62877 236.32L3.62877 238.03L2.45369 238.03L2.45369 233.321L3.62877 233.321L3.62877 235.031L8.75 235.031L8.75 236.32ZM8.75 231.89L2.45369 231.89L2.45369 230.6L4.92661 230.6L4.92661 228.189L2.45369 228.189L2.45369 226.9L8.75 226.9L8.75 228.189L6.07538 228.189L6.07538 230.6L8.75 230.6L8.75 231.89ZM8.83769 222.811C8.83769 223.524 8.63015 224.121 8.21508 224.6C7.79415 225.074 7.25923 225.325 6.61031 225.354L6.61031 224.012C7.04292 224.007 7.344 223.916 7.51354 223.741C7.67723 223.565 7.75908 223.247 7.75908 222.785C7.75908 222.042 7.52231 221.671 7.04877 221.671L6.82954 221.671C6.66 221.671 6.53431 221.724 6.45246 221.829C6.37061 221.934 6.30631 222.136 6.25954 222.434L6.11923 223.285C6.01984 223.858 5.80938 224.314 5.48784 224.653C5.16631 224.986 4.78338 225.152 4.33908 225.152C3.80123 225.152 3.33938 224.927 2.95354 224.477C2.56184 224.027 2.366 223.489 2.366 222.864C2.366 222.215 2.56184 221.665 2.95354 221.215C3.34523 220.759 3.84507 220.502 4.45308 220.443L4.45308 221.794C4.07308 221.794 3.81 221.876 3.66384 222.039C3.51769 222.197 3.44461 222.481 3.44461 222.89C3.44461 223.545 3.66677 223.872 4.11107 223.872L4.31277 223.872C4.48815 223.872 4.62261 223.817 4.71615 223.706C4.80969 223.589 4.87692 223.39 4.91784 223.109L5.07569 222.224C5.292 220.978 5.86784 220.356 6.80323 220.356C7.35861 220.356 7.838 220.598 8.24138 221.084C8.63892 221.569 8.83769 222.145 8.83769 222.811Z" fill="#0069ff"/>
<path d="M48.1279 262.176C47.6602 262.784 47.0639 263.088 46.339 263.088C45.6141 263.088 45.0178 262.784 44.5501 262.176C44.0882 261.568 43.8573 260.793 43.8573 259.852C43.8573 258.911 44.0912 258.136 44.5588 257.528C45.0265 256.92 45.6199 256.616 46.339 256.616C47.0581 256.616 47.6515 256.92 48.1192 257.528C48.5927 258.136 48.8295 258.911 48.8295 259.852C48.8295 260.793 48.5956 261.568 48.1279 262.176ZM46.339 262C46.7482 262 47.0435 261.898 47.2247 261.693C47.4118 261.489 47.5053 261.17 47.5053 260.738V258.966C47.5053 258.528 47.4118 258.206 47.2247 258.002C47.0435 257.797 46.7482 257.695 46.339 257.695C45.9356 257.695 45.6404 257.797 45.4533 258.002C45.2662 258.206 45.1727 258.528 45.1727 258.966V260.738C45.1727 261.17 45.2662 261.489 45.4533 261.693C45.6404 261.898 45.9356 262 46.339 262Z" fill="#ABABAB"/>
<path d="M84.6269 276V273.992L86.8894 272.633C87.1466 272.457 87.3337 272.302 87.4506 272.168C87.5675 272.028 87.626 271.876 87.626 271.712V271.379C87.626 271.139 87.5617 270.966 87.4331 270.861C87.3045 270.75 87.0677 270.695 86.7228 270.695C86.3428 270.695 86.0709 270.765 85.9072 270.905C85.7494 271.045 85.6705 271.3 85.6705 271.668H84.4077C84.4486 271.107 84.6854 270.624 85.118 270.221C85.5506 269.818 86.0885 269.616 86.7315 269.616C87.3922 269.616 87.9242 269.8 88.3275 270.168C88.7368 270.537 88.9414 270.993 88.9414 271.536C88.9414 272.279 88.4123 272.957 87.3542 273.571L85.8634 274.509V274.86H89.0028V276H84.6269ZM94.9234 275.176C94.4557 275.784 93.8594 276.088 93.1344 276.088C92.4095 276.088 91.8132 275.784 91.3455 275.176C90.8837 274.568 90.6528 273.793 90.6528 272.852C90.6528 271.911 90.8866 271.136 91.3543 270.528C91.822 269.92 92.4154 269.616 93.1344 269.616C93.8535 269.616 94.4469 269.92 94.9146 270.528C95.3881 271.136 95.6249 271.911 95.6249 272.852C95.6249 273.793 95.3911 274.568 94.9234 275.176ZM93.1344 275C93.5437 275 93.8389 274.898 94.0201 274.693C94.2072 274.489 94.3008 274.17 94.3008 273.738V271.966C94.3008 271.528 94.2072 271.206 94.0201 271.002C93.8389 270.797 93.5437 270.695 93.1344 270.695C92.7311 270.695 92.4358 270.797 92.2488 271.002C92.0617 271.206 91.9681 271.528 91.9681 271.966V273.738C91.9681 274.17 92.0617 274.489 92.2488 274.693C92.4358 274.898 92.7311 275 93.1344 275ZM97.2924 276V274.86H98.9761V270.844H97.4941V269.704H100.221V274.86H101.905V276H97.2924ZM105.499 269.625C106.207 269.625 106.785 269.835 107.236 270.256C107.692 270.671 107.92 271.177 107.92 271.773C107.92 272.329 107.671 272.913 107.174 273.527L105.201 276H103.666L105.42 273.904C104.713 273.875 104.146 273.659 103.719 273.255C103.298 272.852 103.088 272.361 103.088 271.782C103.088 271.18 103.316 270.671 103.772 270.256C104.234 269.835 104.809 269.625 105.499 269.625ZM106.613 272.01V271.554C106.613 270.981 106.25 270.695 105.526 270.695C104.771 270.695 104.394 270.981 104.394 271.554V272.01C104.394 272.583 104.771 272.869 105.526 272.869C106.25 272.869 106.613 272.583 106.613 272.01Z" fill="#1C1C1C"/>
<path d="M126.627 276V273.992L128.889 272.633C129.147 272.457 129.334 272.302 129.451 272.168C129.568 272.028 129.626 271.876 129.626 271.712V271.379C129.626 271.139 129.562 270.966 129.433 270.861C129.304 270.75 129.068 270.695 128.723 270.695C128.343 270.695 128.071 270.765 127.907 270.905C127.749 271.045 127.67 271.3 127.67 271.668H126.408C126.449 271.107 126.685 270.624 127.118 270.221C127.551 269.818 128.088 269.616 128.732 269.616C129.392 269.616 129.924 269.8 130.328 270.168C130.737 270.537 130.941 270.993 130.941 271.536C130.941 272.279 130.412 272.957 129.354 273.571L127.863 274.509V274.86H131.003V276H126.627ZM136.923 275.176C136.456 275.784 135.859 276.088 135.134 276.088C134.41 276.088 133.813 275.784 133.346 275.176C132.884 274.568 132.653 273.793 132.653 272.852C132.653 271.911 132.887 271.136 133.354 270.528C133.822 269.92 134.415 269.616 135.134 269.616C135.854 269.616 136.447 269.92 136.915 270.528C137.388 271.136 137.625 271.911 137.625 272.852C137.625 273.793 137.391 274.568 136.923 275.176ZM135.134 275C135.544 275 135.839 274.898 136.02 274.693C136.207 274.489 136.301 274.17 136.301 273.738V271.966C136.301 271.528 136.207 271.206 136.02 271.002C135.839 270.797 135.544 270.695 135.134 270.695C134.731 270.695 134.436 270.797 134.249 271.002C134.062 271.206 133.968 271.528 133.968 271.966L133.968 273.738C133.968 274.17 134.062 274.489 134.249 274.693C134.436 274.898 134.731 275 135.134 275ZM139.608 276V273.992L141.871 272.633C142.128 272.457 142.315 272.302 142.432 272.168C142.549 272.028 142.607 271.876 142.607 271.712V271.379C142.607 271.139 142.543 270.966 142.414 270.861C142.286 270.75 142.049 270.695 141.704 270.695C141.324 270.695 141.052 270.765 140.888 270.905C140.731 271.045 140.652 271.3 140.652 271.668H139.389C139.43 271.107 139.667 270.624 140.099 270.221C140.532 269.818 141.07 269.616 141.713 269.616C142.373 269.616 142.905 269.8 143.309 270.168C143.718 270.537 143.923 270.993 143.923 271.536C143.923 272.279 143.394 272.957 142.335 273.571L140.845 274.509V274.86H143.984V276H139.608ZM149.905 275.176C149.437 275.784 148.841 276.088 148.116 276.088C147.391 276.088 146.794 275.784 146.327 275.176C145.865 274.568 145.634 273.793 145.634 272.852C145.634 271.911 145.868 271.136 146.335 270.528C146.803 269.92 147.397 269.616 148.116 269.616C148.835 269.616 149.428 269.92 149.896 270.528C150.369 271.136 150.606 271.911 150.606 272.852C150.606 273.793 150.372 274.568 149.905 275.176ZM148.116 275C148.525 275 148.82 274.898 149.001 274.693C149.188 274.489 149.282 274.17 149.282 273.738V271.966C149.282 271.528 149.188 271.206 149.001 271.002C148.82 270.797 148.525 270.695 148.116 270.695C147.712 270.695 147.417 270.797 147.23 271.002C147.043 271.206 146.949 271.528 146.949 271.966V273.738C146.949 274.17 147.043 274.489 147.23 274.693C147.417 274.898 147.712 275 148.116 275Z" fill="#1C1C1C"/>
<path d="M167.627 276V273.992L169.889 272.633C170.147 272.457 170.334 272.302 170.451 272.168C170.568 272.028 170.626 271.876 170.626 271.712V271.379C170.626 271.139 170.562 270.966 170.433 270.861C170.304 270.75 170.068 270.695 169.723 270.695C169.343 270.695 169.071 270.765 168.907 270.905C168.749 271.045 168.67 271.3 168.67 271.668H167.408C167.449 271.107 167.685 270.624 168.118 270.221C168.551 269.818 169.088 269.616 169.732 269.616C170.392 269.616 170.924 269.8 171.328 270.168C171.737 270.537 171.941 270.993 171.941 271.536C171.941 272.279 171.412 272.957 170.354 273.571L168.863 274.509V274.86H172.003V276H167.627ZM177.923 275.176C177.456 275.784 176.859 276.088 176.134 276.088C175.41 276.088 174.813 275.784 174.346 275.176C173.884 274.568 173.653 273.793 173.653 272.852C173.653 271.911 173.887 271.136 174.354 270.528C174.822 269.92 175.415 269.616 176.134 269.616C176.854 269.616 177.447 269.92 177.915 270.528C178.388 271.136 178.625 271.911 178.625 272.852C178.625 273.793 178.391 274.568 177.923 275.176ZM176.134 275C176.544 275 176.839 274.898 177.02 274.693C177.207 274.489 177.301 274.17 177.301 273.738V271.966C177.301 271.528 177.207 271.206 177.02 271.002C176.839 270.797 176.544 270.695 176.134 270.695C175.731 270.695 175.436 270.797 175.249 271.002C175.062 271.206 174.968 271.528 174.968 271.966L174.968 273.738C174.968 274.17 175.062 274.489 175.249 274.693C175.436 274.898 175.731 275 176.134 275ZM180.608 276V273.992L182.871 272.633C183.128 272.457 183.315 272.302 183.432 272.168C183.549 272.028 183.607 271.876 183.607 271.712V271.379C183.607 271.139 183.543 270.966 183.414 270.861C183.286 270.75 183.049 270.695 182.704 270.695C182.324 270.695 182.052 270.765 181.888 270.905C181.731 271.045 181.652 271.3 181.652 271.668H180.389C180.43 271.107 180.667 270.624 181.099 270.221C181.532 269.818 182.07 269.616 182.713 269.616C183.373 269.616 183.905 269.8 184.309 270.168C184.718 270.537 184.923 270.993 184.923 271.536C184.923 272.279 184.394 272.957 183.335 273.571L181.845 274.509V274.86H184.984V276H180.608ZM186.783 276V274.86H188.467V270.844H186.985V269.704H189.712V274.86H191.396V276H186.783Z" fill="#0069ff"/>
<path d="M208.627 276V273.992L210.889 272.633C211.147 272.457 211.334 272.302 211.451 272.168C211.568 272.028 211.626 271.876 211.626 271.712V271.379C211.626 271.139 211.562 270.966 211.433 270.861C211.304 270.75 211.068 270.695 210.723 270.695C210.343 270.695 210.071 270.765 209.907 270.905C209.749 271.045 209.67 271.3 209.67 271.668H208.408C208.449 271.107 208.685 270.624 209.118 270.221C209.551 269.818 210.088 269.616 210.732 269.616C211.392 269.616 211.924 269.8 212.328 270.168C212.737 270.537 212.941 270.993 212.941 271.536C212.941 272.279 212.412 272.957 211.354 273.571L209.863 274.509V274.86H213.003V276H208.627ZM218.923 275.176C218.456 275.784 217.859 276.088 217.134 276.088C216.41 276.088 215.813 275.784 215.346 275.176C214.884 274.568 214.653 273.793 214.653 272.852C214.653 271.911 214.887 271.136 215.354 270.528C215.822 269.92 216.415 269.616 217.134 269.616C217.854 269.616 218.447 269.92 218.915 270.528C219.388 271.136 219.625 271.911 219.625 272.852C219.625 273.793 219.391 274.568 218.923 275.176ZM217.134 275C217.544 275 217.839 274.898 218.02 274.693C218.207 274.489 218.301 274.17 218.301 273.738V271.966C218.301 271.528 218.207 271.206 218.02 271.002C217.839 270.797 217.544 270.695 217.134 270.695C216.731 270.695 216.436 270.797 216.249 271.002C216.062 271.206 215.968 271.528 215.968 271.966L215.968 273.738C215.968 274.17 216.062 274.489 216.249 274.693C216.436 274.898 216.731 275 217.134 275ZM221.608 276V273.992L223.871 272.633C224.128 272.457 224.315 272.302 224.432 272.168C224.549 272.028 224.607 271.876 224.607 271.712V271.379C224.607 271.139 224.543 270.966 224.414 270.861C224.286 270.75 224.049 270.695 223.704 270.695C223.324 270.695 223.052 270.765 222.888 270.905C222.731 271.045 222.652 271.3 222.652 271.668H221.389C221.43 271.107 221.667 270.624 222.099 270.221C222.532 269.818 223.07 269.616 223.713 269.616C224.373 269.616 224.905 269.8 225.309 270.168C225.718 270.537 225.923 270.993 225.923 271.536C225.923 272.279 225.394 272.957 224.335 273.571L222.845 274.509V274.86H225.984V276H221.608ZM227.885 276V273.992L230.147 272.633C230.404 272.457 230.591 272.302 230.708 272.168C230.825 272.028 230.884 271.876 230.884 271.712V271.379C230.884 271.139 230.819 270.966 230.691 270.861C230.562 270.75 230.325 270.695 229.98 270.695C229.6 270.695 229.329 270.765 229.165 270.905C229.007 271.045 228.928 271.3 228.928 271.668H227.665C227.706 271.107 227.943 270.624 228.376 270.221C228.808 269.818 229.346 269.616 229.989 269.616C230.65 269.616 231.182 269.8 231.585 270.168C231.994 270.537 232.199 270.993 232.199 271.536C232.199 272.279 231.67 272.957 230.612 273.571L229.121 274.509V274.86H232.26V276H227.885Z" fill="#ABABAB"/>
<path d="M36.9579 220V218.86H38.6416V214.844H37.1596V213.704H39.8869V218.86H41.5706V220H36.9579ZM47.1162 219.176C46.6485 219.784 46.0522 220.088 45.3273 220.088C44.6024 220.088 44.0061 219.784 43.5384 219.176C43.0765 218.568 42.8456 217.793 42.8456 216.852C42.8456 215.911 43.0794 215.136 43.5471 214.528C44.0148 213.92 44.6082 213.616 45.3273 213.616C46.0464 213.616 46.6397 213.92 47.1074 214.528C47.581 215.136 47.8177 215.911 47.8177 216.852C47.8177 217.793 47.5839 218.568 47.1162 219.176ZM45.3273 219C45.7365 219 46.0317 218.898 46.213 218.693C46.4001 218.489 46.4936 218.17 46.4936 217.738V215.966C46.4936 215.528 46.4001 215.206 46.213 215.002C46.0317 214.797 45.7365 214.695 45.3273 214.695C44.9239 214.695 44.6287 214.797 44.4416 215.002C44.2545 215.206 44.161 215.528 44.161 215.966V217.738C44.161 218.17 44.2545 218.489 44.4416 218.693C44.6287 218.898 44.9239 219 45.3273 219Z" fill="#ABABAB"/>
<path d="M36.8198 178V175.992L39.0822 174.633C39.3395 174.457 39.5265 174.302 39.6435 174.168C39.7604 174.028 39.8188 173.876 39.8188 173.712V173.379C39.8188 173.139 39.7545 172.966 39.6259 172.861C39.4973 172.75 39.2605 172.695 38.9156 172.695C38.5356 172.695 38.2638 172.765 38.1001 172.905C37.9422 173.045 37.8633 173.3 37.8633 173.668H36.6005C36.6415 173.107 36.8782 172.624 37.3108 172.221C37.7435 171.818 38.2813 171.616 38.9244 171.616C39.585 171.616 40.117 171.8 40.5204 172.168C40.9296 172.537 41.1342 172.993 41.1342 173.536C41.1342 174.279 40.6051 174.957 39.547 175.571L38.0562 176.509V176.86H41.1956V178H36.8198ZM47.1162 177.176C46.6485 177.784 46.0522 178.088 45.3273 178.088C44.6024 178.088 44.0061 177.784 43.5384 177.176C43.0765 176.568 42.8456 175.793 42.8456 174.852C42.8456 173.911 43.0794 173.136 43.5471 172.528C44.0148 171.92 44.6082 171.616 45.3273 171.616C46.0464 171.616 46.6397 171.92 47.1074 172.528C47.581 173.136 47.8177 173.911 47.8177 174.852C47.8177 175.793 47.5839 176.568 47.1162 177.176ZM45.3273 177C45.7365 177 46.0317 176.898 46.213 176.693C46.4001 176.489 46.4936 176.17 46.4936 175.738V173.966C46.4936 173.528 46.4001 173.206 46.213 173.002C46.0317 172.797 45.7365 172.695 45.3273 172.695C44.9239 172.695 44.6287 172.797 44.4416 173.002C44.2545 173.206 44.161 173.528 44.161 173.966V175.738C44.161 176.17 44.2545 176.489 44.4416 176.693C44.6287 176.898 44.9239 177 45.3273 177Z" fill="#ABABAB"/>
<path d="M40.0658 131.712C40.4166 131.846 40.6943 132.042 40.8989 132.299C41.1035 132.55 41.2058 132.84 41.2058 133.167C41.2058 133.693 40.9808 134.146 40.5306 134.526C40.0805 134.901 39.5251 135.088 38.8645 135.088C38.1746 135.088 37.6046 134.906 37.1545 134.544C36.7043 134.176 36.4558 133.699 36.4091 133.115H37.6543C37.6543 133.424 37.742 133.65 37.9174 133.79C38.0986 133.93 38.3938 134 38.8031 134C39.5338 134 39.8992 133.784 39.8992 133.351V132.86C39.8992 132.469 39.5221 132.273 38.768 132.273H37.8297V131.238H38.6803C39.0311 131.238 39.2825 131.197 39.4345 131.115C39.5923 131.033 39.6712 130.899 39.6712 130.712V130.238C39.6712 129.876 39.3672 129.695 38.7592 129.695C38.4085 129.695 38.1571 129.759 38.0051 129.888C37.8589 130.01 37.7858 130.212 37.7858 130.493H36.5406C36.6049 129.978 36.8592 129.537 37.3035 129.168C37.7478 128.8 38.2565 128.616 38.8294 128.616C39.4549 128.616 39.9694 128.791 40.3728 129.142C40.7761 129.487 40.9778 129.905 40.9778 130.396C40.9778 130.671 40.896 130.922 40.7323 131.15C40.5686 131.378 40.3465 131.565 40.0658 131.712ZM47.1185 134.176C46.6508 134.784 46.0545 135.088 45.3296 135.088C44.6046 135.088 44.0083 134.784 43.5406 134.176C43.0788 133.568 42.8479 132.793 42.8479 131.852C42.8479 130.911 43.0817 130.136 43.5494 129.528C44.0171 128.92 44.6105 128.616 45.3296 128.616C46.0486 128.616 46.642 128.92 47.1097 129.528C47.5833 130.136 47.82 130.911 47.82 131.852C47.82 132.793 47.5862 133.568 47.1185 134.176ZM45.3296 134C45.7388 134 46.034 133.898 46.2153 133.693C46.4023 133.489 46.4959 133.17 46.4959 132.738V130.966C46.4959 130.528 46.4023 130.206 46.2153 130.002C46.034 129.797 45.7388 129.695 45.3296 129.695C44.9262 129.695 44.631 129.797 44.4439 130.002C44.2568 130.206 44.1633 130.528 44.1633 130.966V132.738C44.1633 133.17 44.2568 133.489 44.4439 133.693C44.631 133.898 44.9262 134 45.3296 134Z" fill="#ABABAB"/>
<path d="M39.0562 93V91.0883H36.1974V86.7037H37.4339V90.0535H39.0562V88.1418H40.3014V90.0535H41.3976V91.0883H40.3014V93H39.0562ZM47.1162 92.1757C46.6485 92.7837 46.0522 93.0877 45.3273 93.0877C44.6024 93.0877 44.0061 92.7837 43.5384 92.1757C43.0765 91.5677 42.8456 90.7931 42.8456 89.8518C42.8456 88.9106 43.0794 88.136 43.5471 87.528C44.0148 86.92 44.6082 86.616 45.3273 86.616C46.0464 86.616 46.6397 86.92 47.1074 87.528C47.581 88.136 47.8177 88.9106 47.8177 89.8518C47.8177 90.7931 47.5839 91.5677 47.1162 92.1757ZM45.3273 92.0003C45.7365 92.0003 46.0317 91.898 46.213 91.6934C46.4001 91.4888 46.4936 91.1702 46.4936 90.7375V88.9662C46.4936 88.5277 46.4001 88.2062 46.213 88.0015C46.0317 87.7969 45.7365 87.6946 45.3273 87.6946C44.9239 87.6946 44.6287 87.7969 44.4416 88.0015C44.2545 88.2062 44.161 88.5277 44.161 88.9662V90.7375C44.161 91.1702 44.2545 91.4888 44.4416 91.6934C44.6287 91.898 44.9239 92.0003 45.3273 92.0003Z" fill="#ABABAB"/>
<path d="M39.1787 45.7645C39.7925 45.7645 40.2924 45.9662 40.6782 46.3695C41.0641 46.7729 41.257 47.2757 41.257 47.8778C41.257 48.5092 41.0407 49.0354 40.6081 49.4563C40.1813 49.8772 39.6201 50.0877 38.9244 50.0877C38.3515 50.0877 37.8545 49.9328 37.4336 49.6229C37.0127 49.3072 36.7467 48.8892 36.6356 48.3689H37.951C37.9802 48.5969 38.0708 48.7606 38.2228 48.86C38.3807 48.9594 38.6175 49.0091 38.9331 49.0091C39.6055 49.0091 39.9416 48.7285 39.9416 48.1672V47.5972C39.9416 47.0535 39.6025 46.7817 38.9244 46.7817C38.3222 46.7817 37.9802 47.0214 37.8984 47.5008H36.7671V43.7037H40.9413V44.8437H37.837V46.3169C38.217 45.9486 38.6642 45.7645 39.1787 45.7645ZM47.1162 49.1757C46.6485 49.7837 46.0522 50.0877 45.3273 50.0877C44.6024 50.0877 44.0061 49.7837 43.5384 49.1757C43.0765 48.5677 42.8456 47.7931 42.8456 46.8518C42.8456 45.9106 43.0794 45.136 43.5471 44.528C44.0148 43.92 44.6082 43.616 45.3273 43.616C46.0464 43.616 46.6397 43.92 47.1074 44.528C47.581 45.136 47.8177 45.9106 47.8177 46.8518C47.8177 47.7931 47.5839 48.5677 47.1162 49.1757ZM45.3273 49.0003C45.7365 49.0003 46.0317 48.898 46.213 48.6934C46.4001 48.4888 46.4936 48.1702 46.4936 47.7375V45.9662C46.4936 45.5277 46.4001 45.2062 46.213 45.0015C46.0317 44.7969 45.7365 44.6946 45.3273 44.6946C44.9239 44.6946 44.6287 44.7969 44.4416 45.0015C44.2545 45.2062 44.161 45.5277 44.161 45.9662V47.7375C44.161 48.1702 44.2545 48.4888 44.4416 48.6934C44.6287 48.898 44.9239 49.0003 45.3273 49.0003Z" fill="#ABABAB"/>
<path d="M38.8981 3.71185C39.6171 3.73523 40.193 3.95446 40.6256 4.36954C41.0582 4.78462 41.2745 5.28738 41.2745 5.87785C41.2745 6.49754 41.0407 7.02077 40.573 7.44754C40.1053 7.87431 39.5178 8.08769 38.8104 8.08769C38.0913 8.08769 37.5008 7.87431 37.039 7.44754C36.583 7.01492 36.355 6.49462 36.355 5.88662C36.355 5.27862 36.6093 4.67646 37.1179 4.08015L39.1173 1.70369L40.6519 1.70369L38.8981 3.71185ZM39.9679 6.10585V5.64985C39.9679 5.34585 39.8773 5.12077 39.6961 4.97462C39.5148 4.82846 39.2196 4.75538 38.8104 4.75538C38.4128 4.75538 38.1205 4.82846 37.9335 4.97462C37.7522 5.12077 37.6616 5.34585 37.6616 5.64985V6.10585C37.6616 6.40985 37.7522 6.63492 37.9335 6.78108C38.1205 6.92723 38.4128 7.00031 38.8104 7.00031C39.2196 7.00031 39.5148 6.92723 39.6961 6.78108C39.8773 6.63492 39.9679 6.40985 39.9679 6.10585ZM47.1162 7.17569C46.6485 7.78369 46.0522 8.08769 45.3273 8.08769C44.6024 8.08769 44.0061 7.78369 43.5384 7.17569C43.0765 6.56769 42.8456 5.79308 42.8456 4.85185C42.8456 3.91062 43.0794 3.136 43.5471 2.528C44.0148 1.92 44.6082 1.616 45.3273 1.616C46.0464 1.616 46.6397 1.92 47.1074 2.528C47.581 3.136 47.8177 3.91062 47.8177 4.85185C47.8177 5.79308 47.5839 6.56769 47.1162 7.17569ZM45.3273 7.00031C45.7365 7.00031 46.0317 6.898 46.213 6.69338C46.4001 6.48877 46.4936 6.17015 46.4936 5.73754V3.96615C46.4936 3.52769 46.4001 3.20615 46.213 3.00154C46.0317 2.79692 45.7365 2.69462 45.3273 2.69462C44.9239 2.69462 44.6287 2.79692 44.4416 3.00154C44.2545 3.20615 44.161 3.52769 44.161 3.96615V5.73754C44.161 6.17015 44.2545 6.48877 44.4416 6.69338C44.6287 6.898 44.9239 7.00031 45.3273 7.00031Z" fill="#ABABAB"/>
<path d="M57.1696 296.879V291.758H55.4596V290.583H60.1687V291.758H58.4587V296.879H57.1696ZM61.5998 296.879V290.583H65.5547V291.74H62.8801V293.056H65.2916V294.204H62.8801V295.721H65.6161V296.879H61.5998ZM67.2511 296.879L67.2511 290.583H68.5402V295.704H70.9693V296.879H67.2511ZM74.5988 296.967C73.7862 296.967 73.1051 296.657 72.5555 296.037C72.0118 295.412 71.74 294.643 71.74 293.731C71.74 292.819 72.0118 292.053 72.5555 291.433C73.1051 290.808 73.7862 290.495 74.5988 290.495C75.2945 290.495 75.9142 290.749 76.4578 291.258C77.0015 291.766 77.2997 292.372 77.3523 293.073H75.9668C75.9434 292.576 75.8206 292.217 75.5985 291.994C75.3822 291.772 75.0431 291.661 74.5812 291.661C74.0492 291.661 73.6692 291.79 73.4412 292.047C73.2132 292.304 73.0992 292.734 73.0992 293.336V294.125C73.0992 294.728 73.2132 295.157 73.4412 295.414C73.6692 295.672 74.0492 295.8 74.5812 295.8C75.0431 295.8 75.3851 295.689 75.6072 295.467C75.8294 295.239 75.9492 294.877 75.9668 294.38H77.3523C77.2997 295.081 77.0015 295.689 76.4578 296.204C75.9142 296.712 75.2945 296.967 74.5988 296.967ZM83.6589 296.037C83.0918 296.657 82.3903 296.967 81.5543 296.967C80.7183 296.967 80.0138 296.657 79.4409 296.037C78.8738 295.417 78.5903 294.649 78.5903 293.731C78.5903 292.813 78.8738 292.044 79.4409 291.424C80.0138 290.805 80.7183 290.495 81.5543 290.495C82.3903 290.495 83.0918 290.805 83.6589 291.424C84.226 292.044 84.5095 292.813 84.5095 293.731C84.5095 294.649 84.226 295.417 83.6589 296.037ZM81.5543 295.8C82.0746 295.8 82.4721 295.657 82.7469 295.371C83.0217 295.084 83.159 294.669 83.159 294.125V293.336C83.159 292.787 83.0217 292.372 82.7469 292.091C82.478 291.804 82.0804 291.661 81.5543 291.661C81.0281 291.661 80.6277 291.804 80.3529 292.091C80.084 292.372 79.9495 292.787 79.9495 293.336V294.125C79.9495 294.669 80.084 295.084 80.3529 295.371C80.6277 295.657 81.0281 295.8 81.5543 295.8ZM88.326 296.967C87.6127 296.967 87.0164 296.759 86.5371 296.344C86.0635 295.923 85.8121 295.388 85.7829 294.739H87.1246C87.1304 295.172 87.2211 295.473 87.3964 295.642C87.5718 295.806 87.8904 295.888 88.3523 295.888C89.0947 295.888 89.466 295.651 89.466 295.178V294.958C89.466 294.789 89.4134 294.663 89.3081 294.581C89.2029 294.5 89.0012 294.435 88.7031 294.388L87.8524 294.248C87.2795 294.149 86.8235 293.938 86.4844 293.617C86.1512 293.295 85.9846 292.912 85.9846 292.468C85.9846 291.93 86.2097 291.468 86.6598 291.082C87.11 290.691 87.6478 290.495 88.2734 290.495C88.9223 290.495 89.4718 290.691 89.922 291.082C90.378 291.474 90.6352 291.974 90.6937 292.582H89.3432C89.3432 292.202 89.2614 291.939 89.0977 291.793C88.9398 291.647 88.6563 291.574 88.2471 291.574C87.5923 291.574 87.2649 291.796 87.2649 292.24V292.442C87.2649 292.617 87.3204 292.752 87.4315 292.845C87.5484 292.939 87.7472 293.006 88.0278 293.047L88.9135 293.205C90.1587 293.421 90.7814 293.997 90.7814 294.932C90.7814 295.488 90.5387 295.967 90.0535 296.37C89.5683 296.768 88.9924 296.967 88.326 296.967Z" fill="#0069ff"/>
<line x1="53.6388" y1="8.07031" x2="53.6388" y2="262.616" stroke="#ABABAB" stroke-width="0.730769"/>
<line x1="96.0646" y1="8.07031" x2="96.0646" y2="262.616" stroke="#ABABAB" stroke-width="0.730769"/>
<line x1="137.479" y1="8.07031" x2="137.479" y2="262.616" stroke="#ABABAB" stroke-width="0.730769"/>
<line x1="178.897" y1="8.07031" x2="178.897" y2="262.616" stroke="#ABABAB" stroke-width="0.730769"/>
<line x1="220.311" y1="8.07031" x2="220.311" y2="262.616" stroke="#ABABAB" stroke-width="0.730769"/>
<line x1="261.721" y1="8.07031" x2="261.721" y2="262.616" stroke="#ABABAB" stroke-width="0.730769"/>
<line x1="53.2734" y1="262.252" x2="261.354" y2="262.252" stroke="#ABABAB" stroke-width="0.730769"/>
<line x1="53.2734" y1="219.826" x2="261.354" y2="219.826" stroke="#ABABAB" stroke-width="0.730769"/>
<line x1="53.2734" y1="177.402" x2="261.354" y2="177.402" stroke="#ABABAB" stroke-width="0.730769"/>
<line x1="53.2734" y1="134.976" x2="261.354" y2="134.976" stroke="#ABABAB" stroke-width="0.730769"/>
<line x1="53.2734" y1="92.5545" x2="261.354" y2="92.5546" stroke="#ABABAB" stroke-width="0.730769"/>
<line x1="53.2734" y1="50.1307" x2="261.354" y2="50.1307" stroke="#ABABAB" stroke-width="0.730769"/>
<line x1="53.2734" y1="7.70493" x2="261.354" y2="7.70495" stroke="#ABABAB" stroke-width="0.730769"/>
<circle cx="95.7904" cy="68.0404" r="4.0404" fill="#1C1C1C"/>
<circle cx="178.79" cy="178.04" r="4.0404" fill="#0069ff"/>
<circle cx="137.79" cy="91.0404" r="4.0404" fill="#1C1C1C"/>
<path d="M95.75 262L95.75 68" stroke="#1C1C1C" stroke-width="0.730769"/>
<path d="M137.75 262L137.75 93" stroke="#1C1C1C" stroke-width="0.730769"/>
<path d="M178.75 262L178.75 178" stroke="#0069ff" stroke-width="0.730769"/>
</svg>
