<svg width="1369" height="857" fill="none" xmlns="../../../../www.w3.org/2000/svg.html"><path d="M1.84 3.232a1.34 1.34 0 1 0 0-2.682 1.34 1.34 0 0 0 0 2.682zM26.222 3.232a1.34 1.34 0 1 0 0-2.682 1.34 1.34 0 0 0 0 2.682zM50.603 3.232a1.34 1.34 0 1 0 0-2.682 1.34 1.34 0 0 0 0 2.682zM74.984 3.232a1.34 1.34 0 1 0 0-2.682 1.34 1.34 0 0 0 0 2.682zM99.365 3.232a1.34 1.34 0 1 0 0-2.681 1.34 1.34 0 0 0 0 2.681zM123.747 3.232a1.34 1.34 0 1 0-.001-2.681 1.34 1.34 0 0 0 .001 2.681zM148.128 3.232a1.34 1.34 0 1 0-.001-2.681 1.34 1.34 0 0 0 .001 2.681zM172.509 3.232a1.341 1.341 0 1 0 0-2.683 1.341 1.341 0 0 0 0 2.683zM26.222 27.614a1.34 1.34 0 1 0 0-2.681 1.34 1.34 0 0 0 0 2.681zM50.603 27.614a1.34 1.34 0 1 0 0-2.681 1.34 1.34 0 0 0 0 2.681zM74.984 27.614a1.34 1.34 0 1 0 0-2.681 1.34 1.34 0 0 0 0 2.681zM99.365 27.614a1.34 1.34 0 1 0 0-2.681 1.34 1.34 0 0 0 0 2.681zM123.747 27.614a1.34 1.34 0 1 0-.001-2.68 1.34 1.34 0 0 0 .001 2.68zM148.128 27.614a1.34 1.34 0 1 0-.001-2.68 1.34 1.34 0 0 0 .001 2.68zM172.509 27.614a1.341 1.341 0 1 0 0-2.683 1.341 1.341 0 0 0 0 2.683zM50.603 51.996a1.34 1.34 0 1 0 0-2.681 1.34 1.34 0 0 0 0 2.681zM74.984 51.996a1.34 1.34 0 1 0 0-2.681 1.34 1.34 0 0 0 0 2.681zM99.365 51.996a1.34 1.34 0 1 0 0-2.681 1.34 1.34 0 0 0 0 2.681zM123.747 51.996a1.34 1.34 0 1 0-.001-2.68 1.34 1.34 0 0 0 .001 2.68zM148.128 51.996a1.34 1.34 0 1 0-.001-2.68 1.34 1.34 0 0 0 .001 2.68zM172.509 51.996a1.341 1.341 0 1 0-.001-2.682 1.341 1.341 0 0 0 .001 2.682zM74.984 76.379a1.34 1.34 0 1 0 0-2.682 1.34 1.34 0 0 0 0 2.682zM99.365 76.379a1.34 1.34 0 1 0 0-2.682 1.34 1.34 0 0 0 0 2.682zM123.747 76.379a1.34 1.34 0 1 0-.001-2.681 1.34 1.34 0 0 0 .001 2.68zM148.128 76.379a1.34 1.34 0 1 0-.001-2.681 1.34 1.34 0 0 0 .001 2.68zM172.509 76.379a1.341 1.341 0 1 0 0-2.683 1.341 1.341 0 0 0 0 2.683zM99.365 100.761a1.341 1.341 0 1 0 0-2.682 1.341 1.341 0 0 0 0 2.682zM123.747 100.761a1.341 1.341 0 1 0-.002-2.682 1.341 1.341 0 0 0 .002 2.682zM148.128 100.761a1.341 1.341 0 1 0-.002-2.682 1.341 1.341 0 0 0 .002 2.682zM172.509 100.761a1.342 1.342 0 1 0-.002-2.684 1.342 1.342 0 0 0 .002 2.684zM123.747 125.143a1.34 1.34 0 1 0 0-2.68 1.34 1.34 0 0 0 0 2.68zM148.128 125.143a1.34 1.34 0 1 0 0-2.68 1.34 1.34 0 0 0 0 2.68zM172.509 125.143a1.341 1.341 0 1 0 0-2.682 1.341 1.341 0 0 0 0 2.682zM148.128 149.525a1.34 1.34 0 1 0 0-2.68 1.34 1.34 0 0 0 0 2.68zM172.509 149.525a1.341 1.341 0 1 0 0-2.682 1.341 1.341 0 0 0 0 2.682zM172.509 173.907a1.341 1.341 0 1 0 0-2.682 1.341 1.341 0 0 0 0 2.682z" fill="#fff"/><path d="M172.591 3.482a1.34 1.34 0 1 0-.001-2.681 1.34 1.34 0 0 0 .001 2.681zM196.972 3.482a1.34 1.34 0 1 0-.001-2.681 1.34 1.34 0 0 0 .001 2.681zM221.353 3.482a1.341 1.341 0 1 0 0-2.683 1.341 1.341 0 0 0 0 2.683zM245.734 3.482a1.34 1.34 0 1 0 0-2.681 1.34 1.34 0 0 0 0 2.681zM270.115 3.482a1.34 1.34 0 1 0 0-2.681 1.34 1.34 0 0 0 0 2.681zM294.497 3.482a1.34 1.34 0 1 0-.001-2.681 1.34 1.34 0 0 0 .001 2.681zM318.878 3.482a1.34 1.34 0 1 0-.001-2.681 1.34 1.34 0 0 0 .001 2.681zM343.259 3.482a1.341 1.341 0 1 0 0-2.683 1.341 1.341 0 0 0 0 2.683zM172.591 27.864a1.34 1.34 0 1 0-.001-2.68 1.34 1.34 0 0 0 .001 2.68zM196.972 27.864a1.34 1.34 0 1 0-.001-2.68 1.34 1.34 0 0 0 .001 2.68zM221.353 27.864a1.341 1.341 0 1 0 0-2.683 1.341 1.341 0 0 0 0 2.683zM245.734 27.864a1.34 1.34 0 1 0 0-2.681 1.34 1.34 0 0 0 0 2.681zM270.115 27.864a1.34 1.34 0 1 0 0-2.681 1.34 1.34 0 0 0 0 2.681zM294.497 27.864a1.34 1.34 0 1 0-.001-2.68 1.34 1.34 0 0 0 .001 2.68zM318.878 27.864a1.34 1.34 0 1 0-.001-2.68 1.34 1.34 0 0 0 .001 2.68zM343.259 27.864a1.341 1.341 0 1 0 0-2.683 1.341 1.341 0 0 0 0 2.683zM172.591 52.246a1.34 1.34 0 1 0-.001-2.68 1.34 1.34 0 0 0 .001 2.68zM196.972 52.246a1.34 1.34 0 1 0-.001-2.68 1.34 1.34 0 0 0 .001 2.68zM221.353 52.246a1.341 1.341 0 1 0-.001-2.682 1.341 1.341 0 0 0 .001 2.682zM245.734 52.246a1.34 1.34 0 1 0 0-2.681 1.34 1.34 0 0 0 0 2.681zM270.115 52.246a1.34 1.34 0 1 0 0-2.681 1.34 1.34 0 0 0 0 2.681zM294.497 52.246a1.34 1.34 0 1 0-.001-2.68 1.34 1.34 0 0 0 .001 2.68zM318.878 52.246a1.34 1.34 0 1 0-.001-2.68 1.34 1.34 0 0 0 .001 2.68zM343.259 52.246a1.341 1.341 0 1 0-.001-2.682 1.341 1.341 0 0 0 .001 2.682zM172.591 76.629a1.34 1.34 0 1 0-.001-2.681 1.34 1.34 0 0 0 .001 2.68zM196.972 76.629a1.34 1.34 0 1 0-.001-2.681 1.34 1.34 0 0 0 .001 2.68zM221.353 76.629a1.341 1.341 0 1 0 0-2.683 1.341 1.341 0 0 0 0 2.683zM245.734 76.629a1.34 1.34 0 1 0 0-2.682 1.34 1.34 0 0 0 0 2.682zM270.115 76.629a1.34 1.34 0 1 0 0-2.682 1.34 1.34 0 0 0 0 2.682zM294.497 76.629a1.34 1.34 0 1 0-.001-2.681 1.34 1.34 0 0 0 .001 2.68zM318.878 76.629a1.34 1.34 0 1 0-.001-2.681 1.34 1.34 0 0 0 .001 2.68zM343.259 76.629a1.341 1.341 0 1 0 0-2.683 1.341 1.341 0 0 0 0 2.683zM172.591 101.011a1.341 1.341 0 1 0-.002-2.682 1.341 1.341 0 0 0 .002 2.682zM196.972 101.011a1.341 1.341 0 1 0-.002-2.682 1.341 1.341 0 0 0 .002 2.682zM221.353 101.011a1.342 1.342 0 1 0-.002-2.684 1.342 1.342 0 0 0 .002 2.684zM245.734 101.011a1.341 1.341 0 1 0 0-2.682 1.341 1.341 0 0 0 0 2.682zM270.115 101.011a1.341 1.341 0 1 0 0-2.682 1.341 1.341 0 0 0 0 2.682zM294.497 101.011a1.341 1.341 0 1 0-.002-2.682 1.341 1.341 0 0 0 .002 2.682zM318.878 101.011a1.341 1.341 0 1 0-.002-2.682 1.341 1.341 0 0 0 .002 2.682zM343.259 101.011a1.342 1.342 0 1 0-.002-2.684 1.342 1.342 0 0 0 .002 2.684zM172.591 125.393a1.34 1.34 0 1 0 0-2.68 1.34 1.34 0 0 0 0 2.68zM196.972 125.393a1.34 1.34 0 1 0 0-2.68 1.34 1.34 0 0 0 0 2.68zM221.353 125.393a1.341 1.341 0 1 0 0-2.682 1.341 1.341 0 0 0 0 2.682zM245.734 125.393a1.34 1.34 0 1 0 .001-2.681 1.34 1.34 0 0 0-.001 2.681zM270.115 125.393a1.34 1.34 0 1 0 .001-2.681 1.34 1.34 0 0 0-.001 2.681zM294.497 125.393a1.34 1.34 0 1 0 0-2.68 1.34 1.34 0 0 0 0 2.68zM318.878 125.393a1.34 1.34 0 1 0 0-2.68 1.34 1.34 0 0 0 0 2.68zM343.259 125.393a1.341 1.341 0 1 0 0-2.682 1.341 1.341 0 0 0 0 2.682zM172.591 149.775a1.34 1.34 0 1 0 0-2.68 1.34 1.34 0 0 0 0 2.68zM196.972 149.775a1.34 1.34 0 1 0 0-2.68 1.34 1.34 0 0 0 0 2.68zM221.353 149.775a1.341 1.341 0 1 0 0-2.682 1.341 1.341 0 0 0 0 2.682zM245.734 149.775a1.34 1.34 0 1 0 .001-2.681 1.34 1.34 0 0 0-.001 2.681zM270.115 149.775a1.34 1.34 0 1 0 .001-2.681 1.34 1.34 0 0 0-.001 2.681zM294.497 149.775a1.34 1.34 0 1 0 0-2.68 1.34 1.34 0 0 0 0 2.68zM318.878 149.775a1.34 1.34 0 1 0 0-2.68 1.34 1.34 0 0 0 0 2.68zM343.259 149.775a1.341 1.341 0 1 0 0-2.682 1.341 1.341 0 0 0 0 2.682zM172.591 174.157a1.34 1.34 0 1 0 0-2.68 1.34 1.34 0 0 0 0 2.68zM196.972 174.157a1.34 1.34 0 1 0 0-2.68 1.34 1.34 0 0 0 0 2.68zM221.353 174.157a1.341 1.341 0 1 0 0-2.682 1.341 1.341 0 0 0 0 2.682zM245.734 174.157a1.34 1.34 0 1 0 .001-2.681 1.34 1.34 0 0 0-.001 2.681zM270.115 174.157a1.34 1.34 0 1 0 .001-2.681 1.34 1.34 0 0 0-.001 2.681zM294.497 174.157a1.34 1.34 0 1 0 0-2.68 1.34 1.34 0 0 0 0 2.68zM318.878 174.157a1.34 1.34 0 1 0 0-2.68 1.34 1.34 0 0 0 0 2.68zM343.259 174.157a1.341 1.341 0 1 0 0-2.682 1.341 1.341 0 0 0 0 2.682z" fill="#fff"/><path d="M343.341 3.482a1.34 1.34 0 1 0-.001-2.681 1.34 1.34 0 0 0 .001 2.681zM367.722 3.482a1.34 1.34 0 1 0-.001-2.681 1.34 1.34 0 0 0 .001 2.681zM392.103 3.482a1.341 1.341 0 1 0 0-2.683 1.341 1.341 0 0 0 0 2.683zM416.484 3.482a1.34 1.34 0 1 0 0-2.681 1.34 1.34 0 0 0 0 2.681zM440.865 3.482a1.34 1.34 0 1 0 0-2.681 1.34 1.34 0 0 0 0 2.681zM465.247 3.482a1.34 1.34 0 1 0-.001-2.681 1.34 1.34 0 0 0 .001 2.681zM489.628 3.482a1.34 1.34 0 1 0-.001-2.681 1.34 1.34 0 0 0 .001 2.681zM514.009 3.482a1.341 1.341 0 1 0 0-2.683 1.341 1.341 0 0 0 0 2.683zM343.341 27.864a1.34 1.34 0 1 0-.001-2.68 1.34 1.34 0 0 0 .001 2.68zM367.722 27.864a1.34 1.34 0 1 0-.001-2.68 1.34 1.34 0 0 0 .001 2.68zM392.103 27.864a1.341 1.341 0 1 0 0-2.683 1.341 1.341 0 0 0 0 2.683zM416.484 27.864a1.34 1.34 0 1 0 0-2.681 1.34 1.34 0 0 0 0 2.681zM440.865 27.864a1.34 1.34 0 1 0 0-2.681 1.34 1.34 0 0 0 0 2.681zM465.247 27.864a1.34 1.34 0 1 0-.001-2.68 1.34 1.34 0 0 0 .001 2.68zM489.628 27.864a1.34 1.34 0 1 0-.001-2.68 1.34 1.34 0 0 0 .001 2.68zM514.009 27.864a1.341 1.341 0 1 0 0-2.683 1.341 1.341 0 0 0 0 2.683zM343.341 52.246a1.34 1.34 0 1 0-.001-2.68 1.34 1.34 0 0 0 .001 2.68zM367.722 52.246a1.34 1.34 0 1 0-.001-2.68 1.34 1.34 0 0 0 .001 2.68zM392.103 52.246a1.341 1.341 0 1 0-.001-2.682 1.341 1.341 0 0 0 .001 2.682zM416.484 52.246a1.34 1.34 0 1 0 0-2.681 1.34 1.34 0 0 0 0 2.681zM440.865 52.246a1.34 1.34 0 1 0 0-2.681 1.34 1.34 0 0 0 0 2.681zM465.247 52.246a1.34 1.34 0 1 0-.001-2.68 1.34 1.34 0 0 0 .001 2.68zM489.628 52.246a1.34 1.34 0 1 0-.001-2.68 1.34 1.34 0 0 0 .001 2.68zM514.009 52.246a1.341 1.341 0 1 0-.001-2.682 1.341 1.341 0 0 0 .001 2.682zM343.341 76.629a1.34 1.34 0 1 0-.001-2.681 1.34 1.34 0 0 0 .001 2.68zM367.722 76.629a1.34 1.34 0 1 0-.001-2.681 1.34 1.34 0 0 0 .001 2.68zM392.103 76.629a1.341 1.341 0 1 0 0-2.683 1.341 1.341 0 0 0 0 2.683zM416.484 76.629a1.34 1.34 0 1 0 0-2.682 1.34 1.34 0 0 0 0 2.682zM440.865 76.629a1.34 1.34 0 1 0 0-2.682 1.34 1.34 0 0 0 0 2.682zM465.247 76.629a1.34 1.34 0 1 0-.001-2.681 1.34 1.34 0 0 0 .001 2.68zM489.628 76.629a1.34 1.34 0 1 0-.001-2.681 1.34 1.34 0 0 0 .001 2.68zM514.009 76.629a1.341 1.341 0 1 0 0-2.683 1.341 1.341 0 0 0 0 2.683zM343.341 101.011a1.341 1.341 0 1 0-.002-2.682 1.341 1.341 0 0 0 .002 2.682zM367.722 101.011a1.341 1.341 0 1 0-.002-2.682 1.341 1.341 0 0 0 .002 2.682zM392.103 101.011a1.342 1.342 0 1 0-.002-2.684 1.342 1.342 0 0 0 .002 2.684zM416.484 101.011a1.341 1.341 0 1 0 0-2.682 1.341 1.341 0 0 0 0 2.682zM440.865 101.011a1.341 1.341 0 1 0 0-2.682 1.341 1.341 0 0 0 0 2.682zM465.247 101.011a1.341 1.341 0 1 0-.002-2.682 1.341 1.341 0 0 0 .002 2.682zM489.628 101.011a1.341 1.341 0 1 0-.002-2.682 1.341 1.341 0 0 0 .002 2.682zM514.009 101.011a1.342 1.342 0 1 0-.002-2.684 1.342 1.342 0 0 0 .002 2.684zM343.341 125.393a1.34 1.34 0 1 0 0-2.68 1.34 1.34 0 0 0 0 2.68zM367.722 125.393a1.34 1.34 0 1 0 0-2.68 1.34 1.34 0 0 0 0 2.68zM392.103 125.393a1.341 1.341 0 1 0 0-2.682 1.341 1.341 0 0 0 0 2.682zM416.484 125.393a1.34 1.34 0 1 0 .001-2.681 1.34 1.34 0 0 0-.001 2.681zM440.865 125.393a1.34 1.34 0 1 0 .001-2.681 1.34 1.34 0 0 0-.001 2.681zM465.247 125.393a1.34 1.34 0 1 0 0-2.68 1.34 1.34 0 0 0 0 2.68zM489.628 125.393a1.34 1.34 0 1 0 0-2.68 1.34 1.34 0 0 0 0 2.68zM514.009 125.393a1.341 1.341 0 1 0 0-2.682 1.341 1.341 0 0 0 0 2.682zM343.341 149.775a1.34 1.34 0 1 0 0-2.68 1.34 1.34 0 0 0 0 2.68zM367.722 149.775a1.34 1.34 0 1 0 0-2.68 1.34 1.34 0 0 0 0 2.68zM392.103 149.775a1.341 1.341 0 1 0 0-2.682 1.341 1.341 0 0 0 0 2.682zM416.484 149.775a1.34 1.34 0 1 0 .001-2.681 1.34 1.34 0 0 0-.001 2.681zM440.865 149.775a1.34 1.34 0 1 0 .001-2.681 1.34 1.34 0 0 0-.001 2.681zM465.247 149.775a1.34 1.34 0 1 0 0-2.68 1.34 1.34 0 0 0 0 2.68zM489.628 149.775a1.34 1.34 0 1 0 0-2.68 1.34 1.34 0 0 0 0 2.68zM514.009 149.775a1.341 1.341 0 1 0 0-2.682 1.341 1.341 0 0 0 0 2.682zM343.341 174.157a1.34 1.34 0 1 0 0-2.68 1.34 1.34 0 0 0 0 2.68zM367.722 174.157a1.34 1.34 0 1 0 0-2.68 1.34 1.34 0 0 0 0 2.68zM392.103 174.157a1.341 1.341 0 1 0 0-2.682 1.341 1.341 0 0 0 0 2.682zM416.484 174.157a1.34 1.34 0 1 0 .001-2.681 1.34 1.34 0 0 0-.001 2.681zM440.865 174.157a1.34 1.34 0 1 0 .001-2.681 1.34 1.34 0 0 0-.001 2.681zM465.247 174.157a1.34 1.34 0 1 0 0-2.68 1.34 1.34 0 0 0 0 2.68zM489.628 174.157a1.34 1.34 0 1 0 0-2.68 1.34 1.34 0 0 0 0 2.68zM514.009 174.157a1.341 1.341 0 1 0 0-2.682 1.341 1.341 0 0 0 0 2.682z" fill="#fff"/><path d="M514.091 3.482a1.34 1.34 0 1 0-.001-2.681 1.34 1.34 0 0 0 .001 2.681zM538.472 3.482a1.34 1.34 0 1 0-.001-2.681 1.34 1.34 0 0 0 .001 2.681zM562.853 3.482a1.341 1.341 0 1 0 0-2.683 1.341 1.341 0 0 0 0 2.683zM587.234 3.482a1.34 1.34 0 1 0 0-2.681 1.34 1.34 0 0 0 0 2.681zM611.615 3.482a1.34 1.34 0 1 0 0-2.681 1.34 1.34 0 0 0 0 2.681zM635.997 3.482a1.34 1.34 0 1 0-.001-2.681 1.34 1.34 0 0 0 .001 2.681zM660.378 3.482a1.34 1.34 0 1 0-.001-2.681 1.34 1.34 0 0 0 .001 2.681zM684.759 3.482a1.341 1.341 0 1 0 0-2.683 1.341 1.341 0 0 0 0 2.683zM514.091 27.864a1.34 1.34 0 1 0-.001-2.68 1.34 1.34 0 0 0 .001 2.68zM538.472 27.864a1.34 1.34 0 1 0-.001-2.68 1.34 1.34 0 0 0 .001 2.68zM562.853 27.864a1.341 1.341 0 1 0 0-2.683 1.341 1.341 0 0 0 0 2.683zM587.234 27.864a1.34 1.34 0 1 0 0-2.681 1.34 1.34 0 0 0 0 2.681zM611.615 27.864a1.34 1.34 0 1 0 0-2.681 1.34 1.34 0 0 0 0 2.681zM635.997 27.864a1.34 1.34 0 1 0-.001-2.68 1.34 1.34 0 0 0 .001 2.68zM660.378 27.864a1.34 1.34 0 1 0-.001-2.68 1.34 1.34 0 0 0 .001 2.68zM684.759 27.864a1.341 1.341 0 1 0 0-2.683 1.341 1.341 0 0 0 0 2.683zM514.091 52.246a1.34 1.34 0 1 0-.001-2.68 1.34 1.34 0 0 0 .001 2.68zM538.472 52.246a1.34 1.34 0 1 0-.001-2.68 1.34 1.34 0 0 0 .001 2.68zM562.853 52.246a1.341 1.341 0 1 0-.001-2.682 1.341 1.341 0 0 0 .001 2.682zM587.234 52.246a1.34 1.34 0 1 0 0-2.681 1.34 1.34 0 0 0 0 2.681zM611.615 52.246a1.34 1.34 0 1 0 0-2.681 1.34 1.34 0 0 0 0 2.681zM635.997 52.246a1.34 1.34 0 1 0-.001-2.68 1.34 1.34 0 0 0 .001 2.68zM660.378 52.246a1.34 1.34 0 1 0-.001-2.68 1.34 1.34 0 0 0 .001 2.68zM684.759 52.246a1.341 1.341 0 1 0-.001-2.682 1.341 1.341 0 0 0 .001 2.682zM514.091 76.629a1.34 1.34 0 1 0-.001-2.681 1.34 1.34 0 0 0 .001 2.68zM538.472 76.629a1.34 1.34 0 1 0-.001-2.681 1.34 1.34 0 0 0 .001 2.68zM562.853 76.629a1.341 1.341 0 1 0 0-2.683 1.341 1.341 0 0 0 0 2.683zM587.234 76.629a1.34 1.34 0 1 0 0-2.682 1.34 1.34 0 0 0 0 2.682zM611.615 76.629a1.34 1.34 0 1 0 0-2.682 1.34 1.34 0 0 0 0 2.682zM635.997 76.629a1.34 1.34 0 1 0-.001-2.681 1.34 1.34 0 0 0 .001 2.68zM660.378 76.629a1.34 1.34 0 1 0-.001-2.681 1.34 1.34 0 0 0 .001 2.68zM684.759 76.629a1.341 1.341 0 1 0 0-2.683 1.341 1.341 0 0 0 0 2.683zM514.091 101.011a1.341 1.341 0 1 0-.002-2.682 1.341 1.341 0 0 0 .002 2.682zM538.472 101.011a1.341 1.341 0 1 0-.002-2.682 1.341 1.341 0 0 0 .002 2.682zM562.853 101.011a1.342 1.342 0 1 0-.002-2.684 1.342 1.342 0 0 0 .002 2.684zM587.234 101.011a1.341 1.341 0 1 0 0-2.682 1.341 1.341 0 0 0 0 2.682zM611.615 101.011a1.341 1.341 0 1 0 0-2.682 1.341 1.341 0 0 0 0 2.682zM635.997 101.011a1.341 1.341 0 1 0-.002-2.682 1.341 1.341 0 0 0 .002 2.682zM660.378 101.011a1.341 1.341 0 1 0-.002-2.682 1.341 1.341 0 0 0 .002 2.682zM684.759 101.011a1.342 1.342 0 1 0-.002-2.684 1.342 1.342 0 0 0 .002 2.684zM514.091 125.393a1.34 1.34 0 1 0 0-2.68 1.34 1.34 0 0 0 0 2.68zM538.472 125.393a1.34 1.34 0 1 0 0-2.68 1.34 1.34 0 0 0 0 2.68zM562.853 125.393a1.341 1.341 0 1 0 0-2.682 1.341 1.341 0 0 0 0 2.682zM587.234 125.393a1.34 1.34 0 1 0 .001-2.681 1.34 1.34 0 0 0-.001 2.681zM611.615 125.393a1.34 1.34 0 1 0 .001-2.681 1.34 1.34 0 0 0-.001 2.681zM635.997 125.393a1.34 1.34 0 1 0 0-2.68 1.34 1.34 0 0 0 0 2.68zM660.378 125.393a1.34 1.34 0 1 0 0-2.68 1.34 1.34 0 0 0 0 2.68zM684.759 125.393a1.341 1.341 0 1 0 0-2.682 1.341 1.341 0 0 0 0 2.682zM514.091 149.775a1.34 1.34 0 1 0 0-2.68 1.34 1.34 0 0 0 0 2.68zM538.472 149.775a1.34 1.34 0 1 0 0-2.68 1.34 1.34 0 0 0 0 2.68zM562.853 149.775a1.341 1.341 0 1 0 0-2.682 1.341 1.341 0 0 0 0 2.682zM587.234 149.775a1.34 1.34 0 1 0 .001-2.681 1.34 1.34 0 0 0-.001 2.681zM611.615 149.775a1.34 1.34 0 1 0 .001-2.681 1.34 1.34 0 0 0-.001 2.681zM635.997 149.775a1.34 1.34 0 1 0 0-2.68 1.34 1.34 0 0 0 0 2.68zM660.378 149.775a1.34 1.34 0 1 0 0-2.68 1.34 1.34 0 0 0 0 2.68zM684.759 149.775a1.341 1.341 0 1 0 0-2.682 1.341 1.341 0 0 0 0 2.682zM514.091 174.157a1.34 1.34 0 1 0 0-2.68 1.34 1.34 0 0 0 0 2.68zM538.472 174.157a1.34 1.34 0 1 0 0-2.68 1.34 1.34 0 0 0 0 2.68zM562.853 174.157a1.341 1.341 0 1 0 0-2.682 1.341 1.341 0 0 0 0 2.682zM587.234 174.157a1.34 1.34 0 1 0 .001-2.681 1.34 1.34 0 0 0-.001 2.681zM611.615 174.157a1.34 1.34 0 1 0 .001-2.681 1.34 1.34 0 0 0-.001 2.681zM635.997 174.157a1.34 1.34 0 1 0 0-2.68 1.34 1.34 0 0 0 0 2.68zM660.378 174.157a1.34 1.34 0 1 0 0-2.68 1.34 1.34 0 0 0 0 2.68zM684.759 174.157a1.341 1.341 0 1 0 0-2.682 1.341 1.341 0 0 0 0 2.682z" fill="#fff"/><path d="M1026.5 2H685l341.5 341.5V2zM1368 2h-341.5L1368 343.5V2zM172.75 172.75H2L172.75 343.5V172.75z" stroke="#fff"/><path d="M172.591 173.982a1.34 1.34 0 1 0 0-2.68 1.34 1.34 0 0 0 0 2.68zM196.972 173.982a1.34 1.34 0 1 0 0-2.68 1.34 1.34 0 0 0 0 2.68zM221.353 173.982a1.341 1.341 0 1 0 0-2.682 1.341 1.341 0 0 0 0 2.682zM245.734 173.982a1.34 1.34 0 1 0 .001-2.681 1.34 1.34 0 0 0-.001 2.681zM270.115 173.982a1.34 1.34 0 1 0 .001-2.681 1.34 1.34 0 0 0-.001 2.681zM294.497 173.982a1.34 1.34 0 1 0 0-2.68 1.34 1.34 0 0 0 0 2.68zM318.878 173.982a1.34 1.34 0 1 0 0-2.68 1.34 1.34 0 0 0 0 2.68zM343.259 173.982a1.341 1.341 0 1 0 0-2.682 1.341 1.341 0 0 0 0 2.682zM196.972 198.364a1.34 1.34 0 1 0 0-2.68 1.34 1.34 0 0 0 0 2.68zM221.353 198.364a1.341 1.341 0 1 0 0-2.682 1.341 1.341 0 0 0 0 2.682zM245.734 198.364a1.34 1.34 0 1 0 .001-2.681 1.34 1.34 0 0 0-.001 2.681zM270.115 198.364a1.34 1.34 0 1 0 .001-2.681 1.34 1.34 0 0 0-.001 2.681zM294.497 198.364a1.34 1.34 0 1 0 0-2.68 1.34 1.34 0 0 0 0 2.68zM318.878 198.364a1.34 1.34 0 1 0 0-2.68 1.34 1.34 0 0 0 0 2.68zM343.259 198.364a1.341 1.341 0 1 0 0-2.682 1.341 1.341 0 0 0 0 2.682zM221.353 222.746a1.341 1.341 0 1 0 0-2.682 1.341 1.341 0 0 0 0 2.682zM245.734 222.746a1.34 1.34 0 1 0 .001-2.681 1.34 1.34 0 0 0-.001 2.681zM270.115 222.746a1.34 1.34 0 1 0 .001-2.681 1.34 1.34 0 0 0-.001 2.681zM294.497 222.746a1.34 1.34 0 1 0 0-2.68 1.34 1.34 0 0 0 0 2.68zM318.878 222.746a1.34 1.34 0 1 0 0-2.68 1.34 1.34 0 0 0 0 2.68zM343.259 222.746a1.341 1.341 0 1 0 0-2.682 1.341 1.341 0 0 0 0 2.682zM245.734 247.129a1.341 1.341 0 1 0 0-2.682 1.341 1.341 0 0 0 0 2.682zM270.115 247.129a1.341 1.341 0 1 0 0-2.682 1.341 1.341 0 0 0 0 2.682zM294.497 247.129a1.34 1.34 0 1 0-.002-2.682 1.34 1.34 0 0 0 .002 2.682zM318.878 247.129a1.34 1.34 0 1 0-.002-2.682 1.34 1.34 0 0 0 .002 2.682zM343.259 247.129a1.342 1.342 0 1 0-.002-2.684 1.342 1.342 0 0 0 .002 2.684zM270.115 271.511a1.341 1.341 0 1 0 0-2.682 1.341 1.341 0 0 0 0 2.682zM294.497 271.511a1.34 1.34 0 1 0-.002-2.682 1.34 1.34 0 0 0 .002 2.682zM318.878 271.511a1.34 1.34 0 1 0-.002-2.682 1.34 1.34 0 0 0 .002 2.682zM343.259 271.511a1.342 1.342 0 1 0-.002-2.684 1.342 1.342 0 0 0 .002 2.684zM294.497 295.893a1.34 1.34 0 1 0 0-2.68 1.34 1.34 0 0 0 0 2.68zM318.878 295.893a1.34 1.34 0 1 0 0-2.68 1.34 1.34 0 0 0 0 2.68zM343.259 295.893a1.341 1.341 0 1 0 0-2.682 1.341 1.341 0 0 0 0 2.682zM318.878 320.275a1.34 1.34 0 1 0 0-2.68 1.34 1.34 0 0 0 0 2.68zM343.259 320.275a1.341 1.341 0 1 0 0-2.682 1.341 1.341 0 0 0 0 2.682zM343.259 344.657a1.341 1.341 0 1 0 0-2.682 1.341 1.341 0 0 0 0 2.682z" fill="#fff"/><path d="M343.341 174.232a1.34 1.34 0 1 0 0-2.68 1.34 1.34 0 0 0 0 2.68zM367.722 174.232a1.34 1.34 0 1 0 0-2.68 1.34 1.34 0 0 0 0 2.68zM392.103 174.232a1.341 1.341 0 1 0 0-2.682 1.341 1.341 0 0 0 0 2.682zM416.484 174.232a1.34 1.34 0 1 0 .001-2.681 1.34 1.34 0 0 0-.001 2.681zM440.865 174.232a1.34 1.34 0 1 0 .001-2.681 1.34 1.34 0 0 0-.001 2.681zM465.247 174.232a1.34 1.34 0 1 0 0-2.68 1.34 1.34 0 0 0 0 2.68zM489.628 174.232a1.34 1.34 0 1 0 0-2.68 1.34 1.34 0 0 0 0 2.68zM514.009 174.232a1.341 1.341 0 1 0 0-2.682 1.341 1.341 0 0 0 0 2.682zM343.341 198.614a1.34 1.34 0 1 0 0-2.68 1.34 1.34 0 0 0 0 2.68zM367.722 198.614a1.34 1.34 0 1 0 0-2.68 1.34 1.34 0 0 0 0 2.68zM392.103 198.614a1.341 1.341 0 1 0 0-2.682 1.341 1.341 0 0 0 0 2.682zM416.484 198.614a1.34 1.34 0 1 0 .001-2.681 1.34 1.34 0 0 0-.001 2.681zM440.865 198.614a1.34 1.34 0 1 0 .001-2.681 1.34 1.34 0 0 0-.001 2.681zM465.247 198.614a1.34 1.34 0 1 0 0-2.68 1.34 1.34 0 0 0 0 2.68zM489.628 198.614a1.34 1.34 0 1 0 0-2.68 1.34 1.34 0 0 0 0 2.68zM514.009 198.614a1.341 1.341 0 1 0 0-2.682 1.341 1.341 0 0 0 0 2.682zM343.341 222.996a1.34 1.34 0 1 0 0-2.68 1.34 1.34 0 0 0 0 2.68zM367.722 222.996a1.34 1.34 0 1 0 0-2.68 1.34 1.34 0 0 0 0 2.68zM392.103 222.996a1.341 1.341 0 1 0 0-2.682 1.341 1.341 0 0 0 0 2.682zM416.484 222.996a1.34 1.34 0 1 0 .001-2.681 1.34 1.34 0 0 0-.001 2.681zM440.865 222.996a1.34 1.34 0 1 0 .001-2.681 1.34 1.34 0 0 0-.001 2.681zM465.247 222.996a1.34 1.34 0 1 0 0-2.68 1.34 1.34 0 0 0 0 2.68zM489.628 222.996a1.34 1.34 0 1 0 0-2.68 1.34 1.34 0 0 0 0 2.68zM514.009 222.996a1.341 1.341 0 1 0 0-2.682 1.341 1.341 0 0 0 0 2.682zM343.341 247.379a1.34 1.34 0 1 0-.002-2.682 1.34 1.34 0 0 0 .002 2.682zM367.722 247.379a1.34 1.34 0 1 0-.002-2.682 1.34 1.34 0 0 0 .002 2.682zM392.103 247.379a1.342 1.342 0 1 0-.002-2.684 1.342 1.342 0 0 0 .002 2.684zM416.484 247.379a1.341 1.341 0 1 0 0-2.682 1.341 1.341 0 0 0 0 2.682zM440.865 247.379a1.341 1.341 0 1 0 0-2.682 1.341 1.341 0 0 0 0 2.682zM465.247 247.379a1.34 1.34 0 1 0-.002-2.682 1.34 1.34 0 0 0 .002 2.682zM489.628 247.379a1.34 1.34 0 1 0-.002-2.682 1.34 1.34 0 0 0 .002 2.682zM514.009 247.379a1.342 1.342 0 1 0-.002-2.684 1.342 1.342 0 0 0 .002 2.684zM343.341 271.761a1.34 1.34 0 1 0-.002-2.682 1.34 1.34 0 0 0 .002 2.682zM367.722 271.761a1.34 1.34 0 1 0-.002-2.682 1.34 1.34 0 0 0 .002 2.682zM392.103 271.761a1.342 1.342 0 1 0-.002-2.684 1.342 1.342 0 0 0 .002 2.684zM416.484 271.761a1.341 1.341 0 1 0 0-2.682 1.341 1.341 0 0 0 0 2.682zM440.865 271.761a1.341 1.341 0 1 0 0-2.682 1.341 1.341 0 0 0 0 2.682zM465.247 271.761a1.34 1.34 0 1 0-.002-2.682 1.34 1.34 0 0 0 .002 2.682zM489.628 271.761a1.34 1.34 0 1 0-.002-2.682 1.34 1.34 0 0 0 .002 2.682zM514.009 271.761a1.342 1.342 0 1 0-.002-2.684 1.342 1.342 0 0 0 .002 2.684zM343.341 296.143a1.34 1.34 0 1 0 0-2.68 1.34 1.34 0 0 0 0 2.68zM367.722 296.143a1.34 1.34 0 1 0 0-2.68 1.34 1.34 0 0 0 0 2.68zM392.103 296.143a1.341 1.341 0 1 0 0-2.682 1.341 1.341 0 0 0 0 2.682zM416.484 296.143a1.34 1.34 0 1 0 .001-2.681 1.34 1.34 0 0 0-.001 2.681zM440.865 296.143a1.34 1.34 0 1 0 .001-2.681 1.34 1.34 0 0 0-.001 2.681zM465.247 296.143a1.34 1.34 0 1 0 0-2.68 1.34 1.34 0 0 0 0 2.68zM489.628 296.143a1.34 1.34 0 1 0 0-2.68 1.34 1.34 0 0 0 0 2.68zM514.009 296.143a1.341 1.341 0 1 0 0-2.682 1.341 1.341 0 0 0 0 2.682zM343.341 320.525a1.34 1.34 0 1 0 0-2.68 1.34 1.34 0 0 0 0 2.68zM367.722 320.525a1.34 1.34 0 1 0 0-2.68 1.34 1.34 0 0 0 0 2.68zM392.103 320.525a1.341 1.341 0 1 0 0-2.682 1.341 1.341 0 0 0 0 2.682zM416.484 320.525a1.34 1.34 0 1 0 .001-2.681 1.34 1.34 0 0 0-.001 2.681zM440.865 320.525a1.34 1.34 0 1 0 .001-2.681 1.34 1.34 0 0 0-.001 2.681zM465.247 320.525a1.34 1.34 0 1 0 0-2.68 1.34 1.34 0 0 0 0 2.68zM489.628 320.525a1.34 1.34 0 1 0 0-2.68 1.34 1.34 0 0 0 0 2.68zM514.009 320.525a1.341 1.341 0 1 0 0-2.682 1.341 1.341 0 0 0 0 2.682zM343.341 344.907a1.34 1.34 0 1 0 0-2.68 1.34 1.34 0 0 0 0 2.68zM367.722 344.907a1.34 1.34 0 1 0 0-2.68 1.34 1.34 0 0 0 0 2.68zM392.103 344.907a1.341 1.341 0 1 0 0-2.682 1.341 1.341 0 0 0 0 2.682zM416.484 344.907a1.34 1.34 0 1 0 .001-2.681 1.34 1.34 0 0 0-.001 2.681zM440.865 344.907a1.34 1.34 0 1 0 .001-2.681 1.34 1.34 0 0 0-.001 2.681zM465.247 344.907a1.34 1.34 0 1 0 0-2.68 1.34 1.34 0 0 0 0 2.68zM489.628 344.907a1.34 1.34 0 1 0 0-2.68 1.34 1.34 0 0 0 0 2.68zM514.009 344.907a1.341 1.341 0 1 0 0-2.682 1.341 1.341 0 0 0 0 2.682z" fill="#fff"/><path d="M514.091 174.232a1.34 1.34 0 1 0 0-2.68 1.34 1.34 0 0 0 0 2.68zM538.472 174.232a1.34 1.34 0 1 0 0-2.68 1.34 1.34 0 0 0 0 2.68zM562.853 174.232a1.341 1.341 0 1 0 0-2.682 1.341 1.341 0 0 0 0 2.682zM587.234 174.232a1.34 1.34 0 1 0 .001-2.681 1.34 1.34 0 0 0-.001 2.681zM611.615 174.232a1.34 1.34 0 1 0 .001-2.681 1.34 1.34 0 0 0-.001 2.681zM635.997 174.232a1.34 1.34 0 1 0 0-2.68 1.34 1.34 0 0 0 0 2.68zM660.378 174.232a1.34 1.34 0 1 0 0-2.68 1.34 1.34 0 0 0 0 2.68zM684.759 174.232a1.341 1.341 0 1 0 0-2.682 1.341 1.341 0 0 0 0 2.682zM514.091 198.614a1.34 1.34 0 1 0 0-2.68 1.34 1.34 0 0 0 0 2.68zM538.472 198.614a1.34 1.34 0 1 0 0-2.68 1.34 1.34 0 0 0 0 2.68zM562.853 198.614a1.341 1.341 0 1 0 0-2.682 1.341 1.341 0 0 0 0 2.682zM587.234 198.614a1.34 1.34 0 1 0 .001-2.681 1.34 1.34 0 0 0-.001 2.681zM611.615 198.614a1.34 1.34 0 1 0 .001-2.681 1.34 1.34 0 0 0-.001 2.681zM635.997 198.614a1.34 1.34 0 1 0 0-2.68 1.34 1.34 0 0 0 0 2.68zM660.378 198.614a1.34 1.34 0 1 0 0-2.68 1.34 1.34 0 0 0 0 2.68zM684.759 198.614a1.341 1.341 0 1 0 0-2.682 1.341 1.341 0 0 0 0 2.682zM514.091 222.996a1.34 1.34 0 1 0 0-2.68 1.34 1.34 0 0 0 0 2.68zM538.472 222.996a1.34 1.34 0 1 0 0-2.68 1.34 1.34 0 0 0 0 2.68zM562.853 222.996a1.341 1.341 0 1 0 0-2.682 1.341 1.341 0 0 0 0 2.682zM587.234 222.996a1.34 1.34 0 1 0 .001-2.681 1.34 1.34 0 0 0-.001 2.681zM611.615 222.996a1.34 1.34 0 1 0 .001-2.681 1.34 1.34 0 0 0-.001 2.681zM635.997 222.996a1.34 1.34 0 1 0 0-2.68 1.34 1.34 0 0 0 0 2.68zM660.378 222.996a1.34 1.34 0 1 0 0-2.68 1.34 1.34 0 0 0 0 2.68zM684.759 222.996a1.341 1.341 0 1 0 0-2.682 1.341 1.341 0 0 0 0 2.682zM514.091 247.379a1.34 1.34 0 1 0-.002-2.682 1.34 1.34 0 0 0 .002 2.682zM538.472 247.379a1.34 1.34 0 1 0-.002-2.682 1.34 1.34 0 0 0 .002 2.682zM562.853 247.379a1.342 1.342 0 1 0-.002-2.684 1.342 1.342 0 0 0 .002 2.684zM587.234 247.379a1.341 1.341 0 1 0 0-2.682 1.341 1.341 0 0 0 0 2.682zM611.615 247.379a1.341 1.341 0 1 0 0-2.682 1.341 1.341 0 0 0 0 2.682zM635.997 247.379a1.34 1.34 0 1 0-.002-2.682 1.34 1.34 0 0 0 .002 2.682zM660.378 247.379a1.34 1.34 0 1 0-.002-2.682 1.34 1.34 0 0 0 .002 2.682zM684.759 247.379a1.342 1.342 0 1 0-.002-2.684 1.342 1.342 0 0 0 .002 2.684zM514.091 271.761a1.34 1.34 0 1 0-.002-2.682 1.34 1.34 0 0 0 .002 2.682zM538.472 271.761a1.34 1.34 0 1 0-.002-2.682 1.34 1.34 0 0 0 .002 2.682zM562.853 271.761a1.342 1.342 0 1 0-.002-2.684 1.342 1.342 0 0 0 .002 2.684zM587.234 271.761a1.341 1.341 0 1 0 0-2.682 1.341 1.341 0 0 0 0 2.682zM611.615 271.761a1.341 1.341 0 1 0 0-2.682 1.341 1.341 0 0 0 0 2.682zM635.997 271.761a1.34 1.34 0 1 0-.002-2.682 1.34 1.34 0 0 0 .002 2.682zM660.378 271.761a1.34 1.34 0 1 0-.002-2.682 1.34 1.34 0 0 0 .002 2.682zM684.759 271.761a1.342 1.342 0 1 0-.002-2.684 1.342 1.342 0 0 0 .002 2.684zM514.091 296.143a1.34 1.34 0 1 0 0-2.68 1.34 1.34 0 0 0 0 2.68zM538.472 296.143a1.34 1.34 0 1 0 0-2.68 1.34 1.34 0 0 0 0 2.68zM562.853 296.143a1.341 1.341 0 1 0 0-2.682 1.341 1.341 0 0 0 0 2.682zM587.234 296.143a1.34 1.34 0 1 0 .001-2.681 1.34 1.34 0 0 0-.001 2.681zM611.615 296.143a1.34 1.34 0 1 0 .001-2.681 1.34 1.34 0 0 0-.001 2.681zM635.997 296.143a1.34 1.34 0 1 0 0-2.68 1.34 1.34 0 0 0 0 2.68zM660.378 296.143a1.34 1.34 0 1 0 0-2.68 1.34 1.34 0 0 0 0 2.68zM684.759 296.143a1.341 1.341 0 1 0 0-2.682 1.341 1.341 0 0 0 0 2.682zM514.091 320.525a1.34 1.34 0 1 0 0-2.68 1.34 1.34 0 0 0 0 2.68zM538.472 320.525a1.34 1.34 0 1 0 0-2.68 1.34 1.34 0 0 0 0 2.68zM562.853 320.525a1.341 1.341 0 1 0 0-2.682 1.341 1.341 0 0 0 0 2.682zM587.234 320.525a1.34 1.34 0 1 0 .001-2.681 1.34 1.34 0 0 0-.001 2.681zM611.615 320.525a1.34 1.34 0 1 0 .001-2.681 1.34 1.34 0 0 0-.001 2.681zM635.997 320.525a1.34 1.34 0 1 0 0-2.68 1.34 1.34 0 0 0 0 2.68zM660.378 320.525a1.34 1.34 0 1 0 0-2.68 1.34 1.34 0 0 0 0 2.68zM684.759 320.525a1.341 1.341 0 1 0 0-2.682 1.341 1.341 0 0 0 0 2.682zM514.091 344.907a1.34 1.34 0 1 0 0-2.68 1.34 1.34 0 0 0 0 2.68zM538.472 344.907a1.34 1.34 0 1 0 0-2.68 1.34 1.34 0 0 0 0 2.68zM562.853 344.907a1.341 1.341 0 1 0 0-2.682 1.341 1.341 0 0 0 0 2.682zM587.234 344.907a1.34 1.34 0 1 0 .001-2.681 1.34 1.34 0 0 0-.001 2.681zM611.615 344.907a1.34 1.34 0 1 0 .001-2.681 1.34 1.34 0 0 0-.001 2.681zM635.997 344.907a1.34 1.34 0 1 0 0-2.68 1.34 1.34 0 0 0 0 2.68zM660.378 344.907a1.34 1.34 0 1 0 0-2.68 1.34 1.34 0 0 0 0 2.68zM684.759 344.907a1.341 1.341 0 1 0 0-2.682 1.341 1.341 0 0 0 0 2.682z" fill="#fff"/><path d="M172.75 343.5H2l170.75 170.75V343.5zM343.5 343.5H172.75L343.5 514.25V343.5z" stroke="#fff"/><path d="M343.341 344.732a1.34 1.34 0 1 0 0-2.68 1.34 1.34 0 0 0 0 2.68zM367.722 344.732a1.34 1.34 0 1 0 0-2.68 1.34 1.34 0 0 0 0 2.68zM392.103 344.732a1.341 1.341 0 1 0 0-2.682 1.341 1.341 0 0 0 0 2.682zM416.484 344.732a1.34 1.34 0 1 0 .001-2.681 1.34 1.34 0 0 0-.001 2.681zM440.865 344.732a1.34 1.34 0 1 0 .001-2.681 1.34 1.34 0 0 0-.001 2.681zM465.247 344.732a1.34 1.34 0 1 0 0-2.68 1.34 1.34 0 0 0 0 2.68zM489.628 344.732a1.34 1.34 0 1 0 0-2.68 1.34 1.34 0 0 0 0 2.68zM514.009 344.732a1.341 1.341 0 1 0 0-2.682 1.341 1.341 0 0 0 0 2.682zM367.722 369.114a1.34 1.34 0 1 0 0-2.68 1.34 1.34 0 0 0 0 2.68zM392.103 369.114a1.341 1.341 0 1 0 0-2.682 1.341 1.341 0 0 0 0 2.682zM416.484 369.114a1.34 1.34 0 1 0 .001-2.681 1.34 1.34 0 0 0-.001 2.681zM440.865 369.114a1.34 1.34 0 1 0 .001-2.681 1.34 1.34 0 0 0-.001 2.681zM465.247 369.114a1.34 1.34 0 1 0 0-2.68 1.34 1.34 0 0 0 0 2.68zM489.628 369.114a1.34 1.34 0 1 0 0-2.68 1.34 1.34 0 0 0 0 2.68zM514.009 369.114a1.341 1.341 0 1 0 0-2.682 1.341 1.341 0 0 0 0 2.682zM392.103 393.496a1.341 1.341 0 1 0 0-2.682 1.341 1.341 0 0 0 0 2.682zM416.484 393.496a1.34 1.34 0 1 0 .001-2.681 1.34 1.34 0 0 0-.001 2.681zM440.865 393.496a1.34 1.34 0 1 0 .001-2.681 1.34 1.34 0 0 0-.001 2.681zM465.247 393.496a1.34 1.34 0 1 0 0-2.68 1.34 1.34 0 0 0 0 2.68zM489.628 393.496a1.34 1.34 0 1 0 0-2.68 1.34 1.34 0 0 0 0 2.68zM514.009 393.496a1.341 1.341 0 1 0 0-2.682 1.341 1.341 0 0 0 0 2.682zM416.484 417.879a1.341 1.341 0 1 0 0-2.682 1.341 1.341 0 0 0 0 2.682zM440.865 417.879a1.341 1.341 0 1 0 0-2.682 1.341 1.341 0 0 0 0 2.682zM465.247 417.879a1.34 1.34 0 1 0-.002-2.682 1.34 1.34 0 0 0 .002 2.682zM489.628 417.879a1.34 1.34 0 1 0-.002-2.682 1.34 1.34 0 0 0 .002 2.682zM514.009 417.879a1.342 1.342 0 1 0-.002-2.684 1.342 1.342 0 0 0 .002 2.684zM440.865 442.261a1.341 1.341 0 1 0 0-2.682 1.341 1.341 0 0 0 0 2.682zM465.247 442.261a1.34 1.34 0 1 0-.002-2.682 1.34 1.34 0 0 0 .002 2.682zM489.628 442.261a1.34 1.34 0 1 0-.002-2.682 1.34 1.34 0 0 0 .002 2.682zM514.009 442.261a1.342 1.342 0 1 0-.002-2.684 1.342 1.342 0 0 0 .002 2.684zM465.247 466.643a1.34 1.34 0 1 0 0-2.68 1.34 1.34 0 0 0 0 2.68zM489.628 466.643a1.34 1.34 0 1 0 0-2.68 1.34 1.34 0 0 0 0 2.68zM514.009 466.643a1.341 1.341 0 1 0 0-2.682 1.341 1.341 0 0 0 0 2.682zM489.628 491.025a1.34 1.34 0 1 0 0-2.68 1.34 1.34 0 0 0 0 2.68zM514.009 491.025a1.341 1.341 0 1 0 0-2.682 1.341 1.341 0 0 0 0 2.682zM514.009 515.407a1.341 1.341 0 1 0 0-2.682 1.341 1.341 0 0 0 0 2.682z" fill="#fff"/><path d="M514.091 344.982a1.34 1.34 0 1 0 0-2.68 1.34 1.34 0 0 0 0 2.68zM538.472 344.982a1.34 1.34 0 1 0 0-2.68 1.34 1.34 0 0 0 0 2.68zM562.853 344.982a1.341 1.341 0 1 0 0-2.682 1.341 1.341 0 0 0 0 2.682zM587.234 344.982a1.34 1.34 0 1 0 .001-2.681 1.34 1.34 0 0 0-.001 2.681zM611.615 344.982a1.34 1.34 0 1 0 .001-2.681 1.34 1.34 0 0 0-.001 2.681zM635.997 344.982a1.34 1.34 0 1 0 0-2.68 1.34 1.34 0 0 0 0 2.68zM660.378 344.982a1.34 1.34 0 1 0 0-2.68 1.34 1.34 0 0 0 0 2.68zM684.759 344.982a1.341 1.341 0 1 0 0-2.682 1.341 1.341 0 0 0 0 2.682zM514.091 369.364a1.34 1.34 0 1 0 0-2.68 1.34 1.34 0 0 0 0 2.68zM538.472 369.364a1.34 1.34 0 1 0 0-2.68 1.34 1.34 0 0 0 0 2.68zM562.853 369.364a1.341 1.341 0 1 0 0-2.682 1.341 1.341 0 0 0 0 2.682zM587.234 369.364a1.34 1.34 0 1 0 .001-2.681 1.34 1.34 0 0 0-.001 2.681zM611.615 369.364a1.34 1.34 0 1 0 .001-2.681 1.34 1.34 0 0 0-.001 2.681zM635.997 369.364a1.34 1.34 0 1 0 0-2.68 1.34 1.34 0 0 0 0 2.68zM660.378 369.364a1.34 1.34 0 1 0 0-2.68 1.34 1.34 0 0 0 0 2.68zM684.759 369.364a1.341 1.341 0 1 0 0-2.682 1.341 1.341 0 0 0 0 2.682zM514.091 393.746a1.34 1.34 0 1 0 0-2.68 1.34 1.34 0 0 0 0 2.68zM538.472 393.746a1.34 1.34 0 1 0 0-2.68 1.34 1.34 0 0 0 0 2.68zM562.853 393.746a1.341 1.341 0 1 0 0-2.682 1.341 1.341 0 0 0 0 2.682zM587.234 393.746a1.34 1.34 0 1 0 .001-2.681 1.34 1.34 0 0 0-.001 2.681zM611.615 393.746a1.34 1.34 0 1 0 .001-2.681 1.34 1.34 0 0 0-.001 2.681zM635.997 393.746a1.34 1.34 0 1 0 0-2.68 1.34 1.34 0 0 0 0 2.68zM660.378 393.746a1.34 1.34 0 1 0 0-2.68 1.34 1.34 0 0 0 0 2.68zM684.759 393.746a1.341 1.341 0 1 0 0-2.682 1.341 1.341 0 0 0 0 2.682zM514.091 418.129a1.34 1.34 0 1 0-.002-2.682 1.34 1.34 0 0 0 .002 2.682zM538.472 418.129a1.34 1.34 0 1 0-.002-2.682 1.34 1.34 0 0 0 .002 2.682zM562.853 418.129a1.342 1.342 0 1 0-.002-2.684 1.342 1.342 0 0 0 .002 2.684zM587.234 418.129a1.341 1.341 0 1 0 0-2.682 1.341 1.341 0 0 0 0 2.682zM611.615 418.129a1.341 1.341 0 1 0 0-2.682 1.341 1.341 0 0 0 0 2.682zM635.997 418.129a1.34 1.34 0 1 0-.002-2.682 1.34 1.34 0 0 0 .002 2.682zM660.378 418.129a1.34 1.34 0 1 0-.002-2.682 1.34 1.34 0 0 0 .002 2.682zM684.759 418.129a1.342 1.342 0 1 0-.002-2.684 1.342 1.342 0 0 0 .002 2.684zM514.091 442.511a1.34 1.34 0 1 0-.002-2.682 1.34 1.34 0 0 0 .002 2.682zM538.472 442.511a1.34 1.34 0 1 0-.002-2.682 1.34 1.34 0 0 0 .002 2.682zM562.853 442.511a1.342 1.342 0 1 0-.002-2.684 1.342 1.342 0 0 0 .002 2.684zM587.234 442.511a1.341 1.341 0 1 0 0-2.682 1.341 1.341 0 0 0 0 2.682zM611.615 442.511a1.341 1.341 0 1 0 0-2.682 1.341 1.341 0 0 0 0 2.682zM635.997 442.511a1.34 1.34 0 1 0-.002-2.682 1.34 1.34 0 0 0 .002 2.682zM660.378 442.511a1.34 1.34 0 1 0-.002-2.682 1.34 1.34 0 0 0 .002 2.682zM684.759 442.511a1.342 1.342 0 1 0-.002-2.684 1.342 1.342 0 0 0 .002 2.684zM514.091 466.893a1.34 1.34 0 1 0 0-2.68 1.34 1.34 0 0 0 0 2.68zM538.472 466.893a1.34 1.34 0 1 0 0-2.68 1.34 1.34 0 0 0 0 2.68zM562.853 466.893a1.341 1.341 0 1 0 0-2.682 1.341 1.341 0 0 0 0 2.682zM587.234 466.893a1.34 1.34 0 1 0 .001-2.681 1.34 1.34 0 0 0-.001 2.681zM611.615 466.893a1.34 1.34 0 1 0 .001-2.681 1.34 1.34 0 0 0-.001 2.681zM635.997 466.893a1.34 1.34 0 1 0 0-2.68 1.34 1.34 0 0 0 0 2.68zM660.378 466.893a1.34 1.34 0 1 0 0-2.68 1.34 1.34 0 0 0 0 2.68zM684.759 466.893a1.341 1.341 0 1 0 0-2.682 1.341 1.341 0 0 0 0 2.682zM514.091 491.275a1.34 1.34 0 1 0 0-2.68 1.34 1.34 0 0 0 0 2.68zM538.472 491.275a1.34 1.34 0 1 0 0-2.68 1.34 1.34 0 0 0 0 2.68zM562.853 491.275a1.341 1.341 0 1 0 0-2.682 1.341 1.341 0 0 0 0 2.682zM587.234 491.275a1.34 1.34 0 1 0 .001-2.681 1.34 1.34 0 0 0-.001 2.681zM611.615 491.275a1.34 1.34 0 1 0 .001-2.681 1.34 1.34 0 0 0-.001 2.681zM635.997 491.275a1.34 1.34 0 1 0 0-2.68 1.34 1.34 0 0 0 0 2.68zM660.378 491.275a1.34 1.34 0 1 0 0-2.68 1.34 1.34 0 0 0 0 2.68zM684.759 491.275a1.341 1.341 0 1 0 0-2.682 1.341 1.341 0 0 0 0 2.682zM514.091 515.657a1.34 1.34 0 1 0 0-2.68 1.34 1.34 0 0 0 0 2.68zM538.472 515.657a1.34 1.34 0 1 0 0-2.68 1.34 1.34 0 0 0 0 2.68zM562.853 515.657a1.341 1.341 0 1 0 0-2.682 1.341 1.341 0 0 0 0 2.682zM587.234 515.657a1.34 1.34 0 1 0 .001-2.681 1.34 1.34 0 0 0-.001 2.681zM611.615 515.657a1.34 1.34 0 1 0 .001-2.681 1.34 1.34 0 0 0-.001 2.681zM635.997 515.657a1.34 1.34 0 1 0 0-2.68 1.34 1.34 0 0 0 0 2.68zM660.378 515.657a1.34 1.34 0 1 0 0-2.68 1.34 1.34 0 0 0 0 2.68zM684.759 515.657a1.341 1.341 0 1 0 0-2.682 1.341 1.341 0 0 0 0 2.682z" fill="#fff"/><path d="M684.841 344.732a1.34 1.34 0 1 0 0-2.68 1.34 1.34 0 0 0 0 2.68zM709.222 344.732a1.34 1.34 0 1 0 0-2.68 1.34 1.34 0 0 0 0 2.68zM733.603 344.732a1.341 1.341 0 1 0 0-2.682 1.341 1.341 0 0 0 0 2.682zM757.984 344.732a1.34 1.34 0 1 0 .001-2.681 1.34 1.34 0 0 0-.001 2.681zM782.365 344.732a1.34 1.34 0 1 0 .001-2.681 1.34 1.34 0 0 0-.001 2.681zM806.747 344.732a1.34 1.34 0 1 0 0-2.68 1.34 1.34 0 0 0 0 2.68zM831.128 344.732a1.34 1.34 0 1 0 0-2.68 1.34 1.34 0 0 0 0 2.68zM855.509 344.732a1.341 1.341 0 1 0 0-2.682 1.341 1.341 0 0 0 0 2.682zM709.222 369.114a1.34 1.34 0 1 0 0-2.68 1.34 1.34 0 0 0 0 2.68zM733.603 369.114a1.341 1.341 0 1 0 0-2.682 1.341 1.341 0 0 0 0 2.682zM757.984 369.114a1.34 1.34 0 1 0 .001-2.681 1.34 1.34 0 0 0-.001 2.681zM782.365 369.114a1.34 1.34 0 1 0 .001-2.681 1.34 1.34 0 0 0-.001 2.681zM806.747 369.114a1.34 1.34 0 1 0 0-2.68 1.34 1.34 0 0 0 0 2.68zM831.128 369.114a1.34 1.34 0 1 0 0-2.68 1.34 1.34 0 0 0 0 2.68zM855.509 369.114a1.341 1.341 0 1 0 0-2.682 1.341 1.341 0 0 0 0 2.682zM733.603 393.496a1.341 1.341 0 1 0 0-2.682 1.341 1.341 0 0 0 0 2.682zM757.984 393.496a1.34 1.34 0 1 0 .001-2.681 1.34 1.34 0 0 0-.001 2.681zM782.365 393.496a1.34 1.34 0 1 0 .001-2.681 1.34 1.34 0 0 0-.001 2.681zM806.747 393.496a1.34 1.34 0 1 0 0-2.68 1.34 1.34 0 0 0 0 2.68zM831.128 393.496a1.34 1.34 0 1 0 0-2.68 1.34 1.34 0 0 0 0 2.68zM855.509 393.496a1.341 1.341 0 1 0 0-2.682 1.341 1.341 0 0 0 0 2.682zM757.984 417.879a1.341 1.341 0 1 0 0-2.682 1.341 1.341 0 0 0 0 2.682zM782.365 417.879a1.341 1.341 0 1 0 0-2.682 1.341 1.341 0 0 0 0 2.682zM806.747 417.879a1.34 1.34 0 1 0-.002-2.682 1.34 1.34 0 0 0 .002 2.682zM831.128 417.879a1.34 1.34 0 1 0-.002-2.682 1.34 1.34 0 0 0 .002 2.682zM855.509 417.879a1.342 1.342 0 1 0-.002-2.684 1.342 1.342 0 0 0 .002 2.684zM782.365 442.261a1.341 1.341 0 1 0 0-2.682 1.341 1.341 0 0 0 0 2.682zM806.747 442.261a1.34 1.34 0 1 0-.002-2.682 1.34 1.34 0 0 0 .002 2.682zM831.128 442.261a1.34 1.34 0 1 0-.002-2.682 1.34 1.34 0 0 0 .002 2.682zM855.509 442.261a1.342 1.342 0 1 0-.002-2.684 1.342 1.342 0 0 0 .002 2.684zM806.747 466.643a1.34 1.34 0 1 0 0-2.68 1.34 1.34 0 0 0 0 2.68zM831.128 466.643a1.34 1.34 0 1 0 0-2.68 1.34 1.34 0 0 0 0 2.68zM855.509 466.643a1.341 1.341 0 1 0 0-2.682 1.341 1.341 0 0 0 0 2.682zM831.128 491.025a1.34 1.34 0 1 0 0-2.68 1.34 1.34 0 0 0 0 2.68zM855.509 491.025a1.341 1.341 0 1 0 0-2.682 1.341 1.341 0 0 0 0 2.682zM855.509 515.407a1.341 1.341 0 1 0 0-2.682 1.341 1.341 0 0 0 0 2.682z" fill="#fff"/><path d="M855.591 344.982a1.34 1.34 0 1 0 0-2.68 1.34 1.34 0 0 0 0 2.68zM879.972 344.982a1.34 1.34 0 1 0 0-2.68 1.34 1.34 0 0 0 0 2.68zM904.353 344.982a1.341 1.341 0 1 0 0-2.682 1.341 1.341 0 0 0 0 2.682zM928.734 344.982a1.34 1.34 0 1 0 .001-2.681 1.34 1.34 0 0 0-.001 2.681zM953.115 344.982a1.34 1.34 0 1 0 .001-2.681 1.34 1.34 0 0 0-.001 2.681zM977.497 344.982a1.34 1.34 0 1 0 0-2.68 1.34 1.34 0 0 0 0 2.68zM1001.88 344.982a1.34 1.34 0 1 0 0-2.68 1.34 1.34 0 0 0 0 2.68zM1026.26 344.982a1.34 1.34 0 1 0 0-2.68 1.34 1.34 0 0 0 0 2.68zM855.591 369.364a1.34 1.34 0 1 0 0-2.68 1.34 1.34 0 0 0 0 2.68zM879.972 369.364a1.34 1.34 0 1 0 0-2.68 1.34 1.34 0 0 0 0 2.68zM904.353 369.364a1.341 1.341 0 1 0 0-2.682 1.341 1.341 0 0 0 0 2.682zM928.734 369.364a1.34 1.34 0 1 0 .001-2.681 1.34 1.34 0 0 0-.001 2.681zM953.115 369.364a1.34 1.34 0 1 0 .001-2.681 1.34 1.34 0 0 0-.001 2.681zM977.497 369.364a1.34 1.34 0 1 0 0-2.68 1.34 1.34 0 0 0 0 2.68zM1001.88 369.364a1.34 1.34 0 1 0 0-2.68 1.34 1.34 0 0 0 0 2.68zM1026.26 369.364a1.34 1.34 0 1 0 0-2.68 1.34 1.34 0 0 0 0 2.68zM855.591 393.746a1.34 1.34 0 1 0 0-2.68 1.34 1.34 0 0 0 0 2.68zM879.972 393.746a1.34 1.34 0 1 0 0-2.68 1.34 1.34 0 0 0 0 2.68zM904.353 393.746a1.341 1.341 0 1 0 0-2.682 1.341 1.341 0 0 0 0 2.682zM928.734 393.746a1.34 1.34 0 1 0 .001-2.681 1.34 1.34 0 0 0-.001 2.681zM953.115 393.746a1.34 1.34 0 1 0 .001-2.681 1.34 1.34 0 0 0-.001 2.681zM977.497 393.746a1.34 1.34 0 1 0 0-2.68 1.34 1.34 0 0 0 0 2.68zM1001.88 393.746a1.34 1.34 0 1 0 0-2.68 1.34 1.34 0 0 0 0 2.68zM1026.26 393.746a1.34 1.34 0 1 0 0-2.68 1.34 1.34 0 0 0 0 2.68zM855.591 418.129a1.34 1.34 0 1 0-.002-2.682 1.34 1.34 0 0 0 .002 2.682zM879.972 418.129a1.34 1.34 0 1 0-.002-2.682 1.34 1.34 0 0 0 .002 2.682zM904.353 418.129a1.342 1.342 0 1 0-.002-2.684 1.342 1.342 0 0 0 .002 2.684zM928.734 418.129a1.341 1.341 0 1 0 0-2.682 1.341 1.341 0 0 0 0 2.682zM953.115 418.129a1.341 1.341 0 1 0 0-2.682 1.341 1.341 0 0 0 0 2.682zM977.497 418.129a1.34 1.34 0 1 0-.002-2.682 1.34 1.34 0 0 0 .002 2.682zM1001.88 418.129a1.34 1.34 0 1 0-.002-2.682 1.34 1.34 0 0 0 .002 2.682zM1026.26 418.129a1.34 1.34 0 1 0-.002-2.682 1.34 1.34 0 0 0 .002 2.682zM855.591 442.511a1.34 1.34 0 1 0-.002-2.682 1.34 1.34 0 0 0 .002 2.682zM879.972 442.511a1.34 1.34 0 1 0-.002-2.682 1.34 1.34 0 0 0 .002 2.682zM904.353 442.511a1.342 1.342 0 1 0-.002-2.684 1.342 1.342 0 0 0 .002 2.684zM928.734 442.511a1.341 1.341 0 1 0 0-2.682 1.341 1.341 0 0 0 0 2.682zM953.115 442.511a1.341 1.341 0 1 0 0-2.682 1.341 1.341 0 0 0 0 2.682zM977.497 442.511a1.34 1.34 0 1 0-.002-2.682 1.34 1.34 0 0 0 .002 2.682zM1001.88 442.511a1.34 1.34 0 1 0-.002-2.682 1.34 1.34 0 0 0 .002 2.682zM1026.26 442.511a1.34 1.34 0 1 0-.002-2.682 1.34 1.34 0 0 0 .002 2.682zM855.591 466.893a1.34 1.34 0 1 0 0-2.68 1.34 1.34 0 0 0 0 2.68zM879.972 466.893a1.34 1.34 0 1 0 0-2.68 1.34 1.34 0 0 0 0 2.68zM904.353 466.893a1.341 1.341 0 1 0 0-2.682 1.341 1.341 0 0 0 0 2.682zM928.734 466.893a1.34 1.34 0 1 0 .001-2.681 1.34 1.34 0 0 0-.001 2.681zM953.115 466.893a1.34 1.34 0 1 0 .001-2.681 1.34 1.34 0 0 0-.001 2.681zM977.497 466.893a1.34 1.34 0 1 0 0-2.68 1.34 1.34 0 0 0 0 2.68zM1001.88 466.893a1.34 1.34 0 1 0 0-2.68 1.34 1.34 0 0 0 0 2.68zM1026.26 466.893a1.34 1.34 0 1 0 0-2.68 1.34 1.34 0 0 0 0 2.68zM855.591 491.275a1.34 1.34 0 1 0 0-2.68 1.34 1.34 0 0 0 0 2.68zM879.972 491.275a1.34 1.34 0 1 0 0-2.68 1.34 1.34 0 0 0 0 2.68zM904.353 491.275a1.341 1.341 0 1 0 0-2.682 1.341 1.341 0 0 0 0 2.682zM928.734 491.275a1.34 1.34 0 1 0 .001-2.681 1.34 1.34 0 0 0-.001 2.681zM953.115 491.275a1.34 1.34 0 1 0 .001-2.681 1.34 1.34 0 0 0-.001 2.681zM977.497 491.275a1.34 1.34 0 1 0 0-2.68 1.34 1.34 0 0 0 0 2.68zM1001.88 491.275a1.34 1.34 0 1 0 0-2.68 1.34 1.34 0 0 0 0 2.68zM1026.26 491.275a1.34 1.34 0 1 0 0-2.68 1.34 1.34 0 0 0 0 2.68zM855.591 515.657a1.34 1.34 0 1 0 0-2.68 1.34 1.34 0 0 0 0 2.68zM879.972 515.657a1.34 1.34 0 1 0 0-2.68 1.34 1.34 0 0 0 0 2.68zM904.353 515.657a1.341 1.341 0 1 0 0-2.682 1.341 1.341 0 0 0 0 2.682zM928.734 515.657a1.34 1.34 0 1 0 .001-2.681 1.34 1.34 0 0 0-.001 2.681zM953.115 515.657a1.34 1.34 0 1 0 .001-2.681 1.34 1.34 0 0 0-.001 2.681zM977.497 515.657a1.34 1.34 0 1 0 0-2.68 1.34 1.34 0 0 0 0 2.68zM1001.88 515.657a1.34 1.34 0 1 0 0-2.68 1.34 1.34 0 0 0 0 2.68zM1026.26 515.657a1.34 1.34 0 1 0 0-2.68 1.34 1.34 0 0 0 0 2.68z" fill="#fff"/><path d="M1026.34 344.982a1.34 1.34 0 1 0 0-2.68 1.34 1.34 0 0 0 0 2.68zM1050.72 344.982a1.34 1.34 0 1 0 0-2.68 1.34 1.34 0 0 0 0 2.68zM1075.1 344.982a1.34 1.34 0 1 0 0-2.68 1.34 1.34 0 0 0 0 2.68zM1099.48 344.982a1.34 1.34 0 1 0 0-2.68 1.34 1.34 0 0 0 0 2.68zM1123.87 344.982a1.34 1.34 0 0 0 0-2.682c-.75 0-1.35.6-1.35 1.341s.6 1.341 1.35 1.341zM1148.25 344.982a1.34 1.34 0 1 0 0-2.68 1.34 1.34 0 0 0 0 2.68zM1172.63 344.982a1.34 1.34 0 1 0 0-2.68 1.34 1.34 0 0 0 0 2.68zM1197.01 344.982a1.34 1.34 0 1 0 0-2.68 1.34 1.34 0 0 0 0 2.68zM1026.34 369.364a1.34 1.34 0 1 0 0-2.68 1.34 1.34 0 0 0 0 2.68zM1050.72 369.364a1.34 1.34 0 1 0 0-2.68 1.34 1.34 0 0 0 0 2.68zM1075.1 369.364a1.34 1.34 0 1 0 0-2.68 1.34 1.34 0 0 0 0 2.68zM1099.48 369.364a1.34 1.34 0 1 0 0-2.68 1.34 1.34 0 0 0 0 2.68zM1123.87 369.364a1.34 1.34 0 0 0 0-2.682c-.75 0-1.35.601-1.35 1.341 0 .741.6 1.341 1.35 1.341zM1148.25 369.364a1.34 1.34 0 1 0 0-2.68 1.34 1.34 0 0 0 0 2.68zM1172.63 369.364a1.34 1.34 0 1 0 0-2.68 1.34 1.34 0 0 0 0 2.68zM1197.01 369.364a1.34 1.34 0 1 0 0-2.68 1.34 1.34 0 0 0 0 2.68zM1026.34 393.746a1.34 1.34 0 1 0 0-2.68 1.34 1.34 0 0 0 0 2.68zM1050.72 393.746a1.34 1.34 0 1 0 0-2.68 1.34 1.34 0 0 0 0 2.68zM1075.1 393.746a1.34 1.34 0 1 0 0-2.68 1.34 1.34 0 0 0 0 2.68zM1099.48 393.746a1.34 1.34 0 1 0 0-2.68 1.34 1.34 0 0 0 0 2.68zM1123.87 393.746a1.34 1.34 0 0 0 0-2.682c-.75 0-1.35.601-1.35 1.341 0 .741.6 1.341 1.35 1.341zM1148.25 393.746a1.34 1.34 0 1 0 0-2.68 1.34 1.34 0 0 0 0 2.68zM1172.63 393.746a1.34 1.34 0 1 0 0-2.68 1.34 1.34 0 0 0 0 2.68zM1197.01 393.746a1.34 1.34 0 1 0 0-2.68 1.34 1.34 0 0 0 0 2.68zM1026.34 418.129a1.34 1.34 0 1 0-.002-2.682 1.34 1.34 0 0 0 .002 2.682zM1050.72 418.129a1.34 1.34 0 1 0-.002-2.682 1.34 1.34 0 0 0 .002 2.682zM1075.1 418.129a1.34 1.34 0 1 0-.002-2.682 1.34 1.34 0 0 0 .002 2.682zM1099.48 418.129a1.34 1.34 0 1 0-.002-2.682 1.34 1.34 0 0 0 .002 2.682zM1123.87 418.129a1.34 1.34 0 0 0 0-2.683c-.75 0-1.35.601-1.35 1.342 0 .74.6 1.341 1.35 1.341zM1148.25 418.129a1.34 1.34 0 1 0-.002-2.682 1.34 1.34 0 0 0 .002 2.682zM1172.63 418.129a1.34 1.34 0 1 0-.002-2.682 1.34 1.34 0 0 0 .002 2.682zM1197.01 418.129a1.34 1.34 0 1 0-.002-2.682 1.34 1.34 0 0 0 .002 2.682zM1026.34 442.511a1.34 1.34 0 1 0-.002-2.682 1.34 1.34 0 0 0 .002 2.682zM1050.72 442.511a1.34 1.34 0 1 0-.002-2.682 1.34 1.34 0 0 0 .002 2.682zM1075.1 442.511a1.34 1.34 0 1 0-.002-2.682 1.34 1.34 0 0 0 .002 2.682zM1099.48 442.511a1.34 1.34 0 1 0-.002-2.682 1.34 1.34 0 0 0 .002 2.682zM1123.87 442.511a1.34 1.34 0 0 0 0-2.682c-.75 0-1.35.6-1.35 1.341 0 .74.6 1.341 1.35 1.341zM1148.25 442.511a1.34 1.34 0 1 0-.002-2.682 1.34 1.34 0 0 0 .002 2.682zM1172.63 442.511a1.34 1.34 0 1 0-.002-2.682 1.34 1.34 0 0 0 .002 2.682zM1197.01 442.511a1.34 1.34 0 1 0-.002-2.682 1.34 1.34 0 0 0 .002 2.682zM1026.34 466.893a1.34 1.34 0 1 0 0-2.68 1.34 1.34 0 0 0 0 2.68zM1050.72 466.893a1.34 1.34 0 1 0 0-2.68 1.34 1.34 0 0 0 0 2.68zM1075.1 466.893a1.34 1.34 0 1 0 0-2.68 1.34 1.34 0 0 0 0 2.68zM1099.48 466.893a1.34 1.34 0 1 0 0-2.68 1.34 1.34 0 0 0 0 2.68zM1123.87 466.893a1.34 1.34 0 0 0 0-2.682c-.75 0-1.35.6-1.35 1.341s.6 1.341 1.35 1.341zM1148.25 466.893a1.34 1.34 0 1 0 0-2.68 1.34 1.34 0 0 0 0 2.68zM1172.63 466.893a1.34 1.34 0 1 0 0-2.68 1.34 1.34 0 0 0 0 2.68zM1197.01 466.893a1.34 1.34 0 1 0 0-2.68 1.34 1.34 0 0 0 0 2.68zM1026.34 491.275a1.34 1.34 0 1 0 0-2.68 1.34 1.34 0 0 0 0 2.68zM1050.72 491.275a1.34 1.34 0 1 0 0-2.68 1.34 1.34 0 0 0 0 2.68zM1075.1 491.275a1.34 1.34 0 1 0 0-2.68 1.34 1.34 0 0 0 0 2.68zM1099.48 491.275a1.34 1.34 0 1 0 0-2.68 1.34 1.34 0 0 0 0 2.68zM1123.87 491.275a1.34 1.34 0 0 0 0-2.682c-.75 0-1.35.6-1.35 1.341s.6 1.341 1.35 1.341zM1148.25 491.275a1.34 1.34 0 1 0 0-2.68 1.34 1.34 0 0 0 0 2.68zM1172.63 491.275a1.34 1.34 0 1 0 0-2.68 1.34 1.34 0 0 0 0 2.68zM1197.01 491.275a1.34 1.34 0 1 0 0-2.68 1.34 1.34 0 0 0 0 2.68zM1026.34 515.657a1.34 1.34 0 1 0 0-2.68 1.34 1.34 0 0 0 0 2.68zM1050.72 515.657a1.34 1.34 0 1 0 0-2.68 1.34 1.34 0 0 0 0 2.68zM1075.1 515.657a1.34 1.34 0 1 0 0-2.68 1.34 1.34 0 0 0 0 2.68zM1099.48 515.657a1.34 1.34 0 1 0 0-2.68 1.34 1.34 0 0 0 0 2.68zM1123.87 515.657a1.34 1.34 0 0 0 0-2.682c-.75 0-1.35.601-1.35 1.341 0 .741.6 1.341 1.35 1.341zM1148.25 515.657a1.34 1.34 0 1 0 0-2.68 1.34 1.34 0 0 0 0 2.68zM1172.63 515.657a1.34 1.34 0 1 0 0-2.68 1.34 1.34 0 0 0 0 2.68zM1197.01 515.657a1.34 1.34 0 1 0 0-2.68 1.34 1.34 0 0 0 0 2.68z" fill="#fff"/><path d="M1368 343.5h-170.75L1368 514.25V343.5zM172.75 514.25H2L172.75 685V514.25z" stroke="#fff"/><path d="M172.591 515.482a1.34 1.34 0 1 0 0-2.68 1.34 1.34 0 0 0 0 2.68zM196.972 515.482a1.34 1.34 0 1 0 0-2.68 1.34 1.34 0 0 0 0 2.68zM221.353 515.482a1.341 1.341 0 1 0 0-2.682 1.341 1.341 0 0 0 0 2.682zM245.734 515.482a1.34 1.34 0 1 0 .001-2.681 1.34 1.34 0 0 0-.001 2.681zM270.115 515.482a1.34 1.34 0 1 0 .001-2.681 1.34 1.34 0 0 0-.001 2.681zM294.497 515.482a1.34 1.34 0 1 0 0-2.68 1.34 1.34 0 0 0 0 2.68zM318.878 515.482a1.34 1.34 0 1 0 0-2.68 1.34 1.34 0 0 0 0 2.68zM343.259 515.482a1.341 1.341 0 1 0 0-2.682 1.341 1.341 0 0 0 0 2.682zM196.972 539.864a1.34 1.34 0 1 0 0-2.68 1.34 1.34 0 0 0 0 2.68zM221.353 539.864a1.341 1.341 0 1 0 0-2.682 1.341 1.341 0 0 0 0 2.682zM245.734 539.864a1.34 1.34 0 1 0 .001-2.681 1.34 1.34 0 0 0-.001 2.681zM270.115 539.864a1.34 1.34 0 1 0 .001-2.681 1.34 1.34 0 0 0-.001 2.681zM294.497 539.864a1.34 1.34 0 1 0 0-2.68 1.34 1.34 0 0 0 0 2.68zM318.878 539.864a1.34 1.34 0 1 0 0-2.68 1.34 1.34 0 0 0 0 2.68zM343.259 539.864a1.341 1.341 0 1 0 0-2.682 1.341 1.341 0 0 0 0 2.682zM221.353 564.246a1.341 1.341 0 1 0 0-2.682 1.341 1.341 0 0 0 0 2.682zM245.734 564.246a1.34 1.34 0 1 0 .001-2.681 1.34 1.34 0 0 0-.001 2.681zM270.115 564.246a1.34 1.34 0 1 0 .001-2.681 1.34 1.34 0 0 0-.001 2.681zM294.497 564.246a1.34 1.34 0 1 0 0-2.68 1.34 1.34 0 0 0 0 2.68zM318.878 564.246a1.34 1.34 0 1 0 0-2.68 1.34 1.34 0 0 0 0 2.68zM343.259 564.246a1.341 1.341 0 1 0 0-2.682 1.341 1.341 0 0 0 0 2.682zM245.734 588.629a1.341 1.341 0 1 0 0-2.682 1.341 1.341 0 0 0 0 2.682zM270.115 588.629a1.341 1.341 0 1 0 0-2.682 1.341 1.341 0 0 0 0 2.682zM294.497 588.629a1.34 1.34 0 1 0-.002-2.682 1.34 1.34 0 0 0 .002 2.682zM318.878 588.629a1.34 1.34 0 1 0-.002-2.682 1.34 1.34 0 0 0 .002 2.682zM343.259 588.629a1.342 1.342 0 1 0-.002-2.684 1.342 1.342 0 0 0 .002 2.684zM270.115 613.011a1.341 1.341 0 1 0 0-2.682 1.341 1.341 0 0 0 0 2.682zM294.497 613.011a1.34 1.34 0 1 0-.002-2.682 1.34 1.34 0 0 0 .002 2.682zM318.878 613.011a1.34 1.34 0 1 0-.002-2.682 1.34 1.34 0 0 0 .002 2.682zM343.259 613.011a1.342 1.342 0 1 0-.002-2.684 1.342 1.342 0 0 0 .002 2.684zM294.497 637.393a1.34 1.34 0 1 0 0-2.68 1.34 1.34 0 0 0 0 2.68zM318.878 637.393a1.34 1.34 0 1 0 0-2.68 1.34 1.34 0 0 0 0 2.68zM343.259 637.393a1.341 1.341 0 1 0 0-2.682 1.341 1.341 0 0 0 0 2.682zM318.878 661.775a1.34 1.34 0 1 0 0-2.68 1.34 1.34 0 0 0 0 2.68zM343.259 661.775a1.341 1.341 0 1 0 0-2.682 1.341 1.341 0 0 0 0 2.682zM343.259 686.157a1.341 1.341 0 1 0 0-2.682 1.341 1.341 0 0 0 0 2.682z" fill="#fff"/><path d="M343.341 515.732a1.34 1.34 0 1 0 0-2.68 1.34 1.34 0 0 0 0 2.68zM367.722 515.732a1.34 1.34 0 1 0 0-2.68 1.34 1.34 0 0 0 0 2.68zM392.103 515.732a1.341 1.341 0 1 0 0-2.682 1.341 1.341 0 0 0 0 2.682zM416.484 515.732a1.34 1.34 0 1 0 .001-2.681 1.34 1.34 0 0 0-.001 2.681zM440.865 515.732a1.34 1.34 0 1 0 .001-2.681 1.34 1.34 0 0 0-.001 2.681zM465.247 515.732a1.34 1.34 0 1 0 0-2.68 1.34 1.34 0 0 0 0 2.68zM489.628 515.732a1.34 1.34 0 1 0 0-2.68 1.34 1.34 0 0 0 0 2.68zM514.009 515.732a1.341 1.341 0 1 0 0-2.682 1.341 1.341 0 0 0 0 2.682zM343.341 540.114a1.34 1.34 0 1 0 0-2.68 1.34 1.34 0 0 0 0 2.68zM367.722 540.114a1.34 1.34 0 1 0 0-2.68 1.34 1.34 0 0 0 0 2.68zM392.103 540.114a1.341 1.341 0 1 0 0-2.682 1.341 1.341 0 0 0 0 2.682zM416.484 540.114a1.34 1.34 0 1 0 .001-2.681 1.34 1.34 0 0 0-.001 2.681zM440.865 540.114a1.34 1.34 0 1 0 .001-2.681 1.34 1.34 0 0 0-.001 2.681zM465.247 540.114a1.34 1.34 0 1 0 0-2.68 1.34 1.34 0 0 0 0 2.68zM489.628 540.114a1.34 1.34 0 1 0 0-2.68 1.34 1.34 0 0 0 0 2.68zM514.009 540.114a1.341 1.341 0 1 0 0-2.682 1.341 1.341 0 0 0 0 2.682zM343.341 564.496a1.34 1.34 0 1 0 0-2.68 1.34 1.34 0 0 0 0 2.68zM367.722 564.496a1.34 1.34 0 1 0 0-2.68 1.34 1.34 0 0 0 0 2.68zM392.103 564.496a1.341 1.341 0 1 0 0-2.682 1.341 1.341 0 0 0 0 2.682zM416.484 564.496a1.34 1.34 0 1 0 .001-2.681 1.34 1.34 0 0 0-.001 2.681zM440.865 564.496a1.34 1.34 0 1 0 .001-2.681 1.34 1.34 0 0 0-.001 2.681zM465.247 564.496a1.34 1.34 0 1 0 0-2.68 1.34 1.34 0 0 0 0 2.68zM489.628 564.496a1.34 1.34 0 1 0 0-2.68 1.34 1.34 0 0 0 0 2.68zM514.009 564.496a1.341 1.341 0 1 0 0-2.682 1.341 1.341 0 0 0 0 2.682zM343.341 588.879a1.34 1.34 0 1 0-.002-2.682 1.34 1.34 0 0 0 .002 2.682zM367.722 588.879a1.34 1.34 0 1 0-.002-2.682 1.34 1.34 0 0 0 .002 2.682zM392.103 588.879a1.342 1.342 0 1 0-.002-2.684 1.342 1.342 0 0 0 .002 2.684zM416.484 588.879a1.341 1.341 0 1 0 0-2.682 1.341 1.341 0 0 0 0 2.682zM440.865 588.879a1.341 1.341 0 1 0 0-2.682 1.341 1.341 0 0 0 0 2.682zM465.247 588.879a1.34 1.34 0 1 0-.002-2.682 1.34 1.34 0 0 0 .002 2.682zM489.628 588.879a1.34 1.34 0 1 0-.002-2.682 1.34 1.34 0 0 0 .002 2.682zM514.009 588.879a1.342 1.342 0 1 0-.002-2.684 1.342 1.342 0 0 0 .002 2.684zM343.341 613.261a1.34 1.34 0 1 0-.002-2.682 1.34 1.34 0 0 0 .002 2.682zM367.722 613.261a1.34 1.34 0 1 0-.002-2.682 1.34 1.34 0 0 0 .002 2.682zM392.103 613.261a1.342 1.342 0 1 0-.002-2.684 1.342 1.342 0 0 0 .002 2.684zM416.484 613.261a1.341 1.341 0 1 0 0-2.682 1.341 1.341 0 0 0 0 2.682zM440.865 613.261a1.341 1.341 0 1 0 0-2.682 1.341 1.341 0 0 0 0 2.682zM465.247 613.261a1.34 1.34 0 1 0-.002-2.682 1.34 1.34 0 0 0 .002 2.682zM489.628 613.261a1.34 1.34 0 1 0-.002-2.682 1.34 1.34 0 0 0 .002 2.682zM514.009 613.261a1.342 1.342 0 1 0-.002-2.684 1.342 1.342 0 0 0 .002 2.684zM343.341 637.643a1.34 1.34 0 1 0 0-2.68 1.34 1.34 0 0 0 0 2.68zM367.722 637.643a1.34 1.34 0 1 0 0-2.68 1.34 1.34 0 0 0 0 2.68zM392.103 637.643a1.341 1.341 0 1 0 0-2.682 1.341 1.341 0 0 0 0 2.682zM416.484 637.643a1.34 1.34 0 1 0 .001-2.681 1.34 1.34 0 0 0-.001 2.681zM440.865 637.643a1.34 1.34 0 1 0 .001-2.681 1.34 1.34 0 0 0-.001 2.681zM465.247 637.643a1.34 1.34 0 1 0 0-2.68 1.34 1.34 0 0 0 0 2.68zM489.628 637.643a1.34 1.34 0 1 0 0-2.68 1.34 1.34 0 0 0 0 2.68zM514.009 637.643a1.341 1.341 0 1 0 0-2.682 1.341 1.341 0 0 0 0 2.682zM343.341 662.025a1.34 1.34 0 1 0 0-2.68 1.34 1.34 0 0 0 0 2.68zM367.722 662.025a1.34 1.34 0 1 0 0-2.68 1.34 1.34 0 0 0 0 2.68zM392.103 662.025a1.341 1.341 0 1 0 0-2.682 1.341 1.341 0 0 0 0 2.682zM416.484 662.025a1.34 1.34 0 1 0 .001-2.681 1.34 1.34 0 0 0-.001 2.681zM440.865 662.025a1.34 1.34 0 1 0 .001-2.681 1.34 1.34 0 0 0-.001 2.681zM465.247 662.025a1.34 1.34 0 1 0 0-2.68 1.34 1.34 0 0 0 0 2.68zM489.628 662.025a1.34 1.34 0 1 0 0-2.68 1.34 1.34 0 0 0 0 2.68zM514.009 662.025a1.341 1.341 0 1 0 0-2.682 1.341 1.341 0 0 0 0 2.682zM343.341 686.407a1.34 1.34 0 1 0 0-2.68 1.34 1.34 0 0 0 0 2.68zM367.722 686.407a1.34 1.34 0 1 0 0-2.68 1.34 1.34 0 0 0 0 2.68zM392.103 686.407a1.341 1.341 0 1 0 0-2.682 1.341 1.341 0 0 0 0 2.682zM416.484 686.407a1.34 1.34 0 1 0 .001-2.681 1.34 1.34 0 0 0-.001 2.681zM440.865 686.407a1.34 1.34 0 1 0 .001-2.681 1.34 1.34 0 0 0-.001 2.681zM465.247 686.407a1.34 1.34 0 1 0 0-2.68 1.34 1.34 0 0 0 0 2.68zM489.628 686.407a1.34 1.34 0 1 0 0-2.68 1.34 1.34 0 0 0 0 2.68zM514.009 686.407a1.341 1.341 0 1 0 0-2.682 1.341 1.341 0 0 0 0 2.682z" fill="#fff"/><path d="M514.091 515.482a1.34 1.34 0 1 0 0-2.68 1.34 1.34 0 0 0 0 2.68zM538.472 515.482a1.34 1.34 0 1 0 0-2.68 1.34 1.34 0 0 0 0 2.68zM562.853 515.482a1.341 1.341 0 1 0 0-2.682 1.341 1.341 0 0 0 0 2.682zM587.234 515.482a1.34 1.34 0 1 0 .001-2.681 1.34 1.34 0 0 0-.001 2.681zM611.615 515.482a1.34 1.34 0 1 0 .001-2.681 1.34 1.34 0 0 0-.001 2.681zM635.997 515.482a1.34 1.34 0 1 0 0-2.68 1.34 1.34 0 0 0 0 2.68zM660.378 515.482a1.34 1.34 0 1 0 0-2.68 1.34 1.34 0 0 0 0 2.68zM684.759 515.482a1.341 1.341 0 1 0 0-2.682 1.341 1.341 0 0 0 0 2.682zM538.472 539.864a1.34 1.34 0 1 0 0-2.68 1.34 1.34 0 0 0 0 2.68zM562.853 539.864a1.341 1.341 0 1 0 0-2.682 1.341 1.341 0 0 0 0 2.682zM587.234 539.864a1.34 1.34 0 1 0 .001-2.681 1.34 1.34 0 0 0-.001 2.681zM611.615 539.864a1.34 1.34 0 1 0 .001-2.681 1.34 1.34 0 0 0-.001 2.681zM635.997 539.864a1.34 1.34 0 1 0 0-2.68 1.34 1.34 0 0 0 0 2.68zM660.378 539.864a1.34 1.34 0 1 0 0-2.68 1.34 1.34 0 0 0 0 2.68zM684.759 539.864a1.341 1.341 0 1 0 0-2.682 1.341 1.341 0 0 0 0 2.682zM562.853 564.246a1.341 1.341 0 1 0 0-2.682 1.341 1.341 0 0 0 0 2.682zM587.234 564.246a1.34 1.34 0 1 0 .001-2.681 1.34 1.34 0 0 0-.001 2.681zM611.615 564.246a1.34 1.34 0 1 0 .001-2.681 1.34 1.34 0 0 0-.001 2.681zM635.997 564.246a1.34 1.34 0 1 0 0-2.68 1.34 1.34 0 0 0 0 2.68zM660.378 564.246a1.34 1.34 0 1 0 0-2.68 1.34 1.34 0 0 0 0 2.68zM684.759 564.246a1.341 1.341 0 1 0 0-2.682 1.341 1.341 0 0 0 0 2.682zM587.234 588.629a1.341 1.341 0 1 0 0-2.682 1.341 1.341 0 0 0 0 2.682zM611.615 588.629a1.341 1.341 0 1 0 0-2.682 1.341 1.341 0 0 0 0 2.682zM635.997 588.629a1.34 1.34 0 1 0-.002-2.682 1.34 1.34 0 0 0 .002 2.682zM660.378 588.629a1.34 1.34 0 1 0-.002-2.682 1.34 1.34 0 0 0 .002 2.682zM684.759 588.629a1.342 1.342 0 1 0-.002-2.684 1.342 1.342 0 0 0 .002 2.684zM611.615 613.011a1.341 1.341 0 1 0 0-2.682 1.341 1.341 0 0 0 0 2.682zM635.997 613.011a1.34 1.34 0 1 0-.002-2.682 1.34 1.34 0 0 0 .002 2.682zM660.378 613.011a1.34 1.34 0 1 0-.002-2.682 1.34 1.34 0 0 0 .002 2.682zM684.759 613.011a1.342 1.342 0 1 0-.002-2.684 1.342 1.342 0 0 0 .002 2.684zM635.997 637.393a1.34 1.34 0 1 0 0-2.68 1.34 1.34 0 0 0 0 2.68zM660.378 637.393a1.34 1.34 0 1 0 0-2.68 1.34 1.34 0 0 0 0 2.68zM684.759 637.393a1.341 1.341 0 1 0 0-2.682 1.341 1.341 0 0 0 0 2.682zM660.378 661.775a1.34 1.34 0 1 0 0-2.68 1.34 1.34 0 0 0 0 2.68zM684.759 661.775a1.341 1.341 0 1 0 0-2.682 1.341 1.341 0 0 0 0 2.682zM684.759 686.157a1.341 1.341 0 1 0 0-2.682 1.341 1.341 0 0 0 0 2.682zM855.591 515.482a1.34 1.34 0 1 0 0-2.68 1.34 1.34 0 0 0 0 2.68zM879.972 515.482a1.34 1.34 0 1 0 0-2.68 1.34 1.34 0 0 0 0 2.68zM904.353 515.482a1.341 1.341 0 1 0 0-2.682 1.341 1.341 0 0 0 0 2.682zM928.734 515.482a1.34 1.34 0 1 0 .001-2.681 1.34 1.34 0 0 0-.001 2.681zM953.115 515.482a1.34 1.34 0 1 0 .001-2.681 1.34 1.34 0 0 0-.001 2.681zM977.497 515.482a1.34 1.34 0 1 0 0-2.68 1.34 1.34 0 0 0 0 2.68zM1001.88 515.482a1.34 1.34 0 1 0 0-2.68 1.34 1.34 0 0 0 0 2.68zM1026.26 515.482a1.34 1.34 0 1 0 0-2.68 1.34 1.34 0 0 0 0 2.68zM879.972 539.864a1.34 1.34 0 1 0 0-2.68 1.34 1.34 0 0 0 0 2.68zM904.353 539.864a1.341 1.341 0 1 0 0-2.682 1.341 1.341 0 0 0 0 2.682zM928.734 539.864a1.34 1.34 0 1 0 .001-2.681 1.34 1.34 0 0 0-.001 2.681zM953.115 539.864a1.34 1.34 0 1 0 .001-2.681 1.34 1.34 0 0 0-.001 2.681zM977.497 539.864a1.34 1.34 0 1 0 0-2.68 1.34 1.34 0 0 0 0 2.68zM1001.88 539.864a1.34 1.34 0 1 0 0-2.68 1.34 1.34 0 0 0 0 2.68zM1026.26 539.864a1.34 1.34 0 1 0 0-2.68 1.34 1.34 0 0 0 0 2.68zM904.353 564.246a1.341 1.341 0 1 0 0-2.682 1.341 1.341 0 0 0 0 2.682zM928.734 564.246a1.34 1.34 0 1 0 .001-2.681 1.34 1.34 0 0 0-.001 2.681zM953.115 564.246a1.34 1.34 0 1 0 .001-2.681 1.34 1.34 0 0 0-.001 2.681zM977.497 564.246a1.34 1.34 0 1 0 0-2.68 1.34 1.34 0 0 0 0 2.68zM1001.88 564.246a1.34 1.34 0 1 0 0-2.68 1.34 1.34 0 0 0 0 2.68zM1026.26 564.246a1.34 1.34 0 1 0 0-2.68 1.34 1.34 0 0 0 0 2.68zM928.734 588.629a1.341 1.341 0 1 0 0-2.682 1.341 1.341 0 0 0 0 2.682zM953.115 588.629a1.341 1.341 0 1 0 0-2.682 1.341 1.341 0 0 0 0 2.682zM977.497 588.629a1.34 1.34 0 1 0-.002-2.682 1.34 1.34 0 0 0 .002 2.682zM1001.88 588.629a1.34 1.34 0 1 0-.002-2.682 1.34 1.34 0 0 0 .002 2.682zM1026.26 588.629a1.34 1.34 0 1 0-.002-2.682 1.34 1.34 0 0 0 .002 2.682zM953.115 613.011a1.341 1.341 0 1 0 0-2.682 1.341 1.341 0 0 0 0 2.682zM977.497 613.011a1.34 1.34 0 1 0-.002-2.682 1.34 1.34 0 0 0 .002 2.682zM1001.88 613.011a1.34 1.34 0 1 0-.002-2.682 1.34 1.34 0 0 0 .002 2.682zM1026.26 613.011a1.34 1.34 0 1 0-.002-2.682 1.34 1.34 0 0 0 .002 2.682zM977.497 637.393a1.34 1.34 0 1 0 0-2.68 1.34 1.34 0 0 0 0 2.68zM1001.88 637.393a1.34 1.34 0 1 0 0-2.68 1.34 1.34 0 0 0 0 2.68zM1026.26 637.393a1.34 1.34 0 1 0 0-2.68 1.34 1.34 0 0 0 0 2.68zM1001.88 661.775a1.34 1.34 0 1 0 0-2.68 1.34 1.34 0 0 0 0 2.68zM1026.26 661.775a1.34 1.34 0 1 0 0-2.68 1.34 1.34 0 0 0 0 2.68zM1026.26 686.157a1.34 1.34 0 1 0 0-2.68 1.34 1.34 0 0 0 0 2.68z" fill="#fff"/><path d="M1026.34 515.732a1.34 1.34 0 1 0 0-2.68 1.34 1.34 0 0 0 0 2.68zM1050.72 515.732a1.34 1.34 0 1 0 0-2.68 1.34 1.34 0 0 0 0 2.68zM1075.1 515.732a1.34 1.34 0 1 0 0-2.68 1.34 1.34 0 0 0 0 2.68zM1099.48 515.732a1.34 1.34 0 1 0 0-2.68 1.34 1.34 0 0 0 0 2.68zM1123.87 515.732a1.34 1.34 0 0 0 0-2.682c-.75 0-1.35.6-1.35 1.341s.6 1.341 1.35 1.341zM1148.25 515.732a1.34 1.34 0 1 0 0-2.68 1.34 1.34 0 0 0 0 2.68zM1172.63 515.732a1.34 1.34 0 1 0 0-2.68 1.34 1.34 0 0 0 0 2.68zM1197.01 515.732a1.34 1.34 0 1 0 0-2.68 1.34 1.34 0 0 0 0 2.68zM1026.34 540.114a1.34 1.34 0 1 0 0-2.68 1.34 1.34 0 0 0 0 2.68zM1050.72 540.114a1.34 1.34 0 1 0 0-2.68 1.34 1.34 0 0 0 0 2.68zM1075.1 540.114a1.34 1.34 0 1 0 0-2.68 1.34 1.34 0 0 0 0 2.68zM1099.48 540.114a1.34 1.34 0 1 0 0-2.68 1.34 1.34 0 0 0 0 2.68zM1123.87 540.114a1.34 1.34 0 0 0 0-2.682c-.75 0-1.35.601-1.35 1.341 0 .741.6 1.341 1.35 1.341zM1148.25 540.114a1.34 1.34 0 1 0 0-2.68 1.34 1.34 0 0 0 0 2.68zM1172.63 540.114a1.34 1.34 0 1 0 0-2.68 1.34 1.34 0 0 0 0 2.68zM1197.01 540.114a1.34 1.34 0 1 0 0-2.68 1.34 1.34 0 0 0 0 2.68zM1026.34 564.496a1.34 1.34 0 1 0 0-2.68 1.34 1.34 0 0 0 0 2.68zM1050.72 564.496a1.34 1.34 0 1 0 0-2.68 1.34 1.34 0 0 0 0 2.68zM1075.1 564.496a1.34 1.34 0 1 0 0-2.68 1.34 1.34 0 0 0 0 2.68zM1099.48 564.496a1.34 1.34 0 1 0 0-2.68 1.34 1.34 0 0 0 0 2.68zM1123.87 564.496a1.34 1.34 0 0 0 0-2.682c-.75 0-1.35.601-1.35 1.341 0 .741.6 1.341 1.35 1.341zM1148.25 564.496a1.34 1.34 0 1 0 0-2.68 1.34 1.34 0 0 0 0 2.68zM1172.63 564.496a1.34 1.34 0 1 0 0-2.68 1.34 1.34 0 0 0 0 2.68zM1197.01 564.496a1.34 1.34 0 1 0 0-2.68 1.34 1.34 0 0 0 0 2.68zM1026.34 588.879a1.34 1.34 0 1 0-.002-2.682 1.34 1.34 0 0 0 .002 2.682zM1050.72 588.879a1.34 1.34 0 1 0-.002-2.682 1.34 1.34 0 0 0 .002 2.682zM1075.1 588.879a1.34 1.34 0 1 0-.002-2.682 1.34 1.34 0 0 0 .002 2.682zM1099.48 588.879a1.34 1.34 0 1 0-.002-2.682 1.34 1.34 0 0 0 .002 2.682zM1123.87 588.879a1.34 1.34 0 0 0 0-2.683c-.75 0-1.35.601-1.35 1.342 0 .74.6 1.341 1.35 1.341zM1148.25 588.879a1.34 1.34 0 1 0-.002-2.682 1.34 1.34 0 0 0 .002 2.682zM1172.63 588.879a1.34 1.34 0 1 0-.002-2.682 1.34 1.34 0 0 0 .002 2.682zM1197.01 588.879a1.34 1.34 0 1 0-.002-2.682 1.34 1.34 0 0 0 .002 2.682zM1026.34 613.261a1.34 1.34 0 1 0-.002-2.682 1.34 1.34 0 0 0 .002 2.682zM1050.72 613.261a1.34 1.34 0 1 0-.002-2.682 1.34 1.34 0 0 0 .002 2.682zM1075.1 613.261a1.34 1.34 0 1 0-.002-2.682 1.34 1.34 0 0 0 .002 2.682zM1099.48 613.261a1.34 1.34 0 1 0-.002-2.682 1.34 1.34 0 0 0 .002 2.682zM1123.87 613.261a1.34 1.34 0 0 0 0-2.682c-.75 0-1.35.6-1.35 1.341 0 .74.6 1.341 1.35 1.341zM1148.25 613.261a1.34 1.34 0 1 0-.002-2.682 1.34 1.34 0 0 0 .002 2.682zM1172.63 613.261a1.34 1.34 0 1 0-.002-2.682 1.34 1.34 0 0 0 .002 2.682zM1197.01 613.261a1.34 1.34 0 1 0-.002-2.682 1.34 1.34 0 0 0 .002 2.682zM1026.34 637.643a1.34 1.34 0 1 0 0-2.68 1.34 1.34 0 0 0 0 2.68zM1050.72 637.643a1.34 1.34 0 1 0 0-2.68 1.34 1.34 0 0 0 0 2.68zM1075.1 637.643a1.34 1.34 0 1 0 0-2.68 1.34 1.34 0 0 0 0 2.68zM1099.48 637.643a1.34 1.34 0 1 0 0-2.68 1.34 1.34 0 0 0 0 2.68zM1123.87 637.643a1.34 1.34 0 0 0 0-2.682c-.75 0-1.35.6-1.35 1.341s.6 1.341 1.35 1.341zM1148.25 637.643a1.34 1.34 0 1 0 0-2.68 1.34 1.34 0 0 0 0 2.68zM1172.63 637.643a1.34 1.34 0 1 0 0-2.68 1.34 1.34 0 0 0 0 2.68zM1197.01 637.643a1.34 1.34 0 1 0 0-2.68 1.34 1.34 0 0 0 0 2.68zM1026.34 662.025a1.34 1.34 0 1 0 0-2.68 1.34 1.34 0 0 0 0 2.68zM1050.72 662.025a1.34 1.34 0 1 0 0-2.68 1.34 1.34 0 0 0 0 2.68zM1075.1 662.025a1.34 1.34 0 1 0 0-2.68 1.34 1.34 0 0 0 0 2.68zM1099.48 662.025a1.34 1.34 0 1 0 0-2.68 1.34 1.34 0 0 0 0 2.68zM1123.87 662.025a1.34 1.34 0 0 0 0-2.682c-.75 0-1.35.6-1.35 1.341s.6 1.341 1.35 1.341zM1148.25 662.025a1.34 1.34 0 1 0 0-2.68 1.34 1.34 0 0 0 0 2.68zM1172.63 662.025a1.34 1.34 0 1 0 0-2.68 1.34 1.34 0 0 0 0 2.68zM1197.01 662.025a1.34 1.34 0 1 0 0-2.68 1.34 1.34 0 0 0 0 2.68zM1026.34 686.407a1.34 1.34 0 1 0 0-2.68 1.34 1.34 0 0 0 0 2.68zM1050.72 686.407a1.34 1.34 0 1 0 0-2.68 1.34 1.34 0 0 0 0 2.68zM1075.1 686.407a1.34 1.34 0 1 0 0-2.68 1.34 1.34 0 0 0 0 2.68zM1099.48 686.407a1.34 1.34 0 1 0 0-2.68 1.34 1.34 0 0 0 0 2.68zM1123.87 686.407a1.34 1.34 0 0 0 0-2.682c-.75 0-1.35.601-1.35 1.341 0 .741.6 1.341 1.35 1.341zM1148.25 686.407a1.34 1.34 0 1 0 0-2.68 1.34 1.34 0 0 0 0 2.68zM1172.63 686.407a1.34 1.34 0 1 0 0-2.68 1.34 1.34 0 0 0 0 2.68zM1197.01 686.407a1.34 1.34 0 1 0 0-2.68 1.34 1.34 0 0 0 0 2.68z" fill="#fff"/><path d="M1368 514.25h-170.75L1368 685V514.25zM172.75 685H2l170.75 170.75V685zM343.5 685H172.75L343.5 855.75V685z" stroke="#fff"/><path d="M343.341 686.232a1.34 1.34 0 1 0 0-2.68 1.34 1.34 0 0 0 0 2.68zM367.722 686.232a1.34 1.34 0 1 0 0-2.68 1.34 1.34 0 0 0 0 2.68zM392.103 686.232a1.341 1.341 0 1 0 0-2.682 1.341 1.341 0 0 0 0 2.682zM416.484 686.232a1.34 1.34 0 1 0 .001-2.681 1.34 1.34 0 0 0-.001 2.681zM440.865 686.232a1.34 1.34 0 1 0 .001-2.681 1.34 1.34 0 0 0-.001 2.681zM465.247 686.232a1.34 1.34 0 1 0 0-2.68 1.34 1.34 0 0 0 0 2.68zM489.628 686.232a1.34 1.34 0 1 0 0-2.68 1.34 1.34 0 0 0 0 2.68zM514.009 686.232a1.341 1.341 0 1 0 0-2.682 1.341 1.341 0 0 0 0 2.682zM367.722 710.614a1.34 1.34 0 1 0 0-2.68 1.34 1.34 0 0 0 0 2.68zM392.103 710.614a1.341 1.341 0 1 0 0-2.682 1.341 1.341 0 0 0 0 2.682zM416.484 710.614a1.34 1.34 0 1 0 .001-2.681 1.34 1.34 0 0 0-.001 2.681zM440.865 710.614a1.34 1.34 0 1 0 .001-2.681 1.34 1.34 0 0 0-.001 2.681zM465.247 710.614a1.34 1.34 0 1 0 0-2.68 1.34 1.34 0 0 0 0 2.68zM489.628 710.614a1.34 1.34 0 1 0 0-2.68 1.34 1.34 0 0 0 0 2.68zM514.009 710.614a1.341 1.341 0 1 0 0-2.682 1.341 1.341 0 0 0 0 2.682zM392.103 734.996a1.341 1.341 0 1 0 0-2.682 1.341 1.341 0 0 0 0 2.682zM416.484 734.996a1.34 1.34 0 1 0 .001-2.681 1.34 1.34 0 0 0-.001 2.681zM440.865 734.996a1.34 1.34 0 1 0 .001-2.681 1.34 1.34 0 0 0-.001 2.681zM465.247 734.996a1.34 1.34 0 1 0 0-2.68 1.34 1.34 0 0 0 0 2.68zM489.628 734.996a1.34 1.34 0 1 0 0-2.68 1.34 1.34 0 0 0 0 2.68zM514.009 734.996a1.341 1.341 0 1 0 0-2.682 1.341 1.341 0 0 0 0 2.682zM416.484 759.379a1.341 1.341 0 1 0 0-2.682 1.341 1.341 0 0 0 0 2.682zM440.865 759.379a1.341 1.341 0 1 0 0-2.682 1.341 1.341 0 0 0 0 2.682zM465.247 759.379a1.34 1.34 0 1 0-.002-2.682 1.34 1.34 0 0 0 .002 2.682zM489.628 759.379a1.34 1.34 0 1 0-.002-2.682 1.34 1.34 0 0 0 .002 2.682zM514.009 759.379a1.342 1.342 0 1 0-.002-2.684 1.342 1.342 0 0 0 .002 2.684zM440.865 783.761a1.341 1.341 0 1 0 0-2.682 1.341 1.341 0 0 0 0 2.682zM465.247 783.761a1.34 1.34 0 1 0-.002-2.682 1.34 1.34 0 0 0 .002 2.682zM489.628 783.761a1.34 1.34 0 1 0-.002-2.682 1.34 1.34 0 0 0 .002 2.682zM514.009 783.761a1.342 1.342 0 1 0-.002-2.684 1.342 1.342 0 0 0 .002 2.684zM465.247 808.143a1.34 1.34 0 1 0 0-2.68 1.34 1.34 0 0 0 0 2.68zM489.628 808.143a1.34 1.34 0 1 0 0-2.68 1.34 1.34 0 0 0 0 2.68zM514.009 808.143a1.341 1.341 0 1 0 0-2.682 1.341 1.341 0 0 0 0 2.682zM489.628 832.525a1.34 1.34 0 1 0 0-2.68 1.34 1.34 0 0 0 0 2.68zM514.009 832.525a1.341 1.341 0 1 0 0-2.682 1.341 1.341 0 0 0 0 2.682zM514.009 856.907a1.341 1.341 0 1 0 0-2.682 1.341 1.341 0 0 0 0 2.682z" fill="#fff"/><path d="M685 685H514.25L685 855.75V685zM855.75 685H685l170.75 170.75V685zM1026.5 685H855.75l170.75 170.75V685z" stroke="#fff"/><path d="M1026.34 686.232a1.34 1.34 0 1 0 0-2.68 1.34 1.34 0 0 0 0 2.68zM1050.72 686.232a1.34 1.34 0 1 0 0-2.68 1.34 1.34 0 0 0 0 2.68zM1075.1 686.232a1.34 1.34 0 1 0 0-2.68 1.34 1.34 0 0 0 0 2.68zM1099.48 686.232a1.34 1.34 0 1 0 0-2.68 1.34 1.34 0 0 0 0 2.68zM1123.87 686.232a1.34 1.34 0 0 0 0-2.682c-.75 0-1.35.6-1.35 1.341s.6 1.341 1.35 1.341zM1148.25 686.232a1.34 1.34 0 1 0 0-2.68 1.34 1.34 0 0 0 0 2.68zM1172.63 686.232a1.34 1.34 0 1 0 0-2.68 1.34 1.34 0 0 0 0 2.68zM1197.01 686.232a1.34 1.34 0 1 0 0-2.68 1.34 1.34 0 0 0 0 2.68zM1050.72 710.614a1.34 1.34 0 1 0 0-2.68 1.34 1.34 0 0 0 0 2.68zM1075.1 710.614a1.34 1.34 0 1 0 0-2.68 1.34 1.34 0 0 0 0 2.68zM1099.48 710.614a1.34 1.34 0 1 0 0-2.68 1.34 1.34 0 0 0 0 2.68zM1123.87 710.614a1.34 1.34 0 0 0 0-2.682c-.75 0-1.35.601-1.35 1.341 0 .741.6 1.341 1.35 1.341zM1148.25 710.614a1.34 1.34 0 1 0 0-2.68 1.34 1.34 0 0 0 0 2.68zM1172.63 710.614a1.34 1.34 0 1 0 0-2.68 1.34 1.34 0 0 0 0 2.68zM1197.01 710.614a1.34 1.34 0 1 0 0-2.68 1.34 1.34 0 0 0 0 2.68zM1075.1 734.996a1.34 1.34 0 1 0 0-2.68 1.34 1.34 0 0 0 0 2.68zM1099.48 734.996a1.34 1.34 0 1 0 0-2.68 1.34 1.34 0 0 0 0 2.68zM1123.87 734.996a1.34 1.34 0 0 0 0-2.682c-.75 0-1.35.601-1.35 1.341 0 .741.6 1.341 1.35 1.341zM1148.25 734.996a1.34 1.34 0 1 0 0-2.68 1.34 1.34 0 0 0 0 2.68zM1172.63 734.996a1.34 1.34 0 1 0 0-2.68 1.34 1.34 0 0 0 0 2.68zM1197.01 734.996a1.34 1.34 0 1 0 0-2.68 1.34 1.34 0 0 0 0 2.68zM1099.48 759.379a1.34 1.34 0 1 0-.002-2.682 1.34 1.34 0 0 0 .002 2.682zM1123.87 759.379a1.34 1.34 0 0 0 0-2.683c-.75 0-1.35.601-1.35 1.342 0 .74.6 1.341 1.35 1.341zM1148.25 759.379a1.34 1.34 0 1 0-.002-2.682 1.34 1.34 0 0 0 .002 2.682zM1172.63 759.379a1.34 1.34 0 1 0-.002-2.682 1.34 1.34 0 0 0 .002 2.682zM1197.01 759.379a1.34 1.34 0 1 0-.002-2.682 1.34 1.34 0 0 0 .002 2.682zM1123.87 783.761a1.34 1.34 0 0 0 0-2.682c-.75 0-1.35.6-1.35 1.341 0 .74.6 1.341 1.35 1.341zM1148.25 783.761a1.34 1.34 0 1 0-.002-2.682 1.34 1.34 0 0 0 .002 2.682zM1172.63 783.761a1.34 1.34 0 1 0-.002-2.682 1.34 1.34 0 0 0 .002 2.682zM1197.01 783.761a1.34 1.34 0 1 0-.002-2.682 1.34 1.34 0 0 0 .002 2.682zM1148.25 808.143a1.34 1.34 0 1 0 0-2.68 1.34 1.34 0 0 0 0 2.68zM1172.63 808.143a1.34 1.34 0 1 0 0-2.68 1.34 1.34 0 0 0 0 2.68zM1197.01 808.143a1.34 1.34 0 1 0 0-2.68 1.34 1.34 0 0 0 0 2.68zM1172.63 832.525a1.34 1.34 0 1 0 0-2.68 1.34 1.34 0 0 0 0 2.68zM1197.01 832.525a1.34 1.34 0 1 0 0-2.68 1.34 1.34 0 0 0 0 2.68zM1197.01 856.907a1.34 1.34 0 1 0 0-2.68 1.34 1.34 0 0 0 0 2.68z" fill="#fff"/><path d="M1368 685h-170.75L1368 855.75V685z" stroke="#fff"/></svg>