<svg width="360" height="504" viewBox="0 0 360 504" fill="none" xmlns="../../../../www.w3.org/2000/svg.html">
<g clip-path="url(#clip0_140_348730)">
<path d="M144 0H0L144 144V0Z" stroke="#0069ff" stroke-width="0.5"/>
<path d="M216 0H144L216 72V0Z" stroke="#0069ff" stroke-width="0.5"/>
<path d="M288 0H216L288 72V0Z" stroke="#0069ff" stroke-width="0.5"/>
<path d="M216 73.0007C216.552 73.0007 217 72.5528 217 72.0004C217 71.4479 216.552 71 216 71C215.448 71 215 71.4479 215 72.0004C215 72.5528 215.448 73.0007 216 73.0007Z" fill="#0069ff"/>
<path d="M230.4 73.0007C230.952 73.0007 231.4 72.5528 231.4 72.0004C231.4 71.4479 230.952 71 230.4 71C229.848 71 229.4 71.4479 229.4 72.0004C229.4 72.5528 229.848 73.0007 230.4 73.0007Z" fill="#0069ff"/>
<path d="M244.8 73C245.352 73 245.8 72.5523 245.8 72C245.8 71.4477 245.352 71 244.8 71C244.248 71 243.8 71.4477 243.8 72C243.8 72.5523 244.248 73 244.8 73Z" fill="#0069ff"/>
<path d="M259.2 73C259.752 73 260.2 72.5523 260.2 72C260.2 71.4477 259.752 71 259.2 71C258.648 71 258.2 71.4477 258.2 72C258.2 72.5523 258.648 73 259.2 73Z" fill="#0069ff"/>
<path d="M273.6 73C274.152 73 274.6 72.5523 274.6 72C274.6 71.4477 274.152 71 273.6 71C273.048 71 272.6 71.4477 272.6 72C272.6 72.5523 273.048 73 273.6 73Z" fill="#0069ff"/>
<path d="M288 73.0007C288.552 73.0007 289 72.5528 289 72.0004C289 71.4479 288.552 71 288 71C287.448 71 287 71.4479 287 72.0004C287 72.5528 287.448 73.0007 288 73.0007Z" fill="#0069ff"/>
<path d="M230.4 87.4011C230.952 87.4011 231.4 86.9534 231.4 86.4011C231.4 85.8488 230.952 85.4011 230.4 85.4011C229.848 85.4011 229.4 85.8488 229.4 86.4011C229.4 86.9534 229.848 87.4011 230.4 87.4011Z" fill="#0069ff"/>
<path d="M244.8 87.4011C245.352 87.4011 245.8 86.9534 245.8 86.4011C245.8 85.8488 245.352 85.4011 244.8 85.4011C244.248 85.4011 243.8 85.8488 243.8 86.4011C243.8 86.9534 244.248 87.4011 244.8 87.4011Z" fill="#0069ff"/>
<path d="M259.2 87.4011C259.752 87.4011 260.2 86.9534 260.2 86.4011C260.2 85.8488 259.752 85.4011 259.2 85.4011C258.648 85.4011 258.2 85.8488 258.2 86.4011C258.2 86.9534 258.648 87.4011 259.2 87.4011Z" fill="#0069ff"/>
<path d="M273.6 87.4011C274.152 87.4011 274.6 86.9534 274.6 86.4011C274.6 85.8488 274.152 85.4011 273.6 85.4011C273.048 85.4011 272.6 85.8488 272.6 86.4011C272.6 86.9534 273.048 87.4011 273.6 87.4011Z" fill="#0069ff"/>
<path d="M288 87.4018C288.552 87.4018 289 86.954 289 86.4015C289 85.849 288.552 85.4011 288 85.4011C287.448 85.4011 287 85.849 287 86.4015C287 86.954 287.448 87.4018 288 87.4018Z" fill="#0069ff"/>
<path d="M244.8 101.802C245.352 101.802 245.8 101.355 245.8 100.802C245.8 100.25 245.352 99.8022 244.8 99.8022C244.248 99.8022 243.8 100.25 243.8 100.802C243.8 101.355 244.248 101.802 244.8 101.802Z" fill="#0069ff"/>
<path d="M259.2 101.802C259.752 101.802 260.2 101.355 260.2 100.802C260.2 100.25 259.752 99.8022 259.2 99.8022C258.648 99.8022 258.2 100.25 258.2 100.802C258.2 101.355 258.648 101.802 259.2 101.802Z" fill="#0069ff"/>
<path d="M273.6 101.802C274.152 101.802 274.6 101.355 274.6 100.802C274.6 100.25 274.152 99.8022 273.6 99.8022C273.048 99.8022 272.6 100.25 272.6 100.802C272.6 101.355 273.048 101.802 273.6 101.802Z" fill="#0069ff"/>
<path d="M288 101.803C288.552 101.803 289 101.355 289 100.803C289 100.25 288.552 99.8022 288 99.8022C287.448 99.8022 287 100.25 287 100.803C287 101.355 287.448 101.803 288 101.803Z" fill="#0069ff"/>
<path d="M259.2 116.203C259.752 116.203 260.2 115.756 260.2 115.203C260.2 114.651 259.752 114.203 259.2 114.203C258.648 114.203 258.2 114.651 258.2 115.203C258.2 115.756 258.648 116.203 259.2 116.203Z" fill="#0069ff"/>
<path d="M273.6 116.203C274.152 116.203 274.6 115.756 274.6 115.203C274.6 114.651 274.152 114.203 273.6 114.203C273.048 114.203 272.6 114.651 272.6 115.203C272.6 115.756 273.048 116.203 273.6 116.203Z" fill="#0069ff"/>
<path d="M288 116.204C288.552 116.204 289 115.756 289 115.204C289 114.651 288.552 114.203 288 114.203C287.448 114.203 287 114.651 287 115.204C287 115.756 287.448 116.204 288 116.204Z" fill="#0069ff"/>
<path d="M273.6 130.604C274.152 130.604 274.6 130.157 274.6 129.604C274.6 129.052 274.152 128.604 273.6 128.604C273.048 128.604 272.6 129.052 272.6 129.604C272.6 130.157 273.048 130.604 273.6 130.604Z" fill="#0069ff"/>
<path d="M288 130.605C288.552 130.605 289 130.157 289 129.605C289 129.052 288.552 128.604 288 128.604C287.448 128.604 287 129.052 287 129.605C287 130.157 287.448 130.605 288 130.605Z" fill="#0069ff"/>
<path d="M288 145.006C288.552 145.006 289 144.558 289 144.006C289 143.453 288.552 143.006 288 143.006C287.448 143.006 287 143.453 287 144.006C287 144.558 287.448 145.006 288 145.006Z" fill="#0069ff"/>
<path d="M288 73.0007C288.552 73.0007 289 72.5528 289 72.0004C289 71.4479 288.552 71 288 71C287.448 71 287 71.4479 287 72.0004C287 72.5528 287.448 73.0007 288 73.0007Z" fill="#0069ff"/>
<path d="M302.4 73.0007C302.952 73.0007 303.4 72.5528 303.4 72.0004C303.4 71.4479 302.952 71 302.4 71C301.848 71 301.4 71.4479 301.4 72.0004C301.4 72.5528 301.848 73.0007 302.4 73.0007Z" fill="#0069ff"/>
<path d="M316.8 73C317.352 73 317.8 72.5523 317.8 72C317.8 71.4477 317.352 71 316.8 71C316.248 71 315.8 71.4477 315.8 72C315.8 72.5523 316.248 73 316.8 73Z" fill="#0069ff"/>
<path d="M331.2 73C331.752 73 332.2 72.5523 332.2 72C332.2 71.4477 331.752 71 331.2 71C330.648 71 330.2 71.4477 330.2 72C330.2 72.5523 330.648 73 331.2 73Z" fill="#0069ff"/>
<path d="M345.6 73C346.152 73 346.6 72.5523 346.6 72C346.6 71.4477 346.152 71 345.6 71C345.048 71 344.6 71.4477 344.6 72C344.6 72.5523 345.048 73 345.6 73Z" fill="#0069ff"/>
<path d="M360 73.0007C360.552 73.0007 361 72.5528 361 72.0004C361 71.4479 360.552 71 360 71C359.448 71 359 71.4479 359 72.0004C359 72.5528 359.448 73.0007 360 73.0007Z" fill="#0069ff"/>
<path d="M288 87.4015C288.552 87.4015 289 86.9536 289 86.4011C289 85.8486 288.552 85.4008 288 85.4008C287.448 85.4008 287 85.8486 287 86.4011C287 86.9536 287.448 87.4015 288 87.4015Z" fill="#0069ff"/>
<path d="M302.4 87.4008C302.952 87.4008 303.4 86.953 303.4 86.4008C303.4 85.8485 302.952 85.4008 302.4 85.4008C301.848 85.4008 301.4 85.8485 301.4 86.4008C301.4 86.953 301.848 87.4008 302.4 87.4008Z" fill="#0069ff"/>
<path d="M316.8 87.4008C317.352 87.4008 317.8 86.953 317.8 86.4008C317.8 85.8485 317.352 85.4008 316.8 85.4008C316.248 85.4008 315.8 85.8485 315.8 86.4008C315.8 86.953 316.248 87.4008 316.8 87.4008Z" fill="#0069ff"/>
<path d="M331.2 87.4008C331.752 87.4008 332.2 86.953 332.2 86.4008C332.2 85.8485 331.752 85.4008 331.2 85.4008C330.648 85.4008 330.2 85.8485 330.2 86.4008C330.2 86.953 330.648 87.4008 331.2 87.4008Z" fill="#0069ff"/>
<path d="M345.6 87.4008C346.152 87.4008 346.6 86.953 346.6 86.4008C346.6 85.8485 346.152 85.4008 345.6 85.4008C345.048 85.4008 344.6 85.8485 344.6 86.4008C344.6 86.953 345.048 87.4008 345.6 87.4008Z" fill="#0069ff"/>
<path d="M360 87.4015C360.552 87.4015 361 86.9536 361 86.4011C361 85.8486 360.552 85.4008 360 85.4008C359.448 85.4008 359 85.8486 359 86.4011C359 86.9536 359.448 87.4015 360 87.4015Z" fill="#0069ff"/>
<path d="M288 101.802C288.552 101.802 289 101.354 289 100.802C289 100.249 288.552 99.8014 288 99.8014C287.448 99.8014 287 100.249 287 100.802C287 101.354 287.448 101.802 288 101.802Z" fill="#0069ff"/>
<path d="M302.4 101.802C302.952 101.802 303.4 101.354 303.4 100.802C303.4 100.249 302.952 99.8014 302.4 99.8014C301.848 99.8014 301.4 100.249 301.4 100.802C301.4 101.354 301.848 101.802 302.4 101.802Z" fill="#0069ff"/>
<path d="M316.8 101.801C317.352 101.801 317.8 101.354 317.8 100.801C317.8 100.249 317.352 99.8014 316.8 99.8014C316.248 99.8014 315.8 100.249 315.8 100.801C315.8 101.354 316.248 101.801 316.8 101.801Z" fill="#0069ff"/>
<path d="M331.2 101.801C331.752 101.801 332.2 101.354 332.2 100.801C332.2 100.249 331.752 99.8014 331.2 99.8014C330.648 99.8014 330.2 100.249 330.2 100.801C330.2 101.354 330.648 101.801 331.2 101.801Z" fill="#0069ff"/>
<path d="M345.6 101.801C346.152 101.801 346.6 101.354 346.6 100.801C346.6 100.249 346.152 99.8014 345.6 99.8014C345.048 99.8014 344.6 100.249 344.6 100.801C344.6 101.354 345.048 101.801 345.6 101.801Z" fill="#0069ff"/>
<path d="M360 101.802C360.552 101.802 361 101.354 361 100.802C361 100.249 360.552 99.8014 360 99.8014C359.448 99.8014 359 100.249 359 100.802C359 101.354 359.448 101.802 360 101.802Z" fill="#0069ff"/>
<path d="M288 116.203C288.552 116.203 289 115.755 289 115.203C289 114.65 288.552 114.202 288 114.202C287.448 114.202 287 114.65 287 115.203C287 115.755 287.448 116.203 288 116.203Z" fill="#0069ff"/>
<path d="M302.4 116.203C302.952 116.203 303.4 115.755 303.4 115.203C303.4 114.65 302.952 114.202 302.4 114.202C301.848 114.202 301.4 114.65 301.4 115.203C301.4 115.755 301.848 116.203 302.4 116.203Z" fill="#0069ff"/>
<path d="M316.8 116.202C317.352 116.202 317.8 115.754 317.8 115.202C317.8 114.65 317.352 114.202 316.8 114.202C316.248 114.202 315.8 114.65 315.8 115.202C315.8 115.754 316.248 116.202 316.8 116.202Z" fill="#0069ff"/>
<path d="M331.2 116.202C331.752 116.202 332.2 115.754 332.2 115.202C332.2 114.65 331.752 114.202 331.2 114.202C330.648 114.202 330.2 114.65 330.2 115.202C330.2 115.754 330.648 116.202 331.2 116.202Z" fill="#0069ff"/>
<path d="M345.6 116.202C346.152 116.202 346.6 115.754 346.6 115.202C346.6 114.65 346.152 114.202 345.6 114.202C345.048 114.202 344.6 114.65 344.6 115.202C344.6 115.754 345.048 116.202 345.6 116.202Z" fill="#0069ff"/>
<path d="M360 116.203C360.552 116.203 361 115.755 361 115.203C361 114.65 360.552 114.202 360 114.202C359.448 114.202 359 114.65 359 115.203C359 115.755 359.448 116.203 360 116.203Z" fill="#0069ff"/>
<path d="M288 130.603C288.552 130.603 289 130.156 289 129.603C289 129.051 288.552 128.603 288 128.603C287.448 128.603 287 129.051 287 129.603C287 130.156 287.448 130.603 288 130.603Z" fill="#0069ff"/>
<path d="M302.4 130.603C302.952 130.603 303.4 130.156 303.4 129.603C303.4 129.051 302.952 128.603 302.4 128.603C301.848 128.603 301.4 129.051 301.4 129.603C301.4 130.156 301.848 130.603 302.4 130.603Z" fill="#0069ff"/>
<path d="M316.8 130.603C317.352 130.603 317.8 130.155 317.8 129.603C317.8 129.05 317.352 128.603 316.8 128.603C316.248 128.603 315.8 129.05 315.8 129.603C315.8 130.155 316.248 130.603 316.8 130.603Z" fill="#0069ff"/>
<path d="M331.2 130.603C331.752 130.603 332.2 130.155 332.2 129.603C332.2 129.05 331.752 128.603 331.2 128.603C330.648 128.603 330.2 129.05 330.2 129.603C330.2 130.155 330.648 130.603 331.2 130.603Z" fill="#0069ff"/>
<path d="M345.6 130.603C346.152 130.603 346.6 130.155 346.6 129.603C346.6 129.05 346.152 128.603 345.6 128.603C345.048 128.603 344.6 129.05 344.6 129.603C344.6 130.155 345.048 130.603 345.6 130.603Z" fill="#0069ff"/>
<path d="M360 130.603C360.552 130.603 361 130.156 361 129.603C361 129.051 360.552 128.603 360 128.603C359.448 128.603 359 129.051 359 129.603C359 130.156 359.448 130.603 360 130.603Z" fill="#0069ff"/>
<path d="M288 145.004C288.552 145.004 289 144.556 289 144.004C289 143.451 288.552 143.004 288 143.004C287.448 143.004 287 143.451 287 144.004C287 144.556 287.448 145.004 288 145.004Z" fill="#0069ff"/>
<path d="M302.4 145.004C302.952 145.004 303.4 144.556 303.4 144.004C303.4 143.451 302.952 143.004 302.4 143.004C301.848 143.004 301.4 143.451 301.4 144.004C301.4 144.556 301.848 145.004 302.4 145.004Z" fill="#0069ff"/>
<path d="M316.8 145.004C317.352 145.004 317.8 144.556 317.8 144.004C317.8 143.451 317.352 143.004 316.8 143.004C316.248 143.004 315.8 143.451 315.8 144.004C315.8 144.556 316.248 145.004 316.8 145.004Z" fill="#0069ff"/>
<path d="M331.2 145.004C331.752 145.004 332.2 144.556 332.2 144.004C332.2 143.451 331.752 143.004 331.2 143.004C330.648 143.004 330.2 143.451 330.2 144.004C330.2 144.556 330.648 145.004 331.2 145.004Z" fill="#0069ff"/>
<path d="M345.6 145.004C346.152 145.004 346.6 144.556 346.6 144.004C346.6 143.451 346.152 143.004 345.6 143.004C345.048 143.004 344.6 143.451 344.6 144.004C344.6 144.556 345.048 145.004 345.6 145.004Z" fill="#0069ff"/>
<path d="M360 145.004C360.552 145.004 361 144.556 361 144.004C361 143.451 360.552 143.004 360 143.004C359.448 143.004 359 143.451 359 144.004C359 144.556 359.448 145.004 360 145.004Z" fill="#0069ff"/>
<path d="M288 144H0L288 432V144Z" stroke="#0069ff" stroke-width="0.5"/>
<path d="M288 145.001C288.552 145.001 289 144.553 289 144C289 143.448 288.552 143 288 143C287.448 143 287 143.448 287 144C287 144.553 287.448 145.001 288 145.001Z" fill="#0069ff"/>
<path d="M302.4 145.001C302.952 145.001 303.4 144.553 303.4 144C303.4 143.448 302.952 143 302.4 143C301.848 143 301.4 143.448 301.4 144C301.4 144.553 301.848 145.001 302.4 145.001Z" fill="#0069ff"/>
<path d="M316.8 145C317.352 145 317.8 144.552 317.8 144C317.8 143.448 317.352 143 316.8 143C316.248 143 315.8 143.448 315.8 144C315.8 144.552 316.248 145 316.8 145Z" fill="#0069ff"/>
<path d="M331.2 145C331.752 145 332.2 144.552 332.2 144C332.2 143.448 331.752 143 331.2 143C330.648 143 330.2 143.448 330.2 144C330.2 144.552 330.648 145 331.2 145Z" fill="#0069ff"/>
<path d="M345.6 145C346.152 145 346.6 144.552 346.6 144C346.6 143.448 346.152 143 345.6 143C345.048 143 344.6 143.448 344.6 144C344.6 144.552 345.048 145 345.6 145Z" fill="#0069ff"/>
<path d="M360 145.001C360.552 145.001 361 144.553 361 144C361 143.448 360.552 143 360 143C359.448 143 359 143.448 359 144C359 144.553 359.448 145.001 360 145.001Z" fill="#0069ff"/>
<path d="M302.4 159.401C302.952 159.401 303.4 158.953 303.4 158.401C303.4 157.849 302.952 157.401 302.4 157.401C301.848 157.401 301.4 157.849 301.4 158.401C301.4 158.953 301.848 159.401 302.4 159.401Z" fill="#0069ff"/>
<path d="M316.8 159.401C317.352 159.401 317.8 158.953 317.8 158.401C317.8 157.849 317.352 157.401 316.8 157.401C316.248 157.401 315.8 157.849 315.8 158.401C315.8 158.953 316.248 159.401 316.8 159.401Z" fill="#0069ff"/>
<path d="M331.2 159.401C331.752 159.401 332.2 158.953 332.2 158.401C332.2 157.849 331.752 157.401 331.2 157.401C330.648 157.401 330.2 157.849 330.2 158.401C330.2 158.953 330.648 159.401 331.2 159.401Z" fill="#0069ff"/>
<path d="M345.6 159.401C346.152 159.401 346.6 158.953 346.6 158.401C346.6 157.849 346.152 157.401 345.6 157.401C345.048 157.401 344.6 157.849 344.6 158.401C344.6 158.953 345.048 159.401 345.6 159.401Z" fill="#0069ff"/>
<path d="M360 159.402C360.552 159.402 361 158.954 361 158.401C361 157.849 360.552 157.401 360 157.401C359.448 157.401 359 157.849 359 158.401C359 158.954 359.448 159.402 360 159.402Z" fill="#0069ff"/>
<path d="M316.8 173.802C317.352 173.802 317.8 173.355 317.8 172.802C317.8 172.25 317.352 171.802 316.8 171.802C316.248 171.802 315.8 172.25 315.8 172.802C315.8 173.355 316.248 173.802 316.8 173.802Z" fill="#0069ff"/>
<path d="M331.2 173.802C331.752 173.802 332.2 173.355 332.2 172.802C332.2 172.25 331.752 171.802 331.2 171.802C330.648 171.802 330.2 172.25 330.2 172.802C330.2 173.355 330.648 173.802 331.2 173.802Z" fill="#0069ff"/>
<path d="M345.6 173.802C346.152 173.802 346.6 173.355 346.6 172.802C346.6 172.25 346.152 171.802 345.6 171.802C345.048 171.802 344.6 172.25 344.6 172.802C344.6 173.355 345.048 173.802 345.6 173.802Z" fill="#0069ff"/>
<path d="M360 173.803C360.552 173.803 361 173.355 361 172.803C361 172.25 360.552 171.802 360 171.802C359.448 171.802 359 172.25 359 172.803C359 173.355 359.448 173.803 360 173.803Z" fill="#0069ff"/>
<path d="M331.2 188.203C331.752 188.203 332.2 187.756 332.2 187.203C332.2 186.651 331.752 186.203 331.2 186.203C330.648 186.203 330.2 186.651 330.2 187.203C330.2 187.756 330.648 188.203 331.2 188.203Z" fill="#0069ff"/>
<path d="M345.6 188.203C346.152 188.203 346.6 187.756 346.6 187.203C346.6 186.651 346.152 186.203 345.6 186.203C345.048 186.203 344.6 186.651 344.6 187.203C344.6 187.756 345.048 188.203 345.6 188.203Z" fill="#0069ff"/>
<path d="M360 188.204C360.552 188.204 361 187.756 361 187.204C361 186.651 360.552 186.203 360 186.203C359.448 186.203 359 186.651 359 187.204C359 187.756 359.448 188.204 360 188.204Z" fill="#0069ff"/>
<path d="M345.6 202.604C346.152 202.604 346.6 202.157 346.6 201.604C346.6 201.052 346.152 200.604 345.6 200.604C345.048 200.604 344.6 201.052 344.6 201.604C344.6 202.157 345.048 202.604 345.6 202.604Z" fill="#0069ff"/>
<path d="M360 202.605C360.552 202.605 361 202.157 361 201.605C361 201.052 360.552 200.604 360 200.604C359.448 200.604 359 201.052 359 201.605C359 202.157 359.448 202.605 360 202.605Z" fill="#0069ff"/>
<path d="M360 217.006C360.552 217.006 361 216.558 361 216.006C361 215.453 360.552 215.006 360 215.006C359.448 215.006 359 215.453 359 216.006C359 216.558 359.448 217.006 360 217.006Z" fill="#0069ff"/>
<path d="M72 361.001C72.5523 361.001 73 360.553 73 360C73 359.448 72.5523 359 72 359C71.4477 359 71 359.448 71 360C71 360.553 71.4477 361.001 72 361.001Z" fill="#0069ff"/>
<path d="M86.3999 361.001C86.9522 361.001 87.3999 360.553 87.3999 360C87.3999 359.448 86.9522 359 86.3999 359C85.8476 359 85.3999 359.448 85.3999 360C85.3999 360.553 85.8476 361.001 86.3999 361.001Z" fill="#0069ff"/>
<path d="M100.8 361C101.352 361 101.8 360.552 101.8 360C101.8 359.448 101.352 359 100.8 359C100.248 359 99.8 359.448 99.8 360C99.8 360.552 100.248 361 100.8 361Z" fill="#0069ff"/>
<path d="M115.2 361C115.752 361 116.2 360.552 116.2 360C116.2 359.448 115.752 359 115.2 359C114.648 359 114.2 359.448 114.2 360C114.2 360.552 114.648 361 115.2 361Z" fill="#0069ff"/>
<path d="M129.6 361C130.152 361 130.6 360.552 130.6 360C130.6 359.448 130.152 359 129.6 359C129.048 359 128.6 359.448 128.6 360C128.6 360.552 129.048 361 129.6 361Z" fill="#0069ff"/>
<path d="M144 361.001C144.552 361.001 145 360.553 145 360C145 359.448 144.552 359 144 359C143.448 359 143 359.448 143 360C143 360.553 143.448 361.001 144 361.001Z" fill="#0069ff"/>
<path d="M86.3999 375.401C86.9522 375.401 87.3999 374.953 87.3999 374.401C87.3999 373.849 86.9522 373.401 86.3999 373.401C85.8476 373.401 85.3999 373.849 85.3999 374.401C85.3999 374.953 85.8476 375.401 86.3999 375.401Z" fill="#0069ff"/>
<path d="M100.8 375.401C101.352 375.401 101.8 374.953 101.8 374.401C101.8 373.849 101.352 373.401 100.8 373.401C100.248 373.401 99.8 373.849 99.8 374.401C99.8 374.953 100.248 375.401 100.8 375.401Z" fill="#0069ff"/>
<path d="M115.2 375.401C115.752 375.401 116.2 374.953 116.2 374.401C116.2 373.849 115.752 373.401 115.2 373.401C114.648 373.401 114.2 373.849 114.2 374.401C114.2 374.953 114.648 375.401 115.2 375.401Z" fill="#0069ff"/>
<path d="M129.6 375.401C130.152 375.401 130.6 374.953 130.6 374.401C130.6 373.849 130.152 373.401 129.6 373.401C129.048 373.401 128.6 373.849 128.6 374.401C128.6 374.953 129.048 375.401 129.6 375.401Z" fill="#0069ff"/>
<path d="M144 375.402C144.552 375.402 145 374.954 145 374.401C145 373.849 144.552 373.401 144 373.401C143.448 373.401 143 373.849 143 374.401C143 374.954 143.448 375.402 144 375.402Z" fill="#0069ff"/>
<path d="M100.8 389.802C101.352 389.802 101.8 389.355 101.8 388.802C101.8 388.25 101.352 387.802 100.8 387.802C100.248 387.802 99.8 388.25 99.8 388.802C99.8 389.355 100.248 389.802 100.8 389.802Z" fill="#0069ff"/>
<path d="M115.2 389.802C115.752 389.802 116.2 389.355 116.2 388.802C116.2 388.25 115.752 387.802 115.2 387.802C114.648 387.802 114.2 388.25 114.2 388.802C114.2 389.355 114.648 389.802 115.2 389.802Z" fill="#0069ff"/>
<path d="M129.6 389.802C130.152 389.802 130.6 389.355 130.6 388.802C130.6 388.25 130.152 387.802 129.6 387.802C129.048 387.802 128.6 388.25 128.6 388.802C128.6 389.355 129.048 389.802 129.6 389.802Z" fill="#0069ff"/>
<path d="M144 389.803C144.552 389.803 145 389.355 145 388.803C145 388.25 144.552 387.802 144 387.802C143.448 387.802 143 388.25 143 388.803C143 389.355 143.448 389.803 144 389.803Z" fill="#0069ff"/>
<path d="M115.2 404.203C115.752 404.203 116.2 403.756 116.2 403.203C116.2 402.651 115.752 402.203 115.2 402.203C114.648 402.203 114.2 402.651 114.2 403.203C114.2 403.756 114.648 404.203 115.2 404.203Z" fill="#0069ff"/>
<path d="M129.6 404.203C130.152 404.203 130.6 403.756 130.6 403.203C130.6 402.651 130.152 402.203 129.6 402.203C129.048 402.203 128.6 402.651 128.6 403.203C128.6 403.756 129.048 404.203 129.6 404.203Z" fill="#0069ff"/>
<path d="M144 404.204C144.552 404.204 145 403.756 145 403.204C145 402.651 144.552 402.203 144 402.203C143.448 402.203 143 402.651 143 403.204C143 403.756 143.448 404.204 144 404.204Z" fill="#0069ff"/>
<path d="M129.6 418.604C130.152 418.604 130.6 418.157 130.6 417.604C130.6 417.052 130.152 416.604 129.6 416.604C129.048 416.604 128.6 417.052 128.6 417.604C128.6 418.157 129.048 418.604 129.6 418.604Z" fill="#0069ff"/>
<path d="M144 418.605C144.552 418.605 145 418.157 145 417.605C145 417.052 144.552 416.604 144 416.604C143.448 416.604 143 417.052 143 417.605C143 418.157 143.448 418.605 144 418.605Z" fill="#0069ff"/>
<path d="M144 433.006C144.552 433.006 145 432.558 145 432.006C145 431.453 144.552 431.006 144 431.006C143.448 431.006 143 431.453 143 432.006C143 432.558 143.448 433.006 144 433.006Z" fill="#0069ff"/>
<path d="M144 361.001C144.552 361.001 145 360.553 145 360C145 359.448 144.552 359 144 359C143.448 359 143 359.448 143 360C143 360.553 143.448 361.001 144 361.001Z" fill="#0069ff"/>
<path d="M158.4 361.001C158.952 361.001 159.4 360.553 159.4 360C159.4 359.448 158.952 359 158.4 359C157.848 359 157.4 359.448 157.4 360C157.4 360.553 157.848 361.001 158.4 361.001Z" fill="#0069ff"/>
<path d="M172.8 361C173.352 361 173.8 360.552 173.8 360C173.8 359.448 173.352 359 172.8 359C172.248 359 171.8 359.448 171.8 360C171.8 360.552 172.248 361 172.8 361Z" fill="#0069ff"/>
<path d="M187.2 361C187.752 361 188.2 360.552 188.2 360C188.2 359.448 187.752 359 187.2 359C186.648 359 186.2 359.448 186.2 360C186.2 360.552 186.648 361 187.2 361Z" fill="#0069ff"/>
<path d="M201.6 361C202.152 361 202.6 360.552 202.6 360C202.6 359.448 202.152 359 201.6 359C201.048 359 200.6 359.448 200.6 360C200.6 360.552 201.048 361 201.6 361Z" fill="#0069ff"/>
<path d="M216 361.001C216.552 361.001 217 360.553 217 360C217 359.448 216.552 359 216 359C215.448 359 215 359.448 215 360C215 360.553 215.448 361.001 216 361.001Z" fill="#0069ff"/>
<path d="M144 375.401C144.552 375.401 145 374.954 145 374.401C145 373.849 144.552 373.401 144 373.401C143.448 373.401 143 373.849 143 374.401C143 374.954 143.448 375.401 144 375.401Z" fill="#0069ff"/>
<path d="M158.4 375.401C158.952 375.401 159.4 374.953 159.4 374.401C159.4 373.848 158.952 373.401 158.4 373.401C157.848 373.401 157.4 373.848 157.4 374.401C157.4 374.953 157.848 375.401 158.4 375.401Z" fill="#0069ff"/>
<path d="M172.8 375.401C173.352 375.401 173.8 374.953 173.8 374.401C173.8 373.848 173.352 373.401 172.8 373.401C172.248 373.401 171.8 373.848 171.8 374.401C171.8 374.953 172.248 375.401 172.8 375.401Z" fill="#0069ff"/>
<path d="M187.2 375.401C187.752 375.401 188.2 374.953 188.2 374.401C188.2 373.848 187.752 373.401 187.2 373.401C186.648 373.401 186.2 373.848 186.2 374.401C186.2 374.953 186.648 375.401 187.2 375.401Z" fill="#0069ff"/>
<path d="M201.6 375.401C202.152 375.401 202.6 374.953 202.6 374.401C202.6 373.848 202.152 373.401 201.6 373.401C201.048 373.401 200.6 373.848 200.6 374.401C200.6 374.953 201.048 375.401 201.6 375.401Z" fill="#0069ff"/>
<path d="M216 375.401C216.552 375.401 217 374.954 217 374.401C217 373.849 216.552 373.401 216 373.401C215.448 373.401 215 373.849 215 374.401C215 374.954 215.448 375.401 216 375.401Z" fill="#0069ff"/>
<path d="M144 389.802C144.552 389.802 145 389.354 145 388.802C145 388.249 144.552 387.801 144 387.801C143.448 387.801 143 388.249 143 388.802C143 389.354 143.448 389.802 144 389.802Z" fill="#0069ff"/>
<path d="M158.4 389.802C158.952 389.802 159.4 389.354 159.4 388.802C159.4 388.249 158.952 387.801 158.4 387.801C157.848 387.801 157.4 388.249 157.4 388.802C157.4 389.354 157.848 389.802 158.4 389.802Z" fill="#0069ff"/>
<path d="M172.8 389.801C173.352 389.801 173.8 389.354 173.8 388.801C173.8 388.249 173.352 387.801 172.8 387.801C172.248 387.801 171.8 388.249 171.8 388.801C171.8 389.354 172.248 389.801 172.8 389.801Z" fill="#0069ff"/>
<path d="M187.2 389.801C187.752 389.801 188.2 389.354 188.2 388.801C188.2 388.249 187.752 387.801 187.2 387.801C186.648 387.801 186.2 388.249 186.2 388.801C186.2 389.354 186.648 389.801 187.2 389.801Z" fill="#0069ff"/>
<path d="M201.6 389.801C202.152 389.801 202.6 389.354 202.6 388.801C202.6 388.249 202.152 387.801 201.6 387.801C201.048 387.801 200.6 388.249 200.6 388.801C200.6 389.354 201.048 389.801 201.6 389.801Z" fill="#0069ff"/>
<path d="M216 389.802C216.552 389.802 217 389.354 217 388.802C217 388.249 216.552 387.801 216 387.801C215.448 387.801 215 388.249 215 388.802C215 389.354 215.448 389.802 216 389.802Z" fill="#0069ff"/>
<path d="M144 404.203C144.552 404.203 145 403.755 145 403.203C145 402.65 144.552 402.202 144 402.202C143.448 402.202 143 402.65 143 403.203C143 403.755 143.448 404.203 144 404.203Z" fill="#0069ff"/>
<path d="M158.4 404.203C158.952 404.203 159.4 403.755 159.4 403.203C159.4 402.65 158.952 402.202 158.4 402.202C157.848 402.202 157.4 402.65 157.4 403.203C157.4 403.755 157.848 404.203 158.4 404.203Z" fill="#0069ff"/>
<path d="M172.8 404.202C173.352 404.202 173.8 403.754 173.8 403.202C173.8 402.65 173.352 402.202 172.8 402.202C172.248 402.202 171.8 402.65 171.8 403.202C171.8 403.754 172.248 404.202 172.8 404.202Z" fill="#0069ff"/>
<path d="M187.2 404.202C187.752 404.202 188.2 403.754 188.2 403.202C188.2 402.65 187.752 402.202 187.2 402.202C186.648 402.202 186.2 402.65 186.2 403.202C186.2 403.754 186.648 404.202 187.2 404.202Z" fill="#0069ff"/>
<path d="M201.6 404.202C202.152 404.202 202.6 403.754 202.6 403.202C202.6 402.65 202.152 402.202 201.6 402.202C201.048 402.202 200.6 402.65 200.6 403.202C200.6 403.754 201.048 404.202 201.6 404.202Z" fill="#0069ff"/>
<path d="M216 404.203C216.552 404.203 217 403.755 217 403.203C217 402.65 216.552 402.202 216 402.202C215.448 402.202 215 402.65 215 403.203C215 403.755 215.448 404.203 216 404.203Z" fill="#0069ff"/>
<path d="M144 418.603C144.552 418.603 145 418.156 145 417.603C145 417.051 144.552 416.603 144 416.603C143.448 416.603 143 417.051 143 417.603C143 418.156 143.448 418.603 144 418.603Z" fill="#0069ff"/>
<path d="M158.4 418.603C158.952 418.603 159.4 418.156 159.4 417.603C159.4 417.051 158.952 416.603 158.4 416.603C157.848 416.603 157.4 417.051 157.4 417.603C157.4 418.156 157.848 418.603 158.4 418.603Z" fill="#0069ff"/>
<path d="M172.8 418.603C173.352 418.603 173.8 418.155 173.8 417.603C173.8 417.05 173.352 416.603 172.8 416.603C172.248 416.603 171.8 417.05 171.8 417.603C171.8 418.155 172.248 418.603 172.8 418.603Z" fill="#0069ff"/>
<path d="M187.2 418.603C187.752 418.603 188.2 418.155 188.2 417.603C188.2 417.05 187.752 416.603 187.2 416.603C186.648 416.603 186.2 417.05 186.2 417.603C186.2 418.155 186.648 418.603 187.2 418.603Z" fill="#0069ff"/>
<path d="M201.6 418.603C202.152 418.603 202.6 418.155 202.6 417.603C202.6 417.05 202.152 416.603 201.6 416.603C201.048 416.603 200.6 417.05 200.6 417.603C200.6 418.155 201.048 418.603 201.6 418.603Z" fill="#0069ff"/>
<path d="M216 418.603C216.552 418.603 217 418.156 217 417.603C217 417.051 216.552 416.603 216 416.603C215.448 416.603 215 417.051 215 417.603C215 418.156 215.448 418.603 216 418.603Z" fill="#0069ff"/>
<path d="M144 433.004C144.552 433.004 145 432.556 145 432.004C145 431.451 144.552 431.004 144 431.004C143.448 431.004 143 431.451 143 432.004C143 432.556 143.448 433.004 144 433.004Z" fill="#0069ff"/>
<path d="M158.4 433.004C158.952 433.004 159.4 432.556 159.4 432.004C159.4 431.451 158.952 431.004 158.4 431.004C157.848 431.004 157.4 431.451 157.4 432.004C157.4 432.556 157.848 433.004 158.4 433.004Z" fill="#0069ff"/>
<path d="M172.8 433.004C173.352 433.004 173.8 432.556 173.8 432.004C173.8 431.451 173.352 431.004 172.8 431.004C172.248 431.004 171.8 431.451 171.8 432.004C171.8 432.556 172.248 433.004 172.8 433.004Z" fill="#0069ff"/>
<path d="M187.2 433.004C187.752 433.004 188.2 432.556 188.2 432.004C188.2 431.451 187.752 431.004 187.2 431.004C186.648 431.004 186.2 431.451 186.2 432.004C186.2 432.556 186.648 433.004 187.2 433.004Z" fill="#0069ff"/>
<path d="M201.6 433.004C202.152 433.004 202.6 432.556 202.6 432.004C202.6 431.451 202.152 431.004 201.6 431.004C201.048 431.004 200.6 431.451 200.6 432.004C200.6 432.556 201.048 433.004 201.6 433.004Z" fill="#0069ff"/>
<path d="M216 433.004C216.552 433.004 217 432.556 217 432.004C217 431.451 216.552 431.004 216 431.004C215.448 431.004 215 431.451 215 432.004C215 432.556 215.448 433.004 216 433.004Z" fill="#0069ff"/>
<path d="M360 360H288L360 432V360Z" stroke="#0069ff" stroke-width="0.5"/>
<path d="M72 432H0L72 504V432Z" stroke="#0069ff" stroke-width="0.5"/>
<path d="M144 432H72L144 504V432Z" stroke="#0069ff" stroke-width="0.5"/>
<path d="M144 433.001C144.552 433.001 145 432.553 145 432C145 431.448 144.552 431 144 431C143.448 431 143 431.448 143 432C143 432.553 143.448 433.001 144 433.001Z" fill="#0069ff"/>
<path d="M158.4 433.001C158.952 433.001 159.4 432.553 159.4 432C159.4 431.448 158.952 431 158.4 431C157.848 431 157.4 431.448 157.4 432C157.4 432.553 157.848 433.001 158.4 433.001Z" fill="#0069ff"/>
<path d="M172.8 433C173.352 433 173.8 432.552 173.8 432C173.8 431.448 173.352 431 172.8 431C172.248 431 171.8 431.448 171.8 432C171.8 432.552 172.248 433 172.8 433Z" fill="#0069ff"/>
<path d="M187.2 433C187.752 433 188.2 432.552 188.2 432C188.2 431.448 187.752 431 187.2 431C186.648 431 186.2 431.448 186.2 432C186.2 432.552 186.648 433 187.2 433Z" fill="#0069ff"/>
<path d="M201.6 433C202.152 433 202.6 432.552 202.6 432C202.6 431.448 202.152 431 201.6 431C201.048 431 200.6 431.448 200.6 432C200.6 432.552 201.048 433 201.6 433Z" fill="#0069ff"/>
<path d="M216 433.001C216.552 433.001 217 432.553 217 432C217 431.448 216.552 431 216 431C215.448 431 215 431.448 215 432C215 432.553 215.448 433.001 216 433.001Z" fill="#0069ff"/>
<path d="M158.4 447.401C158.952 447.401 159.4 446.953 159.4 446.401C159.4 445.849 158.952 445.401 158.4 445.401C157.848 445.401 157.4 445.849 157.4 446.401C157.4 446.953 157.848 447.401 158.4 447.401Z" fill="#0069ff"/>
<path d="M172.8 447.401C173.352 447.401 173.8 446.953 173.8 446.401C173.8 445.849 173.352 445.401 172.8 445.401C172.248 445.401 171.8 445.849 171.8 446.401C171.8 446.953 172.248 447.401 172.8 447.401Z" fill="#0069ff"/>
<path d="M187.2 447.401C187.752 447.401 188.2 446.953 188.2 446.401C188.2 445.849 187.752 445.401 187.2 445.401C186.648 445.401 186.2 445.849 186.2 446.401C186.2 446.953 186.648 447.401 187.2 447.401Z" fill="#0069ff"/>
<path d="M201.6 447.401C202.152 447.401 202.6 446.953 202.6 446.401C202.6 445.849 202.152 445.401 201.6 445.401C201.048 445.401 200.6 445.849 200.6 446.401C200.6 446.953 201.048 447.401 201.6 447.401Z" fill="#0069ff"/>
<path d="M216 447.402C216.552 447.402 217 446.954 217 446.401C217 445.849 216.552 445.401 216 445.401C215.448 445.401 215 445.849 215 446.401C215 446.954 215.448 447.402 216 447.402Z" fill="#0069ff"/>
<path d="M172.8 461.802C173.352 461.802 173.8 461.355 173.8 460.802C173.8 460.25 173.352 459.802 172.8 459.802C172.248 459.802 171.8 460.25 171.8 460.802C171.8 461.355 172.248 461.802 172.8 461.802Z" fill="#0069ff"/>
<path d="M187.2 461.802C187.752 461.802 188.2 461.355 188.2 460.802C188.2 460.25 187.752 459.802 187.2 459.802C186.648 459.802 186.2 460.25 186.2 460.802C186.2 461.355 186.648 461.802 187.2 461.802Z" fill="#0069ff"/>
<path d="M201.6 461.802C202.152 461.802 202.6 461.355 202.6 460.802C202.6 460.25 202.152 459.802 201.6 459.802C201.048 459.802 200.6 460.25 200.6 460.802C200.6 461.355 201.048 461.802 201.6 461.802Z" fill="#0069ff"/>
<path d="M216 461.803C216.552 461.803 217 461.355 217 460.803C217 460.25 216.552 459.802 216 459.802C215.448 459.802 215 460.25 215 460.803C215 461.355 215.448 461.803 216 461.803Z" fill="#0069ff"/>
<path d="M187.2 476.203C187.752 476.203 188.2 475.756 188.2 475.203C188.2 474.651 187.752 474.203 187.2 474.203C186.648 474.203 186.2 474.651 186.2 475.203C186.2 475.756 186.648 476.203 187.2 476.203Z" fill="#0069ff"/>
<path d="M201.6 476.203C202.152 476.203 202.6 475.756 202.6 475.203C202.6 474.651 202.152 474.203 201.6 474.203C201.048 474.203 200.6 474.651 200.6 475.203C200.6 475.756 201.048 476.203 201.6 476.203Z" fill="#0069ff"/>
<path d="M216 476.204C216.552 476.204 217 475.756 217 475.204C217 474.651 216.552 474.203 216 474.203C215.448 474.203 215 474.651 215 475.204C215 475.756 215.448 476.204 216 476.204Z" fill="#0069ff"/>
<path d="M201.6 490.604C202.152 490.604 202.6 490.157 202.6 489.604C202.6 489.052 202.152 488.604 201.6 488.604C201.048 488.604 200.6 489.052 200.6 489.604C200.6 490.157 201.048 490.604 201.6 490.604Z" fill="#0069ff"/>
<path d="M216 490.605C216.552 490.605 217 490.157 217 489.605C217 489.052 216.552 488.604 216 488.604C215.448 488.604 215 489.052 215 489.605C215 490.157 215.448 490.605 216 490.605Z" fill="#0069ff"/>
<path d="M216 505.006C216.552 505.006 217 504.558 217 504.006C217 503.453 216.552 503.006 216 503.006C215.448 503.006 215 503.453 215 504.006C215 504.558 215.448 505.006 216 505.006Z" fill="#0069ff"/>
<path d="M288 433.001C288.552 433.001 289 432.553 289 432C289 431.448 288.552 431 288 431C287.448 431 287 431.448 287 432C287 432.553 287.448 433.001 288 433.001Z" fill="#0069ff"/>
<path d="M302.4 433.001C302.952 433.001 303.4 432.553 303.4 432C303.4 431.448 302.952 431 302.4 431C301.848 431 301.4 431.448 301.4 432C301.4 432.553 301.848 433.001 302.4 433.001Z" fill="#0069ff"/>
<path d="M316.8 433C317.352 433 317.8 432.552 317.8 432C317.8 431.448 317.352 431 316.8 431C316.248 431 315.8 431.448 315.8 432C315.8 432.552 316.248 433 316.8 433Z" fill="#0069ff"/>
<path d="M331.2 433C331.752 433 332.2 432.552 332.2 432C332.2 431.448 331.752 431 331.2 431C330.648 431 330.2 431.448 330.2 432C330.2 432.552 330.648 433 331.2 433Z" fill="#0069ff"/>
<path d="M345.6 433C346.152 433 346.6 432.552 346.6 432C346.6 431.448 346.152 431 345.6 431C345.048 431 344.6 431.448 344.6 432C344.6 432.552 345.048 433 345.6 433Z" fill="#0069ff"/>
<path d="M360 433.001C360.552 433.001 361 432.553 361 432C361 431.448 360.552 431 360 431C359.448 431 359 431.448 359 432C359 432.553 359.448 433.001 360 433.001Z" fill="#0069ff"/>
<path d="M302.4 447.401C302.952 447.401 303.4 446.953 303.4 446.401C303.4 445.849 302.952 445.401 302.4 445.401C301.848 445.401 301.4 445.849 301.4 446.401C301.4 446.953 301.848 447.401 302.4 447.401Z" fill="#0069ff"/>
<path d="M316.8 447.401C317.352 447.401 317.8 446.953 317.8 446.401C317.8 445.849 317.352 445.401 316.8 445.401C316.248 445.401 315.8 445.849 315.8 446.401C315.8 446.953 316.248 447.401 316.8 447.401Z" fill="#0069ff"/>
<path d="M331.2 447.401C331.752 447.401 332.2 446.953 332.2 446.401C332.2 445.849 331.752 445.401 331.2 445.401C330.648 445.401 330.2 445.849 330.2 446.401C330.2 446.953 330.648 447.401 331.2 447.401Z" fill="#0069ff"/>
<path d="M345.6 447.401C346.152 447.401 346.6 446.953 346.6 446.401C346.6 445.849 346.152 445.401 345.6 445.401C345.048 445.401 344.6 445.849 344.6 446.401C344.6 446.953 345.048 447.401 345.6 447.401Z" fill="#0069ff"/>
<path d="M360 447.402C360.552 447.402 361 446.954 361 446.401C361 445.849 360.552 445.401 360 445.401C359.448 445.401 359 445.849 359 446.401C359 446.954 359.448 447.402 360 447.402Z" fill="#0069ff"/>
<path d="M316.8 461.802C317.352 461.802 317.8 461.355 317.8 460.802C317.8 460.25 317.352 459.802 316.8 459.802C316.248 459.802 315.8 460.25 315.8 460.802C315.8 461.355 316.248 461.802 316.8 461.802Z" fill="#0069ff"/>
<path d="M331.2 461.802C331.752 461.802 332.2 461.355 332.2 460.802C332.2 460.25 331.752 459.802 331.2 459.802C330.648 459.802 330.2 460.25 330.2 460.802C330.2 461.355 330.648 461.802 331.2 461.802Z" fill="#0069ff"/>
<path d="M345.6 461.802C346.152 461.802 346.6 461.355 346.6 460.802C346.6 460.25 346.152 459.802 345.6 459.802C345.048 459.802 344.6 460.25 344.6 460.802C344.6 461.355 345.048 461.802 345.6 461.802Z" fill="#0069ff"/>
<path d="M360 461.803C360.552 461.803 361 461.355 361 460.803C361 460.25 360.552 459.802 360 459.802C359.448 459.802 359 460.25 359 460.803C359 461.355 359.448 461.803 360 461.803Z" fill="#0069ff"/>
<path d="M331.2 476.203C331.752 476.203 332.2 475.756 332.2 475.203C332.2 474.651 331.752 474.203 331.2 474.203C330.648 474.203 330.2 474.651 330.2 475.203C330.2 475.756 330.648 476.203 331.2 476.203Z" fill="#0069ff"/>
<path d="M345.6 476.203C346.152 476.203 346.6 475.756 346.6 475.203C346.6 474.651 346.152 474.203 345.6 474.203C345.048 474.203 344.6 474.651 344.6 475.203C344.6 475.756 345.048 476.203 345.6 476.203Z" fill="#0069ff"/>
<path d="M360 476.204C360.552 476.204 361 475.756 361 475.204C361 474.651 360.552 474.203 360 474.203C359.448 474.203 359 474.651 359 475.204C359 475.756 359.448 476.204 360 476.204Z" fill="#0069ff"/>
<path d="M345.6 490.604C346.152 490.604 346.6 490.157 346.6 489.604C346.6 489.052 346.152 488.604 345.6 488.604C345.048 488.604 344.6 489.052 344.6 489.604C344.6 490.157 345.048 490.604 345.6 490.604Z" fill="#0069ff"/>
<path d="M360 490.605C360.552 490.605 361 490.157 361 489.605C361 489.052 360.552 488.604 360 488.604C359.448 488.604 359 489.052 359 489.605C359 490.157 359.448 490.605 360 490.605Z" fill="#0069ff"/>
<path d="M360 505.006C360.552 505.006 361 504.558 361 504.006C361 503.453 360.552 503.006 360 503.006C359.448 503.006 359 503.453 359 504.006C359 504.558 359.448 505.006 360 505.006Z" fill="#0069ff"/>
</g>
<defs>
<clipPath id="clip0_140_348730">
<rect width="360" height="504" fill="white"/>
</clipPath>
</defs>
</svg>
