<svg width="180" height="40" viewBox="0 0 180 40" fill="none" xmlns="../../../../../www.w3.org/2000/svg.html">
<path d="M1.52734 1.58398H13.5777C14.8473 1.58398 16.0746 1.71462 17.2621 1.97123C18.4471 2.23017 19.4938 2.6804 20.3996 3.32193C21.3054 3.96345 22.0282 4.82192 22.5703 5.89735C23.1101 6.97277 23.3823 8.31881 23.3823 9.93311C23.3823 12.8491 22.4694 15.0536 20.646 16.5443C18.8226 18.0326 16.1286 18.7791 12.5639 18.7791H5.2727V30.2309H1.52734V1.58398ZM5.2727 15.3312H12.6085C15.096 15.3312 16.8561 14.8787 17.891 13.9735C18.9259 13.0684 19.4422 11.762 19.4422 10.0567C19.4422 9.06997 19.2755 8.25115 18.94 7.60496C18.6067 6.95644 18.1397 6.43856 17.546 6.04665C16.9499 5.65707 16.2553 5.38413 15.4598 5.23017C14.6642 5.0762 13.8171 4.99922 12.9206 4.99922H5.27035V15.3312H5.2727Z" fill="#EB262A"/>
<path d="M36.1813 12.8804C35.5782 12.7148 34.8179 12.6331 33.9026 12.6331C32.03 12.6331 30.4178 13.6152 29.0637 15.5748V30.2272H25.3184V9.46515H29.0637V12.4138C30.5609 10.1603 32.3726 9.03125 34.494 9.03125C34.7639 9.03125 35.0338 9.04291 35.306 9.06158C35.5758 9.08257 35.8692 9.12456 36.1813 9.18522V12.8804Z" fill="#EB262A"/>
<path d="M44.6139 9.0332C46.1111 9.0332 47.4651 9.27581 48.6713 9.76337C49.8775 10.2486 50.9077 10.9531 51.7619 11.8722C52.6162 12.7937 53.2709 13.9251 53.7285 15.2711C54.1861 16.6148 54.4161 18.1475 54.4161 19.8644C54.4161 21.6444 54.1767 23.205 53.698 24.5511C53.2193 25.8948 52.5481 27.0285 51.6845 27.95C50.8209 28.8714 49.7907 29.5643 48.5939 30.0308C47.3971 30.4951 46.0712 30.7283 44.6139 30.7283C43.1777 30.7283 41.8612 30.4951 40.6643 30.0308C39.4675 29.5643 38.4373 28.8714 37.5737 27.95C36.7101 27.0285 36.0437 25.8971 35.5767 24.5511C35.1097 23.205 34.875 21.6444 34.875 19.8644C34.875 18.1055 35.1097 16.5495 35.5767 15.1942C36.0437 13.8388 36.7101 12.7074 37.5737 11.7953C38.4373 10.8855 39.4675 10.1973 40.6643 9.73071C41.8612 9.26648 43.1777 9.0332 44.6139 9.0332ZM44.6139 27.838C46.4537 27.838 47.9133 27.1685 48.9905 25.8294C50.0676 24.4904 50.6074 22.5005 50.6074 19.8644C50.6074 18.5137 50.4595 17.3403 50.1685 16.3442C49.8752 15.3481 49.4622 14.5176 48.9295 13.8528C48.3968 13.1879 47.7631 12.691 47.031 12.3575C46.2988 12.0262 45.4915 11.8582 44.6139 11.8582C43.7151 11.8582 42.8984 12.0355 42.1662 12.3878C41.4317 12.74 40.8051 13.2556 40.2818 13.9298C39.7585 14.604 39.3502 15.4414 39.0568 16.4375C38.7635 17.4337 38.618 18.5767 38.618 19.8644C38.618 22.4609 39.1554 24.4391 40.2325 25.7991C41.312 27.1591 42.7717 27.838 44.6139 27.838Z" fill="#EB262A"/>
<path d="M69.2144 27.7744C67.5529 29.741 65.5699 30.7231 63.2631 30.7231C61.9138 30.7231 60.7146 30.4758 59.6656 29.9789C58.6166 29.4821 57.7225 28.7752 56.988 27.8538C56.2511 26.9346 55.6903 25.8102 55.3054 24.4875C54.9206 23.1625 54.7305 21.6741 54.7305 20.0178C54.7305 18.3219 54.9487 16.7962 55.3852 15.4409C55.8217 14.0855 56.4271 12.9331 57.2063 11.9813C57.9854 11.0295 58.91 10.2994 59.9777 9.79314C61.0478 9.28692 62.2259 9.03264 63.5142 9.03264C65.7788 9.03264 67.6773 9.70449 69.2144 11.0505V1.58398H72.9292V30.2286H69.2144V27.7744ZM69.2144 24.3312V14.3888C67.5905 12.6998 65.76 11.8553 63.7207 11.8553C62.139 11.8553 60.8695 12.5295 59.912 13.8802C58.9546 15.2309 58.4758 17.2768 58.4758 20.0178C58.4758 22.6143 58.9287 24.5668 59.8346 25.8755C60.7404 27.1842 61.9818 27.8374 63.5658 27.8374C65.6028 27.8374 67.4872 26.6687 69.2144 24.3312Z" fill="#EB262A"/>
<path d="M89.0698 28.1175C87.1595 29.8555 84.7307 30.7233 81.7809 30.7233C80.7624 30.7233 79.819 30.5787 78.946 30.2894C78.073 30.0001 77.3221 29.5919 76.6885 29.0623C76.0549 28.5351 75.562 27.9053 75.21 27.1704C74.8557 26.4356 74.6797 25.6238 74.6797 24.735C74.6797 19.8734 78.8733 17.4426 87.2628 17.4426H89.0698C89.0698 16.4861 89.0275 15.6533 88.9454 14.9465C88.8609 14.2397 88.6614 13.6565 88.3399 13.1992C88.0184 12.742 87.528 12.4037 86.8662 12.1844C86.2044 11.9675 85.2845 11.8579 84.1041 11.8579C80.7952 11.8579 79.0986 13.0476 79.0164 15.4271H75.3016C75.5926 11.165 78.5893 9.03516 84.2918 9.03516C85.6248 9.03516 86.8146 9.1448 87.8659 9.36175C88.9149 9.5787 89.8066 9.97761 90.5341 10.5561C91.2616 11.1347 91.8201 11.9325 92.205 12.9449C92.5898 13.9574 92.7823 15.2521 92.7823 16.8244V30.2311H89.0674V28.1175H89.0698ZM89.0698 24.7723V20.1417H86.54C81.1707 20.1417 78.4861 21.6137 78.4861 24.553C78.4861 25.6168 78.8709 26.4309 79.6406 26.9931C80.4104 27.5577 81.4828 27.8376 82.8557 27.8376C83.4588 27.8376 84.0572 27.7699 84.6509 27.6346C85.2446 27.4993 85.8102 27.2964 86.3523 27.0235C86.892 26.7528 87.3989 26.4286 87.8659 26.053C88.3376 25.6798 88.7365 25.2528 89.0698 24.7723Z" fill="#EB262A"/>
<path d="M99.5012 11.9189C101.142 9.99432 103.125 9.0332 105.45 9.0332C106.8 9.0332 108.003 9.28748 109.064 9.7937C110.122 10.2999 111.017 11.0138 111.744 11.9352C112.472 12.8567 113.025 13.9741 113.41 15.2875C113.795 16.6008 113.988 18.0658 113.988 19.6801C113.988 21.3551 113.769 22.8761 113.333 24.2408C112.896 25.6055 112.284 26.7696 111.495 27.733C110.707 28.6965 109.77 29.436 108.691 29.9515C107.611 30.4694 106.438 30.7283 105.171 30.7283C102.927 30.7283 101.038 30.0355 99.5012 28.6498V38.2073H95.7559V9.46711H99.5012V11.9189ZM99.5012 25.3559C101.062 27.0122 102.883 27.838 104.964 27.838C106.588 27.838 107.863 27.1638 108.79 25.8131C109.716 24.4624 110.179 22.4165 110.179 19.6755C110.179 17.0791 109.742 15.1265 108.867 13.8178C107.992 12.5091 106.743 11.8559 105.122 11.8559C103.082 11.8559 101.21 13.055 99.5036 15.4484V25.3559H99.5012Z" fill="#EB262A"/>
<path d="M123.726 30.2586C123.311 30.3425 122.884 30.4032 122.447 30.4452C122.011 30.4848 121.553 30.5082 121.074 30.5082C119.906 30.5082 118.986 30.3635 118.315 30.0743C117.643 29.785 117.144 29.3628 116.82 28.8145C116.494 28.2663 116.294 27.5968 116.221 26.8107C116.149 26.0222 116.111 25.1334 116.111 24.1373V12.3566H113.551V9.46622H116.111V4.3457H119.856V9.46622H123.226V12.3519H119.856V24.3472C119.856 25.0727 119.903 25.6559 119.997 26.0922C120.091 26.5284 120.22 26.8597 120.387 27.0906C120.553 27.3192 120.767 27.4685 121.027 27.5408C121.288 27.6131 121.574 27.6481 121.886 27.6481C122.22 27.6481 122.536 27.6388 122.837 27.6178C123.139 27.5968 123.435 27.5572 123.726 27.4942V30.2586V30.2586Z" fill="#EB262A"/>
<path d="M123.119 20.9355H132.466V30.2295" fill="#EB262A"/>
<path d="M137.496 8.25149C137.454 8.83235 137.238 9.29192 136.848 9.62551C136.459 9.9591 135.945 10.1271 135.306 10.1271C134.609 10.1271 134.06 9.89378 133.659 9.42722C133.26 8.96066 133.061 8.31914 133.061 7.50499V7.17373C133.061 6.65351 133.152 6.19628 133.337 5.7997C133.523 5.40313 133.786 5.09986 134.128 4.88757C134.471 4.67529 134.87 4.57031 135.323 4.57031C135.952 4.57031 136.456 4.73827 136.839 5.07187C137.221 5.40546 137.444 5.87435 137.505 6.47855H136.383C136.355 6.12863 136.259 5.87669 136.09 5.71805C135.921 5.56176 135.665 5.48244 135.323 5.48244C134.95 5.48244 134.67 5.61541 134.485 5.88135C134.3 6.14729 134.203 6.5602 134.199 7.12007V7.52831C134.199 8.11385 134.288 8.54075 134.466 8.80903C134.645 9.07963 134.926 9.21494 135.309 9.21494C135.654 9.21494 135.914 9.13562 136.083 8.97932C136.254 8.82302 136.351 8.57808 136.376 8.24915H137.496V8.25149Z" fill="#1C1C1C"/>
<path d="M139.217 6.47089C139.503 6.12797 139.864 5.95767 140.296 5.95767C141.174 5.95767 141.617 6.46389 141.629 7.47633V10.0494H140.549V7.50666C140.549 7.27571 140.5 7.10541 140.399 6.99577C140.301 6.88613 140.134 6.83014 139.902 6.83014C139.585 6.83014 139.357 6.95145 139.214 7.19406V10.0494H138.135V4.3457H139.214V6.47089H139.217Z" fill="#1C1C1C"/>
<path d="M144.787 10.0523C144.737 9.95666 144.7 9.83535 144.679 9.69305C144.416 9.98232 144.078 10.127 143.658 10.127C143.261 10.127 142.933 10.0126 142.675 9.78637C142.414 9.55775 142.285 9.27081 142.285 8.92556C142.285 8.49865 142.445 8.17206 142.762 7.94578C143.078 7.71716 143.538 7.60286 144.139 7.60052H144.637V7.36957C144.637 7.18295 144.587 7.03598 144.493 6.92401C144.397 6.81203 144.247 6.75605 144.038 6.75605C143.855 6.75605 143.714 6.80037 143.611 6.88668C143.508 6.973 143.456 7.09197 143.456 7.2436H142.377C142.377 7.01032 142.449 6.7957 142.593 6.59742C142.738 6.39913 142.942 6.24283 143.205 6.13085C143.468 6.01888 143.766 5.96289 144.094 5.96289C144.592 5.96289 144.989 6.08653 145.282 6.33614C145.575 6.58575 145.721 6.93567 145.721 7.3859V9.12851C145.723 9.50876 145.777 9.79803 145.883 9.99399V10.057H144.787V10.0523ZM143.893 9.30581C144.052 9.30581 144.2 9.27081 144.334 9.20083C144.468 9.13085 144.569 9.0352 144.632 8.91623V8.22572H144.228C143.688 8.22572 143.4 8.41234 143.365 8.78326L143.36 8.84624C143.36 8.97921 143.407 9.09119 143.503 9.1775C143.599 9.26148 143.728 9.30581 143.893 9.30581Z" fill="#1C1C1C"/>
<path d="M148.736 8.94069C148.736 8.81006 148.67 8.70508 148.539 8.63043C148.407 8.55578 148.198 8.48813 147.91 8.42748C146.948 8.22685 146.467 7.82095 146.467 7.20975C146.467 6.85283 146.614 6.55423 146.912 6.31628C147.21 6.07834 147.6 5.95703 148.081 5.95703C148.595 5.95703 149.006 6.076 149.313 6.31628C149.621 6.55656 149.775 6.86916 149.775 7.25174H148.696C148.696 7.09777 148.647 6.9718 148.546 6.87149C148.447 6.77118 148.29 6.71986 148.079 6.71986C147.896 6.71986 147.755 6.76185 147.656 6.8435C147.558 6.92515 147.506 7.03012 147.506 7.1561C147.506 7.27507 147.562 7.37071 147.675 7.44303C147.788 7.51535 147.98 7.57833 148.248 7.63199C148.518 7.68564 148.743 7.7463 148.928 7.81161C149.499 8.01923 149.785 8.38082 149.785 8.89171C149.785 9.25796 149.628 9.55422 149.311 9.78051C148.994 10.0068 148.586 10.1211 148.086 10.1211C147.748 10.1211 147.445 10.0604 147.182 9.94147C146.919 9.8225 146.713 9.65687 146.563 9.44691C146.413 9.23696 146.34 9.01068 146.34 8.76807H147.363C147.372 8.95936 147.443 9.10399 147.577 9.20663C147.708 9.30928 147.886 9.35827 148.107 9.35827C148.313 9.35827 148.471 9.31861 148.576 9.24163C148.682 9.16931 148.736 9.06667 148.736 8.94069Z" fill="#1C1C1C"/>
<path d="M152.34 10.1273C151.747 10.1273 151.266 9.94771 150.893 9.58612C150.519 9.22454 150.334 8.74398 150.334 8.14211V8.03714C150.334 7.63356 150.411 7.27198 150.569 6.95471C150.726 6.63745 150.949 6.39251 151.235 6.21988C151.521 6.04725 151.85 5.96094 152.218 5.96094C152.772 5.96094 153.206 6.13357 153.526 6.48115C153.842 6.82874 154.002 7.31863 154.002 7.95549V8.39406H151.428C151.463 8.65533 151.568 8.86762 151.742 9.02625C151.918 9.18488 152.141 9.26419 152.408 9.26419C152.824 9.26419 153.15 9.11489 153.385 8.81396L153.915 9.40416C153.753 9.63278 153.533 9.81007 153.258 9.93604C152.983 10.062 152.676 10.1273 152.34 10.1273ZM152.218 6.82408C152.005 6.82408 151.831 6.89639 151.697 7.04103C151.564 7.18566 151.479 7.39095 151.442 7.65922H152.944V7.57291C152.939 7.33496 152.873 7.14834 152.749 7.02003C152.624 6.8894 152.446 6.82408 152.218 6.82408Z" fill="#1C1C1C"/>
<path d="M136.334 16.8364H134.182V18.2851H136.707V19.1809H133.061V13.7734H136.7V14.6762H134.182V15.9663H136.334V16.8364Z" fill="#1C1C1C"/>
<path d="M138.998 16.3592L139.679 15.1602H140.833L139.683 17.129L140.882 19.1796H139.723L139.003 17.9175L138.285 19.1796H137.123L138.322 17.129L137.175 15.1602H138.334L138.998 16.3592Z" fill="#1C1C1C"/>
<path d="M142.644 14.1738V15.1606H143.336V15.9491H142.644V17.9553C142.644 18.1046 142.672 18.2096 142.731 18.2749C142.787 18.3402 142.897 18.3706 143.059 18.3706C143.179 18.3706 143.285 18.3612 143.376 18.3449V19.159C143.165 19.2244 142.947 19.2547 142.721 19.2547C141.963 19.2547 141.579 18.8744 141.562 18.1139V15.9491H140.971V15.1606H141.562V14.1738H142.644V14.1738Z" fill="#1C1C1C"/>
<path d="M146.209 16.1684C146.061 16.1474 145.932 16.138 145.82 16.138C145.411 16.138 145.144 16.2757 145.017 16.5509V19.18H143.938V15.1606H144.958L144.989 15.6388C145.205 15.2702 145.505 15.0859 145.89 15.0859C146.01 15.0859 146.122 15.1023 146.226 15.1349L146.209 16.1684Z" fill="#1C1C1C"/>
<path d="M148.959 19.1793C148.909 19.0836 148.872 18.9623 148.851 18.82C148.588 19.1093 148.25 19.2539 147.83 19.2539C147.433 19.2539 147.105 19.1396 146.847 18.9133C146.586 18.6847 146.457 18.3978 146.457 18.0525C146.457 17.6256 146.617 17.299 146.933 17.0727C147.25 16.8441 147.71 16.7298 148.311 16.7275H148.808V16.4965C148.808 16.3099 148.759 16.1629 148.665 16.051C148.569 15.939 148.419 15.883 148.21 15.883C148.027 15.883 147.886 15.9273 147.783 16.0136C147.68 16.1 147.628 16.2189 147.628 16.3706H146.549C146.549 16.1373 146.621 15.9227 146.764 15.7244C146.91 15.5261 147.114 15.3698 147.377 15.2578C147.64 15.1458 147.938 15.0898 148.266 15.0898C148.764 15.0898 149.16 15.2135 149.454 15.4631C149.747 15.7127 149.893 16.0626 149.893 16.5129V18.2555C149.895 18.6357 149.949 18.925 150.055 19.1209V19.1839H148.959V19.1793ZM148.067 18.4328C148.226 18.4328 148.374 18.3978 148.508 18.3278C148.642 18.2578 148.743 18.1622 148.806 18.0432V17.3527H148.403C147.863 17.3527 147.574 17.5393 147.539 17.9102L147.534 17.9732C147.534 18.1062 147.581 18.2181 147.677 18.3045C147.771 18.3884 147.903 18.4328 148.067 18.4328Z" fill="#1C1C1C"/>
<path d="M150.551 17.1341C150.551 16.7352 150.628 16.3806 150.783 16.068C150.938 15.7555 151.161 15.5152 151.45 15.3425C151.741 15.1723 152.076 15.0859 152.461 15.0859C153.008 15.0859 153.451 15.2516 153.796 15.5828C154.141 15.9141 154.334 16.3643 154.374 16.9359L154.381 17.2111C154.381 17.827 154.207 18.3215 153.862 18.6948C153.515 19.068 153.05 19.2547 152.468 19.2547C151.886 19.2547 151.419 19.068 151.072 18.6971C150.724 18.3262 150.551 17.82 150.551 17.1808V17.1341V17.1341ZM151.633 17.2088C151.633 17.5914 151.705 17.883 151.849 18.0859C151.992 18.2889 152.201 18.3892 152.468 18.3892C152.731 18.3892 152.933 18.2889 153.081 18.0906C153.228 17.89 153.301 17.5727 153.301 17.1318C153.301 16.7562 153.228 16.467 153.081 16.2617C152.933 16.0564 152.726 15.9537 152.461 15.9537C152.198 15.9537 151.992 16.0564 151.849 16.2617C151.703 16.4646 151.633 16.7796 151.633 17.2088Z" fill="#1C1C1C"/>
<path d="M157.318 16.1684C157.171 16.1474 157.042 16.138 156.929 16.138C156.521 16.138 156.253 16.2757 156.126 16.5509V19.18H155.047V15.1606H156.068L156.098 15.6388C156.314 15.2702 156.614 15.0859 156.999 15.0859C157.119 15.0859 157.232 15.1023 157.335 15.1349L157.318 16.1684Z" fill="#1C1C1C"/>
<path d="M157.598 17.1418C157.598 16.5143 157.738 16.0174 158.022 15.6441C158.304 15.2732 158.691 15.0866 159.182 15.0866C159.576 15.0866 159.9 15.2335 160.158 15.5251V13.4746H161.242V19.1807H160.266L160.214 18.7538C159.944 19.0873 159.599 19.2553 159.175 19.2553C158.698 19.2553 158.318 19.0687 158.029 18.6954C157.743 18.3222 157.598 17.8043 157.598 17.1418ZM158.679 17.2211C158.679 17.599 158.745 17.886 158.877 18.0889C159.008 18.2895 159.2 18.3898 159.452 18.3898C159.785 18.3898 160.022 18.2499 160.158 17.9699V16.3813C160.024 16.1014 159.789 15.9614 159.459 15.9614C158.938 15.9591 158.679 16.3813 158.679 17.2211Z" fill="#1C1C1C"/>
<path d="M162.07 14.1193C162.07 13.9583 162.124 13.8253 162.232 13.7227C162.34 13.6177 162.488 13.5664 162.676 13.5664C162.861 13.5664 163.007 13.6177 163.117 13.7227C163.227 13.8277 163.281 13.9583 163.281 14.1193C163.281 14.2826 163.225 14.4155 163.115 14.5205C163.004 14.6255 162.856 14.6768 162.676 14.6768C162.495 14.6768 162.347 14.6255 162.237 14.5205C162.127 14.4179 162.07 14.2826 162.07 14.1193ZM163.218 19.1791H162.134V15.1597H163.218V19.1791Z" fill="#1C1C1C"/>
<path d="M165.102 15.1606L165.135 15.6248C165.424 15.2656 165.811 15.0859 166.297 15.0859C166.726 15.0859 167.043 15.2119 167.254 15.4615C167.463 15.7111 167.571 16.0867 167.576 16.5836V19.18H166.496V16.6093C166.496 16.3806 166.447 16.2174 166.346 16.1124C166.247 16.0097 166.081 15.9584 165.848 15.9584C165.546 15.9584 165.316 16.0867 165.165 16.3457V19.18H164.086V15.1606H165.102Z" fill="#1C1C1C"/>
<path d="M170.738 19.1793C170.689 19.0836 170.651 18.9623 170.63 18.82C170.367 19.1093 170.029 19.2539 169.609 19.2539C169.213 19.2539 168.884 19.1396 168.626 18.9133C168.365 18.6847 168.236 18.3978 168.236 18.0525C168.236 17.6256 168.396 17.299 168.713 17.0727C169.03 16.8441 169.489 16.7298 170.09 16.7275H170.588V16.4965C170.588 16.3099 170.541 16.1629 170.445 16.051C170.348 15.939 170.198 15.883 169.989 15.883C169.806 15.883 169.665 15.9273 169.562 16.0136C169.459 16.1 169.407 16.2189 169.407 16.3706H168.328C168.328 16.1373 168.401 15.9227 168.544 15.7244C168.689 15.5261 168.893 15.3698 169.156 15.2578C169.419 15.1458 169.717 15.0898 170.046 15.0898C170.543 15.0898 170.94 15.2135 171.233 15.4631C171.526 15.7127 171.672 16.0626 171.672 16.5129V18.2555C171.674 18.6357 171.728 18.925 171.834 19.1209V19.1839H170.738V19.1793ZM169.844 18.4328C170.003 18.4328 170.151 18.3978 170.285 18.3278C170.419 18.2578 170.52 18.1622 170.583 18.0432V17.3527H170.179C169.64 17.3527 169.351 17.5393 169.316 17.9102L169.311 17.9732C169.311 18.1062 169.358 18.2181 169.454 18.3045C169.55 18.3884 169.68 18.4328 169.844 18.4328Z" fill="#1C1C1C"/>
<path d="M174.77 16.1684C174.622 16.1474 174.493 16.138 174.38 16.138C173.972 16.138 173.704 16.2757 173.578 16.5509V19.18H172.498V15.1606H173.519L173.549 15.6388C173.765 15.2702 174.066 15.0859 174.45 15.0859C174.57 15.0859 174.683 15.1023 174.786 15.1349L174.77 16.1684Z" fill="#1C1C1C"/>
<path d="M176.864 17.6609L177.61 15.1602H178.77L177.143 19.8024L177.054 20.0147C176.813 20.5396 176.414 20.8032 175.857 20.8032C175.7 20.8032 175.541 20.7799 175.379 20.7332V19.9191L175.543 19.9238C175.747 19.9238 175.9 19.8934 176.001 19.8304C176.101 19.7698 176.181 19.6648 176.238 19.5225L176.364 19.1912L174.949 15.1602H176.111L176.864 17.6609Z" fill="#1C1C1C"/>
</svg>
